<?xml version="1.0" encoding="utf-8"?>
<!-- Generator: Adobe Illustrator 27.0.1, SVG Export Plug-In . SVG Version: 6.00 Build 0)  -->
<svg version="1.1" xmlns="http://www.w3.org/2000/svg" xmlns:xlink="http://www.w3.org/1999/xlink" x="0px" y="0px"
	 viewBox="0 0 1021 767.7" style="enable-background:new 0 0 1021 767.7;" xml:space="preserve">
<style type="text/css">
	.st0{fill:#FFFFFF;stroke:#000000;stroke-miterlimit:10;}
	.st1{fill:none;stroke:#000000;stroke-miterlimit:10;}
	.st2{fill:none;stroke:#000000;stroke-miterlimit:10;stroke-dasharray:11.6667,11.6667;}
	.st3{fill:none;stroke:#000000;stroke-miterlimit:10;stroke-dasharray:10.5,10.5;}
	.st4{fill:none;stroke:#000000;stroke-miterlimit:10;stroke-dasharray:12.5458,12.5458;}
	.st5{fill:#FFFFFF;}
	.st6{font-family:'IBMPlexSans-Text';}
	.st7{font-size:14px;}
	.st8{fill:none;stroke:#000000;stroke-miterlimit:10;stroke-dasharray:12.2838,12.2838;}
	.st9{fill:none;stroke:#000000;stroke-miterlimit:10;stroke-dasharray:12;}
	.st10{fill:none;stroke:#000000;stroke-miterlimit:10;stroke-dasharray:12.643,12.643;}
</style>
<g id="Layer_1">
	<rect x="234" y="95.3" class="st0" width="760" height="576"/>
	<rect x="446.5" y="482.8" class="st0" width="368" height="130"/>
	<rect x="246.5" y="453.8" class="st0" width="351" height="59"/>
	<g>
		<g>
			<line class="st1" x1="149.5" y1="225.8" x2="149.5" y2="231.8"/>
			<line class="st2" x1="149.5" y1="243.5" x2="149.5" y2="471"/>
			<line class="st1" x1="149.5" y1="476.8" x2="149.5" y2="482.8"/>
		</g>
	</g>
	<g>
		<g>
			<line class="st1" x1="149" y1="482.8" x2="155" y2="482.8"/>
			<line class="st3" x1="165.5" y1="482.8" x2="223.2" y2="482.8"/>
			<line class="st1" x1="228.5" y1="482.8" x2="234.5" y2="482.8"/>
		</g>
	</g>
	<g>
		<g>
			<line class="st1" x1="764.5" y1="498.5" x2="758.5" y2="498.5"/>
			<line class="st4" x1="746" y1="498.5" x2="626.8" y2="497.9"/>
			<line class="st1" x1="620.5" y1="497.9" x2="614.5" y2="497.8"/>
		</g>
	</g>
</g>
<g id="Layer_8">
</g>
<g id="Layer_2">
	<g>
		<text transform="matrix(1 0 0 1 253.9487 111.6939)" class="st5 st6 st7">Apache deployable architecture stack </text>
	</g>
	<g>
		<text transform="matrix(1 0 0 1 253.9487 111.6939)" class="st6 st7">Apache deployable architecture stack </text>
	</g>
	<g>
		<text transform="matrix(1 0 0 1 253.9487 111.6939)" class="st1 st6 st7">Apache deployable architecture stack </text>
	</g>
</g>
<g id="Layer_3">
	<rect x="16.5" y="152.8" class="st0" width="267" height="73"/>
	<rect x="446.5" y="249.8" class="st0" width="368" height="130"/>
	<rect x="630.5" y="207.8" class="st0" width="267" height="59"/>
	<rect x="630.5" y="352.8" class="st0" width="267" height="44"/>
	<rect x="631.5" y="600.8" class="st0" width="267" height="44"/>
</g>
<g id="Layer_5">
	<g>
		<line class="st5" x1="284" y1="184.3" x2="750.5" y2="183.8"/>
		<g>
			<line class="st1" x1="284" y1="184.3" x2="290" y2="184.3"/>
			<line class="st8" x1="302.3" y1="184.3" x2="738.4" y2="183.8"/>
			<line class="st1" x1="744.5" y1="183.8" x2="750.5" y2="183.8"/>
		</g>
	</g>
	<line class="st9" x1="750.5" y1="183.8" x2="750.5" y2="206.8"/>
	<line class="st1" x1="739.5" y1="197.8" x2="750.5" y2="206.8"/>
	<line class="st1" x1="750.5" y1="206.8" x2="760.5" y2="197.8"/>
</g>
<g id="Layer_13">
	<line class="st1" x1="236.5" y1="490.8" x2="245.2" y2="483.2"/>
	<line class="st1" x1="236.2" y1="474.2" x2="246.2" y2="483.2"/>
</g>
<g id="Layer_4">
	<g>
		<g>
			<path d="M28.6,166.4l1-0.9c0.7,0.9,1.5,1.4,2.6,1.4c1.3,0,2-0.7,2-1.7c0-0.9-0.5-1.3-1.7-1.6l-0.8-0.2c-1.8-0.4-2.8-1.2-2.8-2.7
				c0-1.7,1.3-2.7,3.3-2.7c1.5,0,2.5,0.5,3.3,1.6l-1,0.8c-0.5-0.7-1.2-1.2-2.3-1.2c-1.2,0-1.9,0.5-1.9,1.5c0,0.9,0.5,1.3,1.7,1.5
				l0.8,0.2c1.9,0.4,2.8,1.3,2.8,2.8c0,1.8-1.3,3-3.4,3C30.5,168.1,29.4,167.5,28.6,166.4z"/>
			<path d="M39.2,167.9c-0.9,0-1.4-0.5-1.4-1.4v-4.8h-1.2v-1.1h0.6c0.5,0,0.6-0.2,0.6-0.7v-1.3h1.2v2h1.6v1.1h-1.6v5h1.4v1.1H39.2z"
				/>
			<path d="M47.7,167.9c-0.8,0-1.2-0.5-1.3-1.2h-0.1c-0.3,0.9-1.1,1.4-2.1,1.4c-1.5,0-2.4-0.8-2.4-2.2c0-1.4,1-2.2,3.1-2.2h1.4v-0.7
				c0-1-0.5-1.5-1.6-1.5c-0.9,0-1.4,0.4-1.8,1l-0.8-0.7c0.4-0.8,1.3-1.4,2.6-1.4c1.8,0,2.8,0.9,2.8,2.5v3.8h0.8v1.1H47.7z
				 M46.3,165.8v-1.1h-1.4c-1.2,0-1.7,0.4-1.7,1v0.3c0,0.7,0.5,1.1,1.3,1.1C45.6,167.1,46.3,166.5,46.3,165.8z"/>
			<path d="M49.5,164.3c0-2.3,1.2-3.8,3.3-3.8c1.4,0,2.3,0.7,2.7,1.7l-1.1,0.5c-0.2-0.7-0.8-1.1-1.7-1.1c-1.2,0-1.9,0.9-1.9,2v1.3
				c0,1.2,0.6,2,1.9,2c0.9,0,1.5-0.4,1.8-1.2l1,0.6c-0.5,1.1-1.4,1.8-2.8,1.8C50.7,168.1,49.5,166.6,49.5,164.3z"/>
			<path d="M57.1,157.6h1.3v6.5h0.1l1-1.3l1.9-2.1h1.5l-2.6,2.8l2.9,4.5h-1.6l-2.3-3.6l-1,1.1v2.5h-1.3V157.6z"/>
			<path d="M67.8,158.5v-0.2c0-0.4,0.2-0.7,0.8-0.7c0.5,0,0.8,0.3,0.8,0.7v0.2c0,0.4-0.2,0.7-0.8,0.7
				C68,159.2,67.8,158.9,67.8,158.5z M67.9,160.7h1.3v7.3h-1.3V160.7z"/>
			<path d="M71.5,167.9v-7.3h1.3v1.2h0.1c0.3-0.8,1-1.4,2-1.4c1.5,0,2.4,1,2.4,2.8v4.6H76v-4.4c0-1.2-0.5-1.8-1.5-1.8
				c-0.9,0-1.7,0.4-1.7,1.3v5H71.5z"/>
			<path d="M79.5,160.7h1.3v1.2h0.1c0.3-0.9,1.1-1.4,2.1-1.4c1.8,0,2.9,1.4,2.9,3.8c0,2.4-1.1,3.8-2.9,3.8c-1,0-1.8-0.5-2.1-1.4
				h-0.1v4h-1.3V160.7z M84.5,164.9v-1.2c0-1.2-0.7-2-1.9-2c-1,0-1.8,0.6-1.8,1.3v2.7c0,0.8,0.8,1.3,1.8,1.3
				C83.7,167,84.5,166.2,84.5,164.9z"/>
			<path d="M92.1,166.8L92.1,166.8c-0.3,0.7-0.9,1.4-2.1,1.4c-1.5,0-2.4-1-2.4-2.8v-4.6h1.3v4.4c0,1.2,0.5,1.8,1.5,1.8
				c0.8,0,1.7-0.4,1.7-1.3v-5h1.3v7.3h-1.3V166.8z"/>
			<path d="M97.5,167.9c-0.9,0-1.4-0.5-1.4-1.4v-4.8H95v-1.1h0.6c0.5,0,0.6-0.2,0.6-0.7v-1.3h1.2v2H99v1.1h-1.6v5h1.4v1.1H97.5z"/>
			<path d="M100,166.7l0.9-0.8c0.5,0.7,1.2,1.1,2.1,1.1c0.9,0,1.4-0.4,1.4-1.1c0-0.5-0.3-0.9-1.2-1l-0.6-0.1
				c-1.4-0.2-2.4-0.8-2.4-2.1c0-1.4,1.1-2.2,2.6-2.2c1.2,0,2,0.4,2.6,1.2l-0.8,0.8c-0.4-0.5-1-0.9-1.8-0.9c-0.9,0-1.3,0.4-1.3,1
				c0,0.6,0.4,0.9,1.3,1l0.6,0.1c1.6,0.2,2.3,0.9,2.3,2.1c0,1.4-1.1,2.3-2.8,2.3C101.6,168.1,100.7,167.6,100,166.7z"/>
			<path d="M107.6,161.6v-0.2c0-0.5,0.3-0.9,0.9-0.9c0.6,0,0.9,0.4,0.9,0.9v0.2c0,0.5-0.3,0.9-0.9,0.9
				C107.9,162.5,107.6,162.1,107.6,161.6z M107.6,167.2V167c0-0.5,0.3-0.9,0.9-0.9c0.6,0,0.9,0.4,0.9,0.9v0.2c0,0.5-0.3,0.9-0.9,0.9
				C107.9,168.1,107.6,167.8,107.6,167.2z"/>
			<path d="M29.1,180.7v-0.4c0-0.9,0.5-1.5,1.8-1.5s1.8,0.7,1.8,1.5v0.4c0,0.9-0.5,1.5-1.8,1.5S29.1,181.6,29.1,180.7z"/>
			<path d="M47.2,177.5h1.3v1.2h0.1c0.3-0.9,1.1-1.4,2.1-1.4c1.8,0,2.9,1.4,2.9,3.8c0,2.4-1.1,3.8-2.9,3.8c-1,0-1.8-0.5-2.1-1.4
				h-0.1v4h-1.3V177.5z M52.2,181.7v-1.2c0-1.2-0.7-2-1.9-2c-1,0-1.8,0.6-1.8,1.3v2.7c0,0.8,0.8,1.3,1.8,1.3
				C51.4,183.8,52.2,183,52.2,181.7z"/>
			<path d="M55.4,184.7v-7.3h1.3v1.4h0.1c0.2-0.7,0.9-1.4,2-1.4h0.4v1.3h-0.6c-1.2,0-1.9,0.5-1.9,1.2v4.8H55.4z"/>
			<path d="M60.1,181.1c0-2.3,1.3-3.8,3.3-3.8c2,0,3.2,1.5,3.2,3.6v0.5h-5.1v0.3c0,1.2,0.7,2.1,2,2.1c0.9,0,1.6-0.4,2-1.2l0.8,0.7
				c-0.5,0.9-1.6,1.6-2.9,1.6C61.4,184.9,60.1,183.4,60.1,181.1z M61.5,180.4L61.5,180.4l3.7,0.1v-0.1c0-1.2-0.7-2-1.8-2
				C62.3,178.4,61.5,179.2,61.5,180.4z"/>
			<path d="M68.7,178.6h-1.2v-1.1h1.2v-1.3c0-1.1,0.6-1.8,1.7-1.8h1.1v1.1H70v2h4.2v7.3h-1.3v-6.1H70v6.1h-1.3V178.6z M72.8,175.3
				v-0.2c0-0.4,0.2-0.7,0.8-0.7s0.8,0.3,0.8,0.7v0.2c0,0.4-0.2,0.7-0.8,0.7S72.8,175.7,72.8,175.3z"/>
			<path d="M78.3,181.1l-2.5-3.6h1.5l1.8,2.6h0l1.8-2.6h1.4l-2.5,3.5l2.6,3.7h-1.5L79,182h0l-1.9,2.7h-1.4L78.3,181.1z"/>
			<path d="M29.1,197.5v-0.4c0-0.9,0.5-1.5,1.8-1.5s1.8,0.7,1.8,1.5v0.4c0,0.9-0.5,1.5-1.8,1.5S29.1,198.4,29.1,197.5z"/>
			<path d="M46.5,200.3l0.9-0.8c0.5,0.7,1.2,1.1,2.1,1.1c0.9,0,1.4-0.4,1.4-1.1c0-0.5-0.3-0.9-1.2-1l-0.6-0.1
				c-1.4-0.2-2.4-0.8-2.4-2.1c0-1.4,1.1-2.2,2.6-2.2c1.2,0,2,0.4,2.6,1.2l-0.8,0.8c-0.4-0.5-1-0.9-1.8-0.9c-0.9,0-1.3,0.4-1.3,1
				c0,0.6,0.4,0.9,1.3,1l0.6,0.1c1.6,0.2,2.3,0.9,2.3,2.1c0,1.4-1.1,2.3-2.8,2.3C48.1,201.7,47.2,201.2,46.5,200.3z"/>
			<path d="M53.4,200.3l0.9-0.8c0.5,0.7,1.2,1.1,2.1,1.1c0.9,0,1.4-0.4,1.4-1.1c0-0.5-0.3-0.9-1.2-1l-0.6-0.1
				c-1.4-0.2-2.4-0.8-2.4-2.1c0-1.4,1.1-2.2,2.6-2.2c1.2,0,2,0.4,2.6,1.2l-0.8,0.8c-0.4-0.5-1-0.9-1.8-0.9c-0.9,0-1.3,0.4-1.3,1
				c0,0.6,0.4,0.9,1.3,1l0.6,0.1c1.6,0.2,2.3,0.9,2.3,2.1c0,1.4-1.1,2.3-2.8,2.3C54.9,201.7,54,201.2,53.4,200.3z"/>
			<path d="M60.9,191.2h1.3v4.3h0.1c0.3-0.8,1-1.4,2-1.4c1.5,0,2.4,1,2.4,2.8v4.6h-1.3v-4.4c0-1.2-0.5-1.8-1.5-1.8
				c-0.9,0-1.7,0.4-1.7,1.3v5h-1.3V191.2z"/>
			<path d="M68.2,203.9v-1.1h7v1.1H68.2z"/>
			<path d="M76.8,191.2h1.3v6.5h0.1l1-1.3l1.9-2.1h1.5l-2.6,2.8l2.9,4.5h-1.6l-2.3-3.6l-1,1.1v2.5h-1.3V191.2z"/>
			<path d="M83.8,197.9c0-2.3,1.3-3.8,3.3-3.8c2,0,3.2,1.5,3.2,3.6v0.5h-5.1v0.3c0,1.2,0.7,2.1,2,2.1c0.9,0,1.6-0.4,2-1.2l0.8,0.7
				c-0.5,0.9-1.6,1.6-2.9,1.6C85.1,201.7,83.8,200.2,83.8,197.9z M85.2,197.2L85.2,197.2l3.7,0.1v-0.1c0-1.2-0.7-2-1.8-2
				C86,195.2,85.2,196,85.2,197.2z"/>
			<path d="M96.5,194.3h1.3l-3.2,8.8c-0.3,0.9-0.7,1.2-1.8,1.2h-0.7v-1.1h1.2l0.5-1.4l-2.7-7.5h1.3l1.6,4.6l0.4,1.4h0.1l0.4-1.4
				L96.5,194.3z"/>
			<path d="M29.1,214.3v-0.4c0-0.9,0.5-1.5,1.8-1.5s1.8,0.7,1.8,1.5v0.4c0,0.9-0.5,1.5-1.8,1.5S29.1,215.2,29.1,214.3z"/>
			<path d="M46.5,217.1l0.9-0.8c0.5,0.7,1.2,1.1,2.1,1.1c0.9,0,1.4-0.4,1.4-1.1c0-0.5-0.3-0.9-1.2-1l-0.6-0.1
				c-1.4-0.2-2.4-0.8-2.4-2.1c0-1.4,1.1-2.2,2.6-2.2c1.2,0,2,0.4,2.6,1.2l-0.8,0.8c-0.4-0.5-1-0.9-1.8-0.9c-0.9,0-1.3,0.4-1.3,1
				c0,0.6,0.4,0.9,1.3,1l0.6,0.1c1.6,0.2,2.3,0.9,2.3,2.1c0,1.4-1.1,2.3-2.8,2.3C48.1,218.5,47.2,218,46.5,217.1z"/>
			<path d="M53.4,217.1l0.9-0.8c0.5,0.7,1.2,1.1,2.1,1.1c0.9,0,1.4-0.4,1.4-1.1c0-0.5-0.3-0.9-1.2-1l-0.6-0.1
				c-1.4-0.2-2.4-0.8-2.4-2.1c0-1.4,1.1-2.2,2.6-2.2c1.2,0,2,0.4,2.6,1.2l-0.8,0.8c-0.4-0.5-1-0.9-1.8-0.9c-0.9,0-1.3,0.4-1.3,1
				c0,0.6,0.4,0.9,1.3,1l0.6,0.1c1.6,0.2,2.3,0.9,2.3,2.1c0,1.4-1.1,2.3-2.8,2.3C54.9,218.5,54,218,53.4,217.1z"/>
			<path d="M60.9,208h1.3v4.3h0.1c0.3-0.8,1-1.4,2-1.4c1.5,0,2.4,1,2.4,2.8v4.6h-1.3v-4.4c0-1.2-0.5-1.8-1.5-1.8
				c-0.9,0-1.7,0.4-1.7,1.3v5h-1.3V208z"/>
			<path d="M68.2,220.7v-1.1h7v1.1H68.2z"/>
			<path d="M76.8,211.1h1.3v1.2h0.1c0.3-0.9,1.1-1.4,2.1-1.4c1.8,0,2.9,1.4,2.9,3.8c0,2.4-1.1,3.8-2.9,3.8c-1,0-1.8-0.5-2.1-1.4
				h-0.1v4h-1.3V211.1z M81.8,215.3v-1.2c0-1.2-0.7-2-1.9-2c-1,0-1.8,0.6-1.8,1.3v2.7c0,0.8,0.8,1.3,1.8,1.3
				C81,217.4,81.8,216.6,81.8,215.3z"/>
			<path d="M85,218.3v-7.3h1.3v1.4h0.1c0.2-0.7,0.9-1.4,2-1.4h0.4v1.3h-0.6c-1.2,0-1.9,0.5-1.9,1.2v4.8H85z"/>
			<path d="M90.1,208.9v-0.2c0-0.4,0.2-0.7,0.8-0.7c0.5,0,0.8,0.3,0.8,0.7v0.2c0,0.4-0.2,0.7-0.8,0.7
				C90.4,209.6,90.1,209.3,90.1,208.9z M90.2,211.1h1.3v7.3h-1.3V211.1z"/>
			<path d="M95.4,218.3l-2.5-7.3h1.3l1.2,3.5l0.8,2.5h0.1l0.8-2.5l1.2-3.5h1.2l-2.5,7.3H95.4z"/>
			<path d="M106.1,218.3c-0.8,0-1.2-0.5-1.3-1.2h-0.1c-0.3,0.9-1.1,1.4-2.1,1.4c-1.5,0-2.4-0.8-2.4-2.2c0-1.4,1-2.2,3.1-2.2h1.4
				v-0.7c0-1-0.5-1.5-1.6-1.5c-0.9,0-1.4,0.4-1.8,1l-0.8-0.7c0.4-0.8,1.3-1.4,2.6-1.4c1.8,0,2.8,0.9,2.8,2.5v3.8h0.8v1.1H106.1z
				 M104.8,216.2v-1.1h-1.4c-1.2,0-1.7,0.4-1.7,1v0.3c0,0.7,0.5,1.1,1.3,1.1C104,217.5,104.8,216.9,104.8,216.2z"/>
			<path d="M110.2,218.3c-0.9,0-1.4-0.5-1.4-1.4v-4.8h-1.2v-1.1h0.6c0.5,0,0.6-0.2,0.6-0.7v-1.3h1.2v2h1.6v1.1h-1.6v5h1.4v1.1H110.2
				z"/>
			<path d="M112.9,214.7c0-2.3,1.3-3.8,3.3-3.8c2,0,3.2,1.5,3.2,3.6v0.5h-5.1v0.3c0,1.2,0.7,2.1,2,2.1c0.9,0,1.6-0.4,2-1.2l0.8,0.7
				c-0.5,0.9-1.6,1.6-2.9,1.6C114.2,218.5,112.9,217,112.9,214.7z M114.3,214L114.3,214l3.7,0.1V214c0-1.2-0.7-2-1.8-2
				C115.1,212,114.3,212.8,114.3,214z"/>
			<path d="M120.4,220.7v-1.1h7v1.1H120.4z"/>
			<path d="M129,208h1.3v6.5h0.1l1-1.3l1.9-2.1h1.5l-2.6,2.8l2.9,4.5h-1.6l-2.3-3.6l-1,1.1v2.5H129V208z"/>
			<path d="M136,214.7c0-2.3,1.3-3.8,3.3-3.8c2,0,3.2,1.5,3.2,3.6v0.5h-5.1v0.3c0,1.2,0.7,2.1,2,2.1c0.9,0,1.6-0.4,2-1.2l0.8,0.7
				c-0.5,0.9-1.6,1.6-2.9,1.6C137.3,218.5,136,217,136,214.7z M137.4,214L137.4,214l3.7,0.1V214c0-1.2-0.7-2-1.8-2
				C138.2,212,137.4,212.8,137.4,214z"/>
			<path d="M148.7,211.1h1.3l-3.2,8.8c-0.3,0.9-0.7,1.2-1.8,1.2h-0.7V220h1.2l0.5-1.4l-2.7-7.5h1.3l1.6,4.6l0.4,1.4h0.1l0.4-1.4
				L148.7,211.1z"/>
		</g>
	</g>
</g>
<g id="Layer_6">
	<text transform="matrix(1 0 0 1 533.1146 322.6381)" class="st6 st7">Test-slz (member architecture)</text>
</g>
<g id="Layer_7">
	<g>
		<g>
			<path d="M652.7,360.5h-3v-1.2h7.4v1.2h-3v8.6h-1.4V360.5z"/>
			<path d="M658,365.4c0-2.3,1.3-3.8,3.3-3.8c2,0,3.2,1.5,3.2,3.6v0.5h-5.1v0.3c0,1.2,0.7,2.1,2,2.1c0.9,0,1.6-0.4,2-1.2l0.8,0.7
				c-0.5,0.9-1.6,1.6-2.9,1.6C659.3,369.2,658,367.7,658,365.4z M659.4,364.7L659.4,364.7l3.7,0.1v-0.1c0-1.2-0.7-2-1.8-2
				C660.2,362.7,659.4,363.5,659.4,364.7z"/>
			<path d="M665.6,367.8l0.9-0.8c0.5,0.7,1.2,1.1,2.1,1.1c0.9,0,1.4-0.4,1.4-1.1c0-0.5-0.3-0.9-1.2-1l-0.6-0.1
				c-1.4-0.2-2.4-0.8-2.4-2.1c0-1.4,1.1-2.2,2.6-2.2c1.2,0,2,0.4,2.6,1.2l-0.8,0.8c-0.4-0.5-1-0.9-1.8-0.9c-0.9,0-1.3,0.4-1.3,1
				c0,0.6,0.4,0.9,1.3,1l0.6,0.1c1.6,0.2,2.3,0.9,2.3,2.1c0,1.4-1.1,2.3-2.8,2.3C667.1,369.2,666.2,368.7,665.6,367.8z"/>
			<path d="M674.9,369c-0.9,0-1.4-0.5-1.4-1.4v-4.8h-1.2v-1.1h0.6c0.5,0,0.6-0.2,0.6-0.7v-1.3h1.2v2h1.6v1.1h-1.6v5h1.4v1.1H674.9z"
				/>
			<path d="M677.9,365.5v-1.4h3.8v1.4H677.9z"/>
			<path d="M683,367.8l0.9-0.8c0.5,0.7,1.2,1.1,2.1,1.1c0.9,0,1.4-0.4,1.4-1.1c0-0.5-0.3-0.9-1.2-1l-0.6-0.1
				c-1.4-0.2-2.4-0.8-2.4-2.1c0-1.4,1.1-2.2,2.6-2.2c1.2,0,2,0.4,2.6,1.2l-0.8,0.8c-0.3-0.5-1-0.9-1.8-0.9c-0.9,0-1.3,0.4-1.3,1
				c0,0.6,0.4,0.9,1.3,1l0.6,0.1c1.6,0.2,2.3,0.9,2.3,2.1c0,1.4-1.1,2.3-2.8,2.3C684.6,369.2,683.7,368.7,683,367.8z"/>
			<path d="M691.9,369c-0.9,0-1.4-0.5-1.4-1.3v-9h1.3v9.3h1v1.1H691.9z"/>
			<path d="M693.8,369V368l4-5.1h-3.9v-1.1h5.4v1l-4.1,5.2h4.2v1.1H693.8z"/>
			<path d="M703.9,365.4c0-2.3,1.3-3.8,3.3-3.8c2,0,3.3,1.5,3.3,3.8c0,2.3-1.3,3.8-3.3,3.8C705.2,369.2,703.9,367.7,703.9,365.4z
				 M709.1,366v-1.1c0-1.4-0.8-2.1-1.9-2.1c-1.1,0-1.9,0.7-1.9,2.1v1.1c0,1.4,0.8,2.1,1.9,2.1C708.3,368.1,709.1,367.4,709.1,366z"
				/>
			<path d="M716.7,367.8L716.7,367.8c-0.3,0.7-0.9,1.4-2.1,1.4c-1.5,0-2.4-1-2.4-2.8v-4.6h1.3v4.4c0,1.2,0.5,1.8,1.5,1.8
				c0.8,0,1.7-0.4,1.7-1.3v-5h1.3v7.3h-1.3V367.8z"/>
			<path d="M720.3,361.8h1.3v1.2h0.1c0.3-0.9,1.1-1.4,2.1-1.4c1.8,0,2.9,1.4,2.9,3.8s-1.1,3.8-2.9,3.8c-1,0-1.8-0.5-2.1-1.4h-0.1v4
				h-1.3V361.8z M725.3,366v-1.2c0-1.2-0.7-2-1.9-2c-1,0-1.8,0.6-1.8,1.3v2.7c0,0.8,0.8,1.3,1.8,1.3
				C724.5,368.1,725.3,367.2,725.3,366z"/>
			<path d="M732.9,367.8L732.9,367.8c-0.3,0.7-0.9,1.4-2.1,1.4c-1.5,0-2.4-1-2.4-2.8v-4.6h1.3v4.4c0,1.2,0.5,1.8,1.5,1.8
				c0.8,0,1.7-0.4,1.7-1.3v-5h1.3v7.3h-1.3V367.8z"/>
			<path d="M738.3,369c-0.9,0-1.4-0.5-1.4-1.4v-4.8h-1.2v-1.1h0.6c0.5,0,0.6-0.2,0.6-0.7v-1.3h1.2v2h1.6v1.1h-1.6v5h1.4v1.1H738.3z"
				/>
			<path d="M740.8,367.8l0.9-0.8c0.5,0.7,1.2,1.1,2.1,1.1c0.9,0,1.4-0.4,1.4-1.1c0-0.5-0.3-0.9-1.2-1l-0.6-0.1
				c-1.4-0.2-2.4-0.8-2.4-2.1c0-1.4,1.1-2.2,2.6-2.2c1.2,0,2,0.4,2.6,1.2l-0.8,0.8c-0.3-0.5-1-0.9-1.8-0.9c-0.9,0-1.3,0.4-1.3,1
				c0,0.6,0.4,0.9,1.3,1l0.6,0.1c1.6,0.2,2.3,0.9,2.3,2.1c0,1.4-1.1,2.3-2.8,2.3C742.4,369.2,741.5,368.7,740.8,367.8z"/>
			<path d="M748.4,362.7v-0.2c0-0.5,0.3-0.9,0.9-0.9s0.9,0.4,0.9,0.9v0.2c0,0.5-0.3,0.9-0.9,0.9S748.4,363.2,748.4,362.7z
				 M748.4,368.3v-0.2c0-0.5,0.3-0.9,0.9-0.9s0.9,0.4,0.9,0.9v0.2c0,0.5-0.3,0.9-0.9,0.9S748.4,368.8,748.4,368.3z"/>
			<path d="M650.3,381.8v-0.4c0-0.9,0.5-1.5,1.8-1.5s1.8,0.7,1.8,1.5v0.4c0,0.9-0.5,1.5-1.8,1.5S650.3,382.7,650.3,381.8z"/>
			<path d="M667.8,384.6l0.9-0.8c0.5,0.7,1.2,1.1,2.1,1.1c0.9,0,1.4-0.4,1.4-1.1c0-0.5-0.3-0.9-1.2-1l-0.6-0.1
				c-1.4-0.2-2.4-0.8-2.4-2.1c0-1.4,1.1-2.2,2.6-2.2c1.2,0,2,0.4,2.6,1.2l-0.8,0.8c-0.3-0.5-1-0.9-1.8-0.9c-0.9,0-1.3,0.4-1.3,1
				c0,0.6,0.4,0.9,1.3,1l0.6,0.1c1.6,0.2,2.3,0.9,2.3,2.1c0,1.4-1.1,2.3-2.8,2.3C669.3,386,668.5,385.5,667.8,384.6z"/>
			<path d="M674.8,382.2c0-2.3,1.2-3.8,3.3-3.8c1.4,0,2.3,0.7,2.7,1.7l-1.1,0.5c-0.2-0.7-0.8-1.1-1.7-1.1c-1.2,0-1.9,0.9-1.9,2v1.3
				c0,1.2,0.6,2,1.9,2c0.9,0,1.5-0.4,1.8-1.2l1,0.6c-0.5,1.1-1.4,1.8-2.8,1.8C676,386,674.8,384.5,674.8,382.2z"/>
			<path d="M682.4,375.5h1.3v4.3h0.1c0.3-0.8,1-1.4,2-1.4c1.5,0,2.4,1,2.4,2.8v4.6h-1.3v-4.4c0-1.2-0.5-1.8-1.5-1.8
				c-0.9,0-1.7,0.4-1.7,1.3v5h-1.3V375.5z"/>
			<path d="M689.9,382.2c0-2.3,1.3-3.8,3.3-3.8c2,0,3.2,1.5,3.2,3.6v0.5h-5.1v0.3c0,1.2,0.7,2.1,2,2.1c0.9,0,1.6-0.4,2-1.2l0.8,0.7
				c-0.5,0.9-1.6,1.6-2.9,1.6C691.2,386,689.9,384.5,689.9,382.2z M691.3,381.5L691.3,381.5l3.7,0.1v-0.1c0-1.2-0.7-2-1.8-2
				C692.1,379.5,691.3,380.3,691.3,381.5z"/>
			<path d="M698.1,385.8v-7.3h1.3v1.2h0.1c0.3-0.7,1-1.4,1.9-1.4c1,0,1.8,0.4,2.2,1.5h0c0.3-0.8,1-1.5,2.2-1.5c1.5,0,2.3,1,2.3,2.8
				v4.6h-1.3v-4.4c0-1.2-0.5-1.8-1.5-1.8c-0.8,0-1.6,0.4-1.6,1.3v5h-1.3v-4.4c0-1.2-0.5-1.8-1.5-1.8c-0.8,0-1.6,0.4-1.6,1.3v5H698.1
				z"/>
			<path d="M715.7,385.8c-0.8,0-1.2-0.5-1.3-1.2h-0.1c-0.3,0.9-1.1,1.4-2.1,1.4c-1.5,0-2.4-0.8-2.4-2.2c0-1.4,1-2.2,3.1-2.2h1.4V381
				c0-1-0.5-1.5-1.6-1.5c-0.9,0-1.4,0.4-1.8,1l-0.8-0.7c0.4-0.8,1.3-1.4,2.6-1.4c1.8,0,2.8,0.9,2.8,2.5v3.8h0.8v1.1H715.7z
				 M714.3,383.7v-1.1h-1.4c-1.2,0-1.7,0.4-1.7,1v0.3c0,0.7,0.5,1.1,1.3,1.1C713.6,385,714.3,384.4,714.3,383.7z"/>
			<path d="M719.8,385.8c-0.9,0-1.4-0.5-1.4-1.4v-4.8h-1.2v-1.1h0.6c0.5,0,0.6-0.2,0.6-0.7v-1.3h1.2v2h1.6v1.1h-1.6v5h1.4v1.1H719.8
				z"/>
			<path d="M722.9,376.4v-0.2c0-0.4,0.2-0.7,0.8-0.7c0.5,0,0.8,0.3,0.8,0.7v0.2c0,0.4-0.2,0.7-0.8,0.7
				C723.1,377.1,722.9,376.8,722.9,376.4z M723,378.6h1.3v7.3H723V378.6z"/>
			<path d="M726.1,382.2c0-2.3,1.2-3.8,3.3-3.8c1.4,0,2.3,0.7,2.7,1.7l-1.1,0.5c-0.2-0.7-0.8-1.1-1.7-1.1c-1.2,0-1.9,0.9-1.9,2v1.3
				c0,1.2,0.6,2,1.9,2c0.9,0,1.5-0.4,1.8-1.2l1,0.6c-0.5,1.1-1.4,1.8-2.8,1.8C727.3,386,726.1,384.5,726.1,382.2z"/>
			<path d="M733,384.6l0.9-0.8c0.5,0.7,1.2,1.1,2.1,1.1c0.9,0,1.4-0.4,1.4-1.1c0-0.5-0.3-0.9-1.2-1l-0.6-0.1
				c-1.4-0.2-2.4-0.8-2.4-2.1c0-1.4,1.1-2.2,2.6-2.2c1.2,0,2,0.4,2.6,1.2l-0.8,0.8c-0.4-0.5-1-0.9-1.8-0.9c-0.9,0-1.3,0.4-1.3,1
				c0,0.6,0.4,0.9,1.3,1l0.6,0.1c1.6,0.2,2.3,0.9,2.3,2.1c0,1.4-1.1,2.3-2.8,2.3C734.5,386,733.7,385.5,733,384.6z"/>
			<path d="M739.8,388.2v-1.1h7v1.1H739.8z"/>
			<path d="M747.7,378.6h1.3l0.8,3.1l0.7,3h0l0.8-3l0.9-3.1h1.2l0.9,3.1l0.8,3h0l0.7-3l0.8-3.1h1.2l-1.9,7.3h-1.5l-1-3.4l-0.6-2.1h0
				l-0.6,2.1l-1,3.4h-1.5L747.7,378.6z"/>
			<path d="M758.8,382.2c0-2.3,1.3-3.8,3.3-3.8c2,0,3.3,1.5,3.3,3.8c0,2.3-1.3,3.8-3.3,3.8C760.2,386,758.8,384.5,758.8,382.2z
				 M764.1,382.8v-1.1c0-1.4-0.8-2.1-1.9-2.1s-1.9,0.7-1.9,2.1v1.1c0,1.4,0.8,2.1,1.9,2.1S764.1,384.2,764.1,382.8z"/>
			<path d="M767.2,385.8v-7.3h1.3v1.4h0.1c0.2-0.7,0.9-1.4,2-1.4h0.4v1.3h-0.6c-1.2,0-1.9,0.5-1.9,1.2v4.8H767.2z"/>
			<path d="M772.5,375.5h1.3v6.5h0.1l1-1.3l1.9-2.1h1.5l-2.6,2.8l2.9,4.5h-1.6l-2.3-3.6l-1,1.1v2.5h-1.3V375.5z"/>
			<path d="M779.3,384.6l0.9-0.8c0.5,0.7,1.2,1.1,2.1,1.1c0.9,0,1.4-0.4,1.4-1.1c0-0.5-0.3-0.9-1.2-1l-0.6-0.1
				c-1.4-0.2-2.4-0.8-2.4-2.1c0-1.4,1.1-2.2,2.6-2.2c1.2,0,2,0.4,2.6,1.2l-0.8,0.8c-0.3-0.5-1-0.9-1.8-0.9c-0.9,0-1.3,0.4-1.3,1
				c0,0.6,0.4,0.9,1.3,1l0.6,0.1c1.6,0.2,2.3,0.9,2.3,2.1c0,1.4-1.1,2.3-2.8,2.3C780.9,386,780,385.5,779.3,384.6z"/>
			<path d="M786.8,378.6h1.3v1.2h0.1c0.3-0.9,1.1-1.4,2.1-1.4c1.8,0,2.9,1.4,2.9,3.8s-1.1,3.8-2.9,3.8c-1,0-1.8-0.5-2.1-1.4h-0.1v4
				h-1.3V378.6z M791.8,382.8v-1.2c0-1.2-0.7-2-1.9-2c-1,0-1.8,0.6-1.8,1.3v2.7c0,0.8,0.8,1.3,1.8,1.3
				C791.1,384.9,791.8,384,791.8,382.8z"/>
			<path d="M800.3,385.8c-0.8,0-1.2-0.5-1.3-1.2H799c-0.3,0.9-1.1,1.4-2.1,1.4c-1.5,0-2.4-0.8-2.4-2.2c0-1.4,1-2.2,3.1-2.2h1.4V381
				c0-1-0.5-1.5-1.6-1.5c-0.9,0-1.4,0.4-1.8,1l-0.8-0.7c0.4-0.8,1.3-1.4,2.6-1.4c1.8,0,2.8,0.9,2.8,2.5v3.8h0.8v1.1H800.3z
				 M798.9,383.7v-1.1h-1.4c-1.2,0-1.7,0.4-1.7,1v0.3c0,0.7,0.5,1.1,1.3,1.1C798.2,385,798.9,384.4,798.9,383.7z"/>
			<path d="M802.1,382.2c0-2.3,1.2-3.8,3.3-3.8c1.4,0,2.3,0.7,2.7,1.7l-1.1,0.5c-0.2-0.7-0.8-1.1-1.7-1.1c-1.2,0-1.9,0.9-1.9,2v1.3
				c0,1.2,0.6,2,1.9,2c0.9,0,1.5-0.4,1.8-1.2l1,0.6c-0.5,1.1-1.4,1.8-2.8,1.8C803.3,386,802.1,384.5,802.1,382.2z"/>
			<path d="M809.2,382.2c0-2.3,1.3-3.8,3.3-3.8c2,0,3.2,1.5,3.2,3.6v0.5h-5.1v0.3c0,1.2,0.7,2.1,2,2.1c0.9,0,1.6-0.4,2-1.2l0.8,0.7
				c-0.5,0.9-1.6,1.6-2.9,1.6C810.4,386,809.2,384.5,809.2,382.2z M810.5,381.5L810.5,381.5l3.7,0.1v-0.1c0-1.2-0.7-2-1.8-2
				C811.3,379.5,810.5,380.3,810.5,381.5z"/>
			<path d="M816.7,388.2v-1.1h7v1.1H816.7z"/>
			<path d="M825.2,376.4v-0.2c0-0.4,0.2-0.7,0.8-0.7c0.5,0,0.8,0.3,0.8,0.7v0.2c0,0.4-0.2,0.7-0.8,0.7
				C825.4,377.1,825.2,376.8,825.2,376.4z M825.3,378.6h1.3v7.3h-1.3V378.6z"/>
			<path d="M833.5,384.6L833.5,384.6c-0.4,0.9-1.1,1.4-2.1,1.4c-1.8,0-2.9-1.4-2.9-3.8s1.1-3.8,2.9-3.8c1,0,1.8,0.5,2.1,1.4h0.1
				v-4.3h1.3v10.4h-1.3V384.6z M833.5,383.5v-2.7c0-0.8-0.8-1.3-1.8-1.3c-1.2,0-1.9,0.8-1.9,2v1.2c0,1.2,0.7,2,1.9,2
				C832.7,384.9,833.5,384.3,833.5,383.5z"/>
		</g>
	</g>
</g>
<g id="Layer_15">
	<g>
		<g>
			<path d="M650.3,614.1c0-3.3,1.5-5.1,4-5.1c1.7,0,2.8,0.8,3.4,2.2l-1.1,0.6c-0.4-1-1.1-1.6-2.3-1.6c-1.6,0-2.6,1.2-2.6,3.1v1.5
				c0,1.9,1,3.1,2.6,3.1c1.2,0,2-0.7,2.4-1.7l1.1,0.7c-0.6,1.4-1.8,2.3-3.5,2.3C651.9,619.2,650.3,617.4,650.3,614.1z"/>
			<path d="M663.9,617.8L663.9,617.8c-0.3,0.7-0.9,1.4-2.1,1.4c-1.5,0-2.4-1-2.4-2.8v-4.6h1.3v4.4c0,1.2,0.5,1.8,1.5,1.8
				c0.8,0,1.7-0.4,1.7-1.3v-5h1.3v7.3h-1.3V617.8z"/>
			<path d="M666.9,617.8l0.9-0.8c0.5,0.7,1.2,1.1,2.1,1.1c0.9,0,1.4-0.4,1.4-1.1c0-0.5-0.3-0.9-1.2-1l-0.6-0.1
				c-1.4-0.2-2.4-0.8-2.4-2.1c0-1.4,1.1-2.2,2.6-2.2c1.2,0,2,0.4,2.6,1.2l-0.8,0.8c-0.3-0.5-1-0.9-1.8-0.9c-0.9,0-1.3,0.4-1.3,1
				c0,0.6,0.4,0.9,1.3,1l0.6,0.1c1.6,0.2,2.3,0.9,2.3,2.1c0,1.4-1.1,2.3-2.8,2.3C668.4,619.2,667.5,618.6,666.9,617.8z"/>
			<path d="M676.2,619c-0.9,0-1.4-0.5-1.4-1.4v-4.8h-1.2v-1.1h0.6c0.5,0,0.6-0.2,0.6-0.7v-1.3h1.2v2h1.6v1.1h-1.6v5h1.4v1.1H676.2z"
				/>
			<path d="M678.9,615.4c0-2.3,1.3-3.8,3.3-3.8c2,0,3.3,1.5,3.3,3.8c0,2.3-1.3,3.8-3.3,3.8C680.2,619.2,678.9,617.7,678.9,615.4z
				 M684.1,615.9v-1.1c0-1.4-0.8-2.1-1.9-2.1s-1.9,0.7-1.9,2.1v1.1c0,1.4,0.8,2.1,1.9,2.1S684.1,617.3,684.1,615.9z"/>
			<path d="M687.2,619v-7.3h1.3v1.2h0.1c0.3-0.7,1-1.4,1.9-1.4c1,0,1.8,0.4,2.2,1.5h0c0.3-0.8,1-1.5,2.2-1.5c1.5,0,2.3,1,2.3,2.8
				v4.6H696v-4.4c0-1.2-0.5-1.8-1.5-1.8c-0.8,0-1.6,0.4-1.6,1.3v5h-1.3v-4.4c0-1.2-0.5-1.8-1.5-1.8c-0.8,0-1.6,0.4-1.6,1.3v5H687.2z
				"/>
			<path d="M699.3,615.4V614h3.8v1.4H699.3z"/>
			<path d="M710.4,619c-0.8,0-1.2-0.5-1.3-1.2h-0.1c-0.3,0.9-1.1,1.4-2.1,1.4c-1.5,0-2.4-0.8-2.4-2.2c0-1.4,1-2.2,3.1-2.2h1.4v-0.7
				c0-1-0.5-1.5-1.6-1.5c-0.9,0-1.4,0.4-1.8,1l-0.8-0.7c0.4-0.8,1.3-1.4,2.6-1.4c1.8,0,2.8,0.9,2.8,2.5v3.8h0.8v1.1H710.4z
				 M709,616.9v-1.1h-1.4c-1.2,0-1.7,0.4-1.7,1v0.3c0,0.7,0.5,1.1,1.3,1.1C708.3,618.1,709,617.6,709,616.9z"/>
			<path d="M712.7,611.7h1.3v1.2h0.1c0.3-0.9,1.1-1.4,2.1-1.4c1.8,0,2.9,1.4,2.9,3.8s-1.1,3.8-2.9,3.8c-1,0-1.8-0.5-2.1-1.4H714v4
				h-1.3V611.7z M717.7,616v-1.2c0-1.2-0.7-2-1.9-2c-1,0-1.8,0.6-1.8,1.3v2.7c0,0.8,0.8,1.3,1.8,1.3
				C716.9,618,717.7,617.2,717.7,616z"/>
			<path d="M726.2,619c-0.8,0-1.2-0.5-1.3-1.2h-0.1c-0.3,0.9-1.1,1.4-2.1,1.4c-1.5,0-2.4-0.8-2.4-2.2c0-1.4,1-2.2,3.1-2.2h1.4v-0.7
				c0-1-0.5-1.5-1.6-1.5c-0.9,0-1.4,0.4-1.8,1l-0.8-0.7c0.4-0.8,1.3-1.4,2.6-1.4c1.8,0,2.8,0.9,2.8,2.5v3.8h0.8v1.1H726.2z
				 M724.8,616.9v-1.1h-1.4c-1.2,0-1.7,0.4-1.7,1v0.3c0,0.7,0.5,1.1,1.3,1.1C724,618.1,724.8,617.6,724.8,616.9z"/>
			<path d="M727.9,615.4c0-2.3,1.2-3.8,3.3-3.8c1.4,0,2.3,0.7,2.7,1.7l-1.1,0.5c-0.2-0.7-0.8-1.1-1.7-1.1c-1.2,0-1.9,0.9-1.9,2v1.3
				c0,1.2,0.6,2,1.9,2c0.9,0,1.5-0.4,1.8-1.2l1,0.6c-0.5,1.1-1.4,1.8-2.8,1.8C729.1,619.2,727.9,617.7,727.9,615.4z"/>
			<path d="M735.5,608.6h1.3v4.3h0.1c0.3-0.8,1-1.4,2-1.4c1.5,0,2.4,1,2.4,2.8v4.6H740v-4.4c0-1.2-0.5-1.8-1.5-1.8
				c-0.9,0-1.7,0.4-1.7,1.3v5h-1.3V608.6z"/>
			<path d="M743,615.4c0-2.3,1.3-3.8,3.3-3.8c2,0,3.2,1.5,3.2,3.6v0.5h-5.1v0.3c0,1.2,0.7,2.1,2,2.1c0.9,0,1.6-0.4,2-1.2l0.8,0.7
				c-0.5,0.9-1.6,1.6-2.9,1.6C744.3,619.2,743,617.7,743,615.4z M744.4,614.7L744.4,614.7l3.7,0.1v-0.1c0-1.2-0.7-2-1.8-2
				C745.2,612.6,744.4,613.5,744.4,614.7z"/>
			<path d="M754.1,615.4c0-2.3,1.3-3.8,3.3-3.8c2,0,3.3,1.5,3.3,3.8c0,2.3-1.3,3.8-3.3,3.8C755.4,619.2,754.1,617.7,754.1,615.4z
				 M759.3,615.9v-1.1c0-1.4-0.8-2.1-1.9-2.1s-1.9,0.7-1.9,2.1v1.1c0,1.4,0.8,2.1,1.9,2.1S759.3,617.3,759.3,615.9z"/>
			<path d="M766.9,617.8L766.9,617.8c-0.3,0.7-0.9,1.4-2.1,1.4c-1.5,0-2.4-1-2.4-2.8v-4.6h1.3v4.4c0,1.2,0.5,1.8,1.5,1.8
				c0.8,0,1.7-0.4,1.7-1.3v-5h1.3v7.3h-1.3V617.8z"/>
			<path d="M772.3,619c-0.9,0-1.4-0.5-1.4-1.4v-4.8h-1.2v-1.1h0.6c0.5,0,0.6-0.2,0.6-0.7v-1.3h1.2v2h1.6v1.1h-1.6v5h1.4v1.1H772.3z"
				/>
			<path d="M775.5,611.7h1.3v1.2h0.1c0.3-0.9,1.1-1.4,2.1-1.4c1.8,0,2.9,1.4,2.9,3.8s-1.1,3.8-2.9,3.8c-1,0-1.8-0.5-2.1-1.4h-0.1v4
				h-1.3V611.7z M780.5,616v-1.2c0-1.2-0.7-2-1.9-2c-1,0-1.8,0.6-1.8,1.3v2.7c0,0.8,0.8,1.3,1.8,1.3
				C779.7,618,780.5,617.2,780.5,616z"/>
			<path d="M788.1,617.8L788.1,617.8c-0.3,0.7-0.9,1.4-2.1,1.4c-1.5,0-2.4-1-2.4-2.8v-4.6h1.3v4.4c0,1.2,0.5,1.8,1.5,1.8
				c0.8,0,1.7-0.4,1.7-1.3v-5h1.3v7.3h-1.3V617.8z"/>
			<path d="M793.5,619c-0.9,0-1.4-0.5-1.4-1.4v-4.8H791v-1.1h0.6c0.5,0,0.6-0.2,0.6-0.7v-1.3h1.2v2h1.6v1.1h-1.6v5h1.4v1.1H793.5z"
				/>
			<path d="M796,617.8l0.9-0.8c0.5,0.7,1.2,1.1,2.1,1.1c0.9,0,1.4-0.4,1.4-1.1c0-0.5-0.3-0.9-1.2-1l-0.6-0.1
				c-1.4-0.2-2.4-0.8-2.4-2.1c0-1.4,1.1-2.2,2.6-2.2c1.2,0,2,0.4,2.6,1.2l-0.8,0.8c-0.4-0.5-1-0.9-1.8-0.9c-0.9,0-1.3,0.4-1.3,1
				c0,0.6,0.4,0.9,1.3,1l0.6,0.1c1.6,0.2,2.3,0.9,2.3,2.1c0,1.4-1.1,2.3-2.8,2.3C797.6,619.2,796.7,618.6,796,617.8z"/>
			<path d="M803.6,612.6v-0.2c0-0.5,0.3-0.9,0.9-0.9c0.6,0,0.9,0.4,0.9,0.9v0.2c0,0.5-0.3,0.9-0.9,0.9
				C803.9,613.5,803.6,613.2,803.6,612.6z M803.6,618.3v-0.2c0-0.5,0.3-0.9,0.9-0.9c0.6,0,0.9,0.4,0.9,0.9v0.2
				c0,0.5-0.3,0.9-0.9,0.9C803.9,619.2,803.6,618.8,803.6,618.3z"/>
			<path d="M650.6,631.8v-0.4c0-0.9,0.5-1.5,1.8-1.5s1.8,0.7,1.8,1.5v0.4c0,0.9-0.5,1.5-1.8,1.5S650.6,632.7,650.6,631.8z"/>
			<path d="M668,628.5h1.3l0.8,3.1l0.7,3h0l0.8-3l0.9-3.1h1.2l0.9,3.1l0.8,3h0l0.7-3l0.8-3.1h1.2l-1.9,7.3h-1.5l-1-3.4l-0.6-2.1h0
				l-0.6,2.1l-1,3.4h-1.5L668,628.5z"/>
			<path d="M679.1,632.2c0-2.3,1.3-3.8,3.3-3.8c2,0,3.2,1.5,3.2,3.6v0.5h-5.1v0.3c0,1.2,0.7,2.1,2,2.1c0.9,0,1.6-0.4,2-1.2l0.8,0.7
				c-0.5,0.9-1.6,1.6-2.9,1.6C680.4,636,679.1,634.5,679.1,632.2z M680.5,631.5L680.5,631.5l3.7,0.1v-0.1c0-1.2-0.7-2-1.8-2
				C681.3,629.4,680.5,630.3,680.5,631.5z"/>
			<path d="M687.4,625.4h1.3v4.3h0.1c0.3-0.9,1.1-1.4,2.1-1.4c1.8,0,2.9,1.4,2.9,3.8s-1.1,3.8-2.9,3.8c-1,0-1.8-0.5-2.1-1.4h-0.1
				v1.2h-1.3V625.4z M692.4,632.8v-1.2c0-1.2-0.7-2-1.9-2c-1,0-1.8,0.6-1.8,1.3v2.7c0,0.8,0.8,1.3,1.8,1.3
				C691.6,634.8,692.4,634,692.4,632.8z"/>
			<path d="M694.9,634.6l0.9-0.8c0.5,0.7,1.2,1.1,2.1,1.1c0.9,0,1.4-0.4,1.4-1.1c0-0.5-0.3-0.9-1.2-1l-0.6-0.1
				c-1.4-0.2-2.4-0.8-2.4-2.1c0-1.4,1.1-2.2,2.6-2.2c1.2,0,2,0.4,2.6,1.2l-0.8,0.8c-0.3-0.5-1-0.9-1.8-0.9c-0.9,0-1.3,0.4-1.3,1
				c0,0.6,0.4,0.9,1.3,1l0.6,0.1c1.6,0.2,2.3,0.9,2.3,2.1c0,1.4-1.1,2.3-2.8,2.3C696.5,636,695.6,635.4,694.9,634.6z"/>
			<path d="M701.9,632.2c0-2.3,1.3-3.8,3.3-3.8c2,0,3.2,1.5,3.2,3.6v0.5h-5.1v0.3c0,1.2,0.7,2.1,2,2.1c0.9,0,1.6-0.4,2-1.2l0.8,0.7
				c-0.5,0.9-1.6,1.6-2.9,1.6C703.2,636,701.9,634.5,701.9,632.2z M703.3,631.5L703.3,631.5l3.7,0.1v-0.1c0-1.2-0.7-2-1.8-2
				C704.1,629.4,703.3,630.3,703.3,631.5z"/>
			<path d="M710.2,635.8v-7.3h1.3v1.4h0.1c0.2-0.7,0.9-1.4,2-1.4h0.4v1.3h-0.6c-1.2,0-1.9,0.5-1.9,1.2v4.8H710.2z"/>
			<path d="M717,635.8l-2.5-7.3h1.3l1.2,3.5l0.8,2.5h0.1l0.8-2.5l1.2-3.5h1.2l-2.5,7.3H717z"/>
			<path d="M721.9,632.2c0-2.3,1.3-3.8,3.3-3.8c2,0,3.2,1.5,3.2,3.6v0.5h-5.1v0.3c0,1.2,0.7,2.1,2,2.1c0.9,0,1.6-0.4,2-1.2l0.8,0.7
				c-0.5,0.9-1.6,1.6-2.9,1.6C723.2,636,721.9,634.5,721.9,632.2z M723.3,631.5L723.3,631.5l3.7,0.1v-0.1c0-1.2-0.7-2-1.8-2
				C724.1,629.4,723.3,630.3,723.3,631.5z"/>
			<path d="M730.1,635.8v-7.3h1.3v1.4h0.1c0.2-0.7,0.9-1.4,2-1.4h0.4v1.3h-0.6c-1.2,0-1.9,0.5-1.9,1.2v4.8H730.1z"/>
			<path d="M734.7,638.2v-1.1h7v1.1H734.7z"/>
			<path d="M743.1,626.3v-0.2c0-0.4,0.2-0.7,0.8-0.7c0.5,0,0.8,0.3,0.8,0.7v0.2c0,0.4-0.2,0.7-0.8,0.7
				C743.4,627,743.1,626.7,743.1,626.3z M743.3,628.5h1.3v7.3h-1.3V628.5z"/>
			<path d="M746.9,628.5h1.3v1.2h0.1c0.3-0.9,1.1-1.4,2.1-1.4c1.8,0,2.9,1.4,2.9,3.8s-1.1,3.8-2.9,3.8c-1,0-1.8-0.5-2.1-1.4h-0.1v4
				h-1.3V628.5z M751.8,632.8v-1.2c0-1.2-0.7-2-1.9-2c-1,0-1.8,0.6-1.8,1.3v2.7c0,0.8,0.8,1.3,1.8,1.3
				C751.1,634.8,751.8,634,751.8,632.8z"/>
			<path d="M754.3,638.2v-1.1h7v1.1H754.3z"/>
			<path d="M768.2,635.8c-0.8,0-1.2-0.5-1.3-1.2h-0.1c-0.3,0.9-1.1,1.4-2.1,1.4c-1.5,0-2.4-0.8-2.4-2.2c0-1.4,1-2.2,3.1-2.2h1.4V631
				c0-1-0.5-1.5-1.6-1.5c-0.9,0-1.4,0.4-1.8,1l-0.8-0.7c0.4-0.8,1.3-1.4,2.6-1.4c1.8,0,2.8,0.9,2.8,2.5v3.8h0.8v1.1H768.2z
				 M766.9,633.7v-1.1h-1.4c-1.2,0-1.7,0.4-1.7,1v0.3c0,0.7,0.5,1.1,1.3,1.1C766.1,634.9,766.9,634.4,766.9,633.7z"/>
			<path d="M775.1,634.6L775.1,634.6c-0.4,0.9-1.1,1.4-2.1,1.4c-1.8,0-2.9-1.4-2.9-3.8s1.1-3.8,2.9-3.8c1,0,1.8,0.5,2.1,1.4h0.1
				v-4.3h1.3v10.4h-1.3V634.6z M775.1,633.5v-2.7c0-0.8-0.8-1.3-1.8-1.3c-1.2,0-1.9,0.8-1.9,2v1.2c0,1.2,0.7,2,1.9,2
				C774.3,634.8,775.1,634.3,775.1,633.5z"/>
			<path d="M783.3,634.6L783.3,634.6c-0.4,0.9-1.1,1.4-2.1,1.4c-1.8,0-2.9-1.4-2.9-3.8s1.1-3.8,2.9-3.8c1,0,1.8,0.5,2.1,1.4h0.1
				v-4.3h1.3v10.4h-1.3V634.6z M783.3,633.5v-2.7c0-0.8-0.8-1.3-1.8-1.3c-1.2,0-1.9,0.8-1.9,2v1.2c0,1.2,0.7,2,1.9,2
				C782.5,634.8,783.3,634.3,783.3,633.5z"/>
			<path d="M786.9,635.8v-7.3h1.3v1.4h0.1c0.2-0.7,0.9-1.4,2-1.4h0.4v1.3h-0.6c-1.2,0-1.9,0.5-1.9,1.2v4.8H786.9z"/>
			<path d="M791.6,632.2c0-2.3,1.3-3.8,3.3-3.8c2,0,3.2,1.5,3.2,3.6v0.5H793v0.3c0,1.2,0.7,2.1,2,2.1c0.9,0,1.6-0.4,2-1.2l0.8,0.7
				c-0.5,0.9-1.6,1.6-2.9,1.6C792.9,636,791.6,634.5,791.6,632.2z M793,631.5L793,631.5l3.7,0.1v-0.1c0-1.2-0.7-2-1.8-2
				C793.8,629.4,793,630.3,793,631.5z"/>
			<path d="M799.2,634.6l0.9-0.8c0.5,0.7,1.2,1.1,2.1,1.1c0.9,0,1.4-0.4,1.4-1.1c0-0.5-0.3-0.9-1.2-1l-0.6-0.1
				c-1.4-0.2-2.4-0.8-2.4-2.1c0-1.4,1.1-2.2,2.6-2.2c1.2,0,2,0.4,2.6,1.2l-0.8,0.8c-0.4-0.5-1-0.9-1.8-0.9c-0.9,0-1.3,0.4-1.3,1
				c0,0.6,0.4,0.9,1.3,1l0.6,0.1c1.6,0.2,2.3,0.9,2.3,2.1c0,1.4-1.1,2.3-2.8,2.3C800.8,636,799.9,635.4,799.2,634.6z"/>
			<path d="M806.1,634.6l0.9-0.8c0.5,0.7,1.2,1.1,2.1,1.1c0.9,0,1.4-0.4,1.4-1.1c0-0.5-0.3-0.9-1.2-1l-0.6-0.1
				c-1.4-0.2-2.4-0.8-2.4-2.1c0-1.4,1.1-2.2,2.6-2.2c1.2,0,2,0.4,2.6,1.2l-0.8,0.8c-0.3-0.5-1-0.9-1.8-0.9c-0.9,0-1.3,0.4-1.3,1
				c0,0.6,0.4,0.9,1.3,1l0.6,0.1c1.6,0.2,2.3,0.9,2.3,2.1c0,1.4-1.1,2.3-2.8,2.3C807.6,636,806.7,635.4,806.1,634.6z"/>
		</g>
	</g>
</g>
<g id="Layer_10">
	<g>
		<g>
			<path d="M652.5,215.1h-3v-1.2h7.4v1.2h-3v8.6h-1.4V215.1z"/>
			<path d="M657.8,220c0-2.3,1.3-3.8,3.3-3.8c2,0,3.2,1.5,3.2,3.6v0.5h-5.1v0.3c0,1.2,0.7,2.1,2,2.1c0.9,0,1.6-0.4,2-1.2l0.8,0.7
				c-0.5,0.9-1.6,1.6-2.9,1.6C659.1,223.8,657.8,222.3,657.8,220z M659.2,219.3L659.2,219.3l3.7,0.1v-0.1c0-1.2-0.7-2-1.8-2
				C660,217.3,659.2,218.1,659.2,219.3z"/>
			<path d="M665.4,222.4l0.9-0.8c0.5,0.7,1.2,1.1,2.1,1.1c0.9,0,1.4-0.4,1.4-1.1c0-0.5-0.3-0.9-1.2-1l-0.6-0.1
				c-1.4-0.2-2.4-0.8-2.4-2.1c0-1.4,1.1-2.2,2.6-2.2c1.2,0,2,0.4,2.6,1.2l-0.8,0.8c-0.4-0.5-1-0.9-1.8-0.9c-0.9,0-1.3,0.4-1.3,1
				c0,0.6,0.4,0.9,1.3,1l0.6,0.1c1.6,0.2,2.3,0.9,2.3,2.1c0,1.4-1.1,2.3-2.8,2.3C666.9,223.8,666,223.3,665.4,222.4z"/>
			<path d="M674.7,223.6c-0.9,0-1.4-0.5-1.4-1.4v-4.8h-1.2v-1.1h0.6c0.5,0,0.6-0.2,0.6-0.7v-1.3h1.2v2h1.6v1.1h-1.6v5h1.4v1.1H674.7
				z"/>
			<path d="M677.7,220.1v-1.4h3.8v1.4H677.7z"/>
			<path d="M682.8,222.4l0.9-0.8c0.5,0.7,1.2,1.1,2.1,1.1c0.9,0,1.4-0.4,1.4-1.1c0-0.5-0.3-0.9-1.2-1l-0.6-0.1
				c-1.4-0.2-2.4-0.8-2.4-2.1c0-1.4,1.1-2.2,2.6-2.2c1.2,0,2,0.4,2.6,1.2l-0.8,0.8c-0.3-0.5-1-0.9-1.8-0.9c-0.9,0-1.3,0.4-1.3,1
				c0,0.6,0.4,0.9,1.3,1l0.6,0.1c1.6,0.2,2.3,0.9,2.3,2.1c0,1.4-1.1,2.3-2.8,2.3C684.4,223.8,683.5,223.3,682.8,222.4z"/>
			<path d="M691.7,223.6c-0.9,0-1.4-0.5-1.4-1.3v-9h1.3v9.3h1v1.1H691.7z"/>
			<path d="M693.6,223.6v-1.1l4-5.1h-3.9v-1.1h5.4v1l-4.1,5.2h4.2v1.1H693.6z"/>
			<path d="M704.1,214.2V214c0-0.4,0.2-0.7,0.8-0.7c0.5,0,0.8,0.3,0.8,0.7v0.2c0,0.4-0.2,0.7-0.8,0.7
				C704.3,214.9,704.1,214.6,704.1,214.2z M704.2,216.4h1.3v7.3h-1.3V216.4z"/>
			<path d="M707.8,223.6v-7.3h1.3v1.2h0.1c0.3-0.8,1-1.4,2-1.4c1.5,0,2.4,1,2.4,2.8v4.6h-1.3v-4.4c0-1.2-0.5-1.8-1.5-1.8
				c-0.9,0-1.7,0.4-1.7,1.3v5H707.8z"/>
			<path d="M715.8,216.4h1.3v1.2h0.1c0.3-0.9,1.1-1.4,2.1-1.4c1.8,0,2.9,1.4,2.9,3.8c0,2.4-1.1,3.8-2.9,3.8c-1,0-1.8-0.5-2.1-1.4
				h-0.1v4h-1.3V216.4z M720.8,220.6v-1.2c0-1.2-0.7-2-1.9-2c-1,0-1.8,0.6-1.8,1.3v2.7c0,0.8,0.8,1.3,1.8,1.3
				C720,222.7,720.8,221.8,720.8,220.6z"/>
			<path d="M728.4,222.4L728.4,222.4c-0.3,0.7-0.9,1.4-2.1,1.4c-1.5,0-2.4-1-2.4-2.8v-4.6h1.3v4.4c0,1.2,0.5,1.8,1.5,1.8
				c0.8,0,1.7-0.4,1.7-1.3v-5h1.3v7.3h-1.3V222.4z"/>
			<path d="M733.8,223.6c-0.9,0-1.4-0.5-1.4-1.4v-4.8h-1.2v-1.1h0.6c0.5,0,0.6-0.2,0.6-0.7v-1.3h1.2v2h1.6v1.1h-1.6v5h1.4v1.1H733.8
				z"/>
			<path d="M736.4,222.4l0.9-0.8c0.5,0.7,1.2,1.1,2.1,1.1c0.9,0,1.4-0.4,1.4-1.1c0-0.5-0.3-0.9-1.2-1l-0.6-0.1
				c-1.4-0.2-2.4-0.8-2.4-2.1c0-1.4,1.1-2.2,2.6-2.2c1.2,0,2,0.4,2.6,1.2l-0.8,0.8c-0.3-0.5-1-0.9-1.8-0.9c-0.9,0-1.3,0.4-1.3,1
				c0,0.6,0.4,0.9,1.3,1l0.6,0.1c1.6,0.2,2.3,0.9,2.3,2.1c0,1.4-1.1,2.3-2.8,2.3C737.9,223.8,737,223.3,736.4,222.4z"/>
			<path d="M743.9,217.3v-0.2c0-0.5,0.3-0.9,0.9-0.9s0.9,0.4,0.9,0.9v0.2c0,0.5-0.3,0.9-0.9,0.9S743.9,217.8,743.9,217.3z
				 M743.9,222.9v-0.2c0-0.5,0.3-0.9,0.9-0.9s0.9,0.4,0.9,0.9v0.2c0,0.5-0.3,0.9-0.9,0.9S743.9,223.4,743.9,222.9z"/>
			<path d="M650.1,236.4V236c0-0.9,0.5-1.5,1.8-1.5s1.8,0.7,1.8,1.5v0.4c0,0.9-0.5,1.5-1.8,1.5S650.1,237.3,650.1,236.4z"/>
			<path d="M668.3,240.4v-7.3h1.3v1.4h0.1c0.2-0.7,0.9-1.4,2-1.4h0.4v1.3h-0.6c-1.2,0-1.9,0.5-1.9,1.2v4.8H668.3z"/>
			<path d="M673,236.8c0-2.3,1.3-3.8,3.3-3.8c2,0,3.2,1.5,3.2,3.6v0.5h-5.1v0.3c0,1.2,0.7,2.1,2,2.1c0.9,0,1.6-0.4,2-1.2l0.8,0.7
				c-0.5,0.9-1.6,1.6-2.9,1.6C674.3,240.6,673,239.1,673,236.8z M674.4,236.1L674.4,236.1l3.7,0.1v-0.1c0-1.2-0.7-2-1.8-2
				C675.2,234.1,674.4,234.9,674.4,236.1z"/>
			<path d="M681.6,234.3h-1.2v-1.1h1.2v-1.3c0-1.1,0.6-1.8,1.7-1.8h1.1v1.1h-1.5v2h1.5v1.1h-1.5v6.1h-1.3V234.3z"/>
			<path d="M685.9,234.1v-0.2c0-0.5,0.3-0.9,0.9-0.9s0.9,0.4,0.9,0.9v0.2c0,0.5-0.3,0.9-0.9,0.9S685.9,234.6,685.9,234.1z
				 M685.9,239.7v-0.2c0-0.5,0.3-0.9,0.9-0.9s0.9,0.4,0.9,0.9v0.2c0,0.5-0.3,0.9-0.9,0.9S685.9,240.2,685.9,239.7z"/>
			<path d="M689.9,239.7v-0.2c0-0.5,0.3-0.9,0.9-0.9c0.6,0,0.9,0.4,0.9,0.9v0.2c0,0.5-0.3,0.9-0.9,0.9
				C690.2,240.6,689.9,240.2,689.9,239.7z"/>
			<path d="M693.8,239.7v-0.2c0-0.5,0.3-0.9,0.9-0.9s0.9,0.4,0.9,0.9v0.2c0,0.5-0.3,0.9-0.9,0.9S693.8,240.2,693.8,239.7z"/>
			<path d="M696.8,242.6l3.8-12.5h1.1l-3.8,12.5H696.8z"/>
			<path d="M703.3,239.7v-0.2c0-0.5,0.3-0.9,0.9-0.9s0.9,0.4,0.9,0.9v0.2c0,0.5-0.3,0.9-0.9,0.9S703.3,240.2,703.3,239.7z"/>
			<path d="M707.2,239.7v-0.2c0-0.5,0.3-0.9,0.9-0.9c0.6,0,0.9,0.4,0.9,0.9v0.2c0,0.5-0.3,0.9-0.9,0.9
				C707.5,240.6,707.2,240.2,707.2,239.7z"/>
			<path d="M710.2,242.6l3.8-12.5h1.1l-3.8,12.5H710.2z"/>
			<path d="M716.7,231v-0.2c0-0.4,0.2-0.7,0.8-0.7c0.5,0,0.8,0.3,0.8,0.7v0.2c0,0.4-0.2,0.7-0.8,0.7
				C716.9,231.7,716.7,231.4,716.7,231z M716.8,233.2h1.3v7.3h-1.3V233.2z"/>
			<path d="M720.4,240.4v-7.3h1.3v1.2h0.1c0.3-0.8,1-1.4,2-1.4c1.5,0,2.4,1,2.4,2.8v4.6h-1.3V236c0-1.2-0.5-1.8-1.5-1.8
				c-0.9,0-1.7,0.4-1.7,1.3v5H720.4z"/>
			<path d="M728.4,233.2h1.3v1.2h0.1c0.3-0.9,1.1-1.4,2.1-1.4c1.8,0,2.9,1.4,2.9,3.8c0,2.4-1.1,3.8-2.9,3.8c-1,0-1.8-0.5-2.1-1.4
				h-0.1v4h-1.3V233.2z M733.4,237.4v-1.2c0-1.2-0.7-2-1.9-2c-1,0-1.8,0.6-1.8,1.3v2.7c0,0.8,0.8,1.3,1.8,1.3
				C732.6,239.5,733.4,238.6,733.4,237.4z"/>
			<path d="M741,239.2L741,239.2c-0.3,0.7-0.9,1.4-2.1,1.4c-1.5,0-2.4-1-2.4-2.8v-4.6h1.3v4.4c0,1.2,0.5,1.8,1.5,1.8
				c0.8,0,1.7-0.4,1.7-1.3v-5h1.3v7.3H741V239.2z"/>
			<path d="M746.4,240.4c-0.9,0-1.4-0.5-1.4-1.4v-4.8h-1.2v-1.1h0.6c0.5,0,0.6-0.2,0.6-0.7v-1.3h1.2v2h1.6v1.1h-1.6v5h1.4v1.1H746.4
				z"/>
			<path d="M749,239.2l0.9-0.8c0.5,0.7,1.2,1.1,2.1,1.1c0.9,0,1.4-0.4,1.4-1.1c0-0.5-0.3-0.9-1.2-1l-0.6-0.1
				c-1.4-0.2-2.4-0.8-2.4-2.1c0-1.4,1.1-2.2,2.6-2.2c1.2,0,2,0.4,2.6,1.2l-0.8,0.8c-0.4-0.5-1-0.9-1.8-0.9c-0.9,0-1.3,0.4-1.3,1
				c0,0.6,0.4,0.9,1.3,1l0.6,0.1c1.6,0.2,2.3,0.9,2.3,2.1c0,1.4-1.1,2.3-2.8,2.3C750.5,240.6,749.6,240.1,749,239.2z"/>
			<path d="M755.5,242.6l3.8-12.5h1.1l-3.8,12.5H755.5z"/>
			<path d="M762.1,233.2h1.3v1.2h0.1c0.3-0.9,1.1-1.4,2.1-1.4c1.8,0,2.9,1.4,2.9,3.8c0,2.4-1.1,3.8-2.9,3.8c-1,0-1.8-0.5-2.1-1.4
				h-0.1v4h-1.3V233.2z M767,237.4v-1.2c0-1.2-0.7-2-1.9-2c-1,0-1.8,0.6-1.8,1.3v2.7c0,0.8,0.8,1.3,1.8,1.3
				C766.3,239.5,767,238.6,767,237.4z"/>
			<path d="M770.3,240.4v-7.3h1.3v1.4h0.1c0.2-0.7,0.9-1.4,2-1.4h0.4v1.3h-0.6c-1.2,0-1.9,0.5-1.9,1.2v4.8H770.3z"/>
			<path d="M775,236.8c0-2.3,1.3-3.8,3.3-3.8c2,0,3.2,1.5,3.2,3.6v0.5h-5.1v0.3c0,1.2,0.7,2.1,2,2.1c0.9,0,1.6-0.4,2-1.2l0.8,0.7
				c-0.5,0.9-1.6,1.6-2.9,1.6C776.3,240.6,775,239.1,775,236.8z M776.4,236.1L776.4,236.1l3.7,0.1v-0.1c0-1.2-0.7-2-1.8-2
				C777.2,234.1,776.4,234.9,776.4,236.1z"/>
			<path d="M783.6,234.3h-1.2v-1.1h1.2v-1.3c0-1.1,0.6-1.8,1.7-1.8h1.1v1.1h-1.5v2h4.2v7.3h-1.3v-6.1h-2.9v6.1h-1.3V234.3z
				 M787.7,231v-0.2c0-0.4,0.2-0.7,0.8-0.7c0.5,0,0.8,0.3,0.8,0.7v0.2c0,0.4-0.2,0.7-0.8,0.7C787.9,231.7,787.7,231.4,787.7,231z"/>
			<path d="M793.2,236.8l-2.5-3.6h1.5l1.8,2.6h0l1.8-2.6h1.4l-2.5,3.5l2.6,3.7h-1.5l-1.8-2.7h0l-1.9,2.7h-1.4L793.2,236.8z"/>
			<path d="M650.1,253.2v-0.4c0-0.9,0.5-1.5,1.8-1.5s1.8,0.7,1.8,1.5v0.4c0,0.9-0.5,1.5-1.8,1.5S650.1,254.1,650.1,253.2z"/>
			<path d="M668.3,257.2V250h1.3v1.4h0.1c0.2-0.7,0.9-1.4,2-1.4h0.4v1.3h-0.6c-1.2,0-1.9,0.5-1.9,1.2v4.8H668.3z"/>
			<path d="M673,253.6c0-2.3,1.3-3.8,3.3-3.8c2,0,3.2,1.5,3.2,3.6v0.5h-5.1v0.3c0,1.2,0.7,2.1,2,2.1c0.9,0,1.6-0.4,2-1.2l0.8,0.7
				c-0.5,0.9-1.6,1.6-2.9,1.6C674.3,257.4,673,255.9,673,253.6z M674.4,252.9L674.4,252.9l3.7,0.1v-0.1c0-1.2-0.7-2-1.8-2
				C675.2,250.9,674.4,251.7,674.4,252.9z"/>
			<path d="M681.6,251.1h-1.2V250h1.2v-1.3c0-1.1,0.6-1.8,1.7-1.8h1.1v1.1h-1.5v2h1.5v1.1h-1.5v6.1h-1.3V251.1z"/>
			<path d="M685.9,250.9v-0.2c0-0.5,0.3-0.9,0.9-0.9s0.9,0.4,0.9,0.9v0.2c0,0.5-0.3,0.9-0.9,0.9S685.9,251.4,685.9,250.9z
				 M685.9,256.5v-0.2c0-0.5,0.3-0.9,0.9-0.9s0.9,0.4,0.9,0.9v0.2c0,0.5-0.3,0.9-0.9,0.9S685.9,257,685.9,256.5z"/>
			<path d="M689.9,256.5v-0.2c0-0.5,0.3-0.9,0.9-0.9c0.6,0,0.9,0.4,0.9,0.9v0.2c0,0.5-0.3,0.9-0.9,0.9
				C690.2,257.4,689.9,257,689.9,256.5z"/>
			<path d="M693.8,256.5v-0.2c0-0.5,0.3-0.9,0.9-0.9s0.9,0.4,0.9,0.9v0.2c0,0.5-0.3,0.9-0.9,0.9S693.8,257,693.8,256.5z"/>
			<path d="M696.8,259.4l3.8-12.5h1.1l-3.8,12.5H696.8z"/>
			<path d="M703.3,256.5v-0.2c0-0.5,0.3-0.9,0.9-0.9s0.9,0.4,0.9,0.9v0.2c0,0.5-0.3,0.9-0.9,0.9S703.3,257,703.3,256.5z"/>
			<path d="M707.2,256.5v-0.2c0-0.5,0.3-0.9,0.9-0.9c0.6,0,0.9,0.4,0.9,0.9v0.2c0,0.5-0.3,0.9-0.9,0.9
				C707.5,257.4,707.2,257,707.2,256.5z"/>
			<path d="M710.2,259.4l3.8-12.5h1.1l-3.8,12.5H710.2z"/>
			<path d="M716.7,247.8v-0.2c0-0.4,0.2-0.7,0.8-0.7c0.5,0,0.8,0.3,0.8,0.7v0.2c0,0.4-0.2,0.7-0.8,0.7
				C716.9,248.5,716.7,248.2,716.7,247.8z M716.8,250h1.3v7.3h-1.3V250z"/>
			<path d="M720.4,257.2V250h1.3v1.2h0.1c0.3-0.8,1-1.4,2-1.4c1.5,0,2.4,1,2.4,2.8v4.6h-1.3v-4.4c0-1.2-0.5-1.8-1.5-1.8
				c-0.9,0-1.7,0.4-1.7,1.3v5H720.4z"/>
			<path d="M728.4,250h1.3v1.2h0.1c0.3-0.9,1.1-1.4,2.1-1.4c1.8,0,2.9,1.4,2.9,3.8c0,2.4-1.1,3.8-2.9,3.8c-1,0-1.8-0.5-2.1-1.4h-0.1
				v4h-1.3V250z M733.4,254.2V253c0-1.2-0.7-2-1.9-2c-1,0-1.8,0.6-1.8,1.3v2.7c0,0.8,0.8,1.3,1.8,1.3
				C732.6,256.3,733.4,255.4,733.4,254.2z"/>
			<path d="M741,256L741,256c-0.3,0.7-0.9,1.4-2.1,1.4c-1.5,0-2.4-1-2.4-2.8V250h1.3v4.4c0,1.2,0.5,1.8,1.5,1.8
				c0.8,0,1.7-0.4,1.7-1.3v-5h1.3v7.3H741V256z"/>
			<path d="M746.4,257.2c-0.9,0-1.4-0.5-1.4-1.4v-4.8h-1.2V250h0.6c0.5,0,0.6-0.2,0.6-0.7V248h1.2v2h1.6v1.1h-1.6v5h1.4v1.1H746.4z"
				/>
			<path d="M749,256l0.9-0.8c0.5,0.7,1.2,1.1,2.1,1.1c0.9,0,1.4-0.4,1.4-1.1c0-0.5-0.3-0.9-1.2-1l-0.6-0.1c-1.4-0.2-2.4-0.8-2.4-2.1
				c0-1.4,1.1-2.2,2.6-2.2c1.2,0,2,0.4,2.6,1.2l-0.8,0.8c-0.4-0.5-1-0.9-1.8-0.9c-0.9,0-1.3,0.4-1.3,1c0,0.6,0.4,0.9,1.3,1l0.6,0.1
				c1.6,0.2,2.3,0.9,2.3,2.1c0,1.4-1.1,2.3-2.8,2.3C750.5,257.4,749.6,256.9,749,256z"/>
			<path d="M755.5,259.4l3.8-12.5h1.1l-3.8,12.5H755.5z"/>
			<path d="M761.4,256l0.9-0.8c0.5,0.7,1.2,1.1,2.1,1.1c0.9,0,1.4-0.4,1.4-1.1c0-0.5-0.3-0.9-1.2-1l-0.6-0.1
				c-1.4-0.2-2.4-0.8-2.4-2.1c0-1.4,1.1-2.2,2.6-2.2c1.2,0,2,0.4,2.6,1.2l-0.8,0.8c-0.3-0.5-1-0.9-1.8-0.9c-0.9,0-1.3,0.4-1.3,1
				c0,0.6,0.4,0.9,1.3,1l0.6,0.1c1.6,0.2,2.3,0.9,2.3,2.1c0,1.4-1.1,2.3-2.8,2.3C763,257.4,762.1,256.9,761.4,256z"/>
			<path d="M768.3,256l0.9-0.8c0.5,0.7,1.2,1.1,2.1,1.1c0.9,0,1.4-0.4,1.4-1.1c0-0.5-0.3-0.9-1.2-1l-0.6-0.1
				c-1.4-0.2-2.4-0.8-2.4-2.1c0-1.4,1.1-2.2,2.6-2.2c1.2,0,2,0.4,2.6,1.2l-0.8,0.8c-0.4-0.5-1-0.9-1.8-0.9c-0.9,0-1.3,0.4-1.3,1
				c0,0.6,0.4,0.9,1.3,1l0.6,0.1c1.6,0.2,2.3,0.9,2.3,2.1c0,1.4-1.1,2.3-2.8,2.3C769.8,257.4,768.9,256.9,768.3,256z"/>
			<path d="M775.8,246.9h1.3v4.3h0.1c0.3-0.8,1-1.4,2-1.4c1.5,0,2.4,1,2.4,2.8v4.6h-1.3v-4.4c0-1.2-0.5-1.8-1.5-1.8
				c-0.9,0-1.7,0.4-1.7,1.3v5h-1.3V246.9z"/>
			<path d="M783.1,259.6v-1.1h7v1.1H783.1z"/>
			<path d="M791.7,246.9h1.3v6.5h0.1l1-1.3l1.9-2.1h1.5l-2.6,2.8l2.9,4.5h-1.6l-2.3-3.6l-1,1.1v2.5h-1.3V246.9z"/>
			<path d="M798.7,253.6c0-2.3,1.3-3.8,3.3-3.8c2,0,3.2,1.5,3.2,3.6v0.5h-5.1v0.3c0,1.2,0.7,2.1,2,2.1c0.9,0,1.6-0.4,2-1.2l0.8,0.7
				c-0.5,0.9-1.6,1.6-2.9,1.6C800,257.4,798.7,255.9,798.7,253.6z M800.1,252.9L800.1,252.9l3.7,0.1v-0.1c0-1.2-0.7-2-1.8-2
				C800.9,250.9,800.1,251.7,800.1,252.9z"/>
			<path d="M811.4,250h1.3l-3.2,8.8c-0.3,0.9-0.7,1.2-1.8,1.2H807v-1.1h1.2l0.5-1.4L806,250h1.3l1.6,4.6l0.4,1.4h0.1l0.4-1.4
				L811.4,250z"/>
		</g>
	</g>
</g>
<g id="Layer_11">
	<g>
		<g>
			<line class="st1" x1="764" y1="397.3" x2="764" y2="403.3"/>
			<line class="st10" x1="764.1" y1="416" x2="764.4" y2="485.5"/>
			<line class="st1" x1="764.5" y1="491.8" x2="764.5" y2="497.8"/>
		</g>
	</g>
	<g id="Layer_12">
		<line class="st1" x1="598.7" y1="498.7" x2="609.5" y2="507.8"/>
		<line class="st1" x1="607.7" y1="489.7" x2="597.7" y2="498.7"/>
	</g>
</g>
<g id="Layer_14">
	<g>
		<g>
			<path d="M262.2,465.4c0-3.3,1.5-5.1,4-5.1c1.7,0,2.8,0.8,3.4,2.2l-1.1,0.6c-0.4-1-1.1-1.6-2.3-1.6c-1.6,0-2.6,1.2-2.6,3.1v1.5
				c0,1.9,1,3.1,2.6,3.1c1.2,0,2-0.7,2.4-1.7l1.1,0.7c-0.6,1.4-1.8,2.3-3.5,2.3C263.7,470.4,262.2,468.6,262.2,465.4z"/>
			<path d="M275.8,469.1L275.8,469.1c-0.3,0.7-0.9,1.4-2.1,1.4c-1.5,0-2.4-1-2.4-2.8V463h1.3v4.4c0,1.2,0.5,1.8,1.5,1.8
				c0.8,0,1.7-0.4,1.7-1.3v-5h1.3v7.3h-1.3V469.1z"/>
			<path d="M278.7,469l0.9-0.8c0.5,0.7,1.2,1.1,2.1,1.1c0.9,0,1.4-0.4,1.4-1.1c0-0.5-0.3-0.9-1.2-1l-0.6-0.1
				c-1.4-0.2-2.4-0.8-2.4-2.1c0-1.4,1.1-2.2,2.6-2.2c1.2,0,2,0.4,2.6,1.2l-0.8,0.8c-0.4-0.5-1-0.9-1.8-0.9c-0.9,0-1.3,0.4-1.3,1
				c0,0.6,0.4,0.9,1.3,1l0.6,0.1c1.6,0.2,2.3,0.9,2.3,2.1c0,1.4-1.1,2.3-2.8,2.3C280.3,470.4,279.4,469.9,278.7,469z"/>
			<path d="M288,470.3c-0.9,0-1.4-0.5-1.4-1.4v-4.8h-1.2V463h0.6c0.5,0,0.6-0.2,0.6-0.7V461h1.2v2h1.6v1.1H288v5h1.4v1.1H288z"/>
			<path d="M290.7,466.6c0-2.3,1.3-3.8,3.3-3.8s3.3,1.5,3.3,3.8c0,2.3-1.3,3.8-3.3,3.8S290.7,468.9,290.7,466.6z M296,467.2v-1.1
				c0-1.4-0.8-2.1-1.9-2.1c-1.1,0-1.9,0.7-1.9,2.1v1.1c0,1.4,0.8,2.1,1.9,2.1C295.2,469.3,296,468.6,296,467.2z"/>
			<path d="M299.1,470.3V463h1.3v1.2h0.1c0.3-0.7,1-1.4,1.9-1.4c1,0,1.8,0.4,2.2,1.5h0c0.3-0.8,1-1.5,2.2-1.5c1.5,0,2.3,1,2.3,2.8
				v4.6h-1.3v-4.4c0-1.2-0.5-1.8-1.5-1.8c-0.8,0-1.6,0.4-1.6,1.3v5h-1.3v-4.4c0-1.2-0.5-1.8-1.5-1.8c-0.8,0-1.6,0.4-1.6,1.3v5H299.1
				z"/>
			<path d="M311.2,466.7v-1.4h3.8v1.4H311.2z"/>
			<path d="M322.3,470.3c-0.8,0-1.2-0.5-1.3-1.2h-0.1c-0.3,0.9-1.1,1.4-2.1,1.4c-1.5,0-2.4-0.8-2.4-2.2c0-1.4,1-2.2,3.1-2.2h1.4
				v-0.7c0-1-0.5-1.5-1.6-1.5c-0.9,0-1.4,0.4-1.8,1l-0.8-0.7c0.4-0.8,1.3-1.4,2.6-1.4c1.8,0,2.8,0.9,2.8,2.5v3.8h0.8v1.1H322.3z
				 M320.9,468.1V467h-1.4c-1.2,0-1.7,0.4-1.7,1v0.3c0,0.7,0.5,1.1,1.3,1.1C320.1,469.4,320.9,468.9,320.9,468.1z"/>
			<path d="M324.6,463h1.3v1.2h0.1c0.3-0.9,1.1-1.4,2.1-1.4c1.8,0,2.9,1.4,2.9,3.8s-1.1,3.8-2.9,3.8c-1,0-1.8-0.5-2.1-1.4h-0.1v4
				h-1.3V463z M329.5,467.2V466c0-1.2-0.7-2-1.9-2c-1,0-1.8,0.6-1.8,1.3v2.7c0,0.8,0.8,1.3,1.8,1.3
				C328.8,469.3,329.5,468.5,329.5,467.2z"/>
			<path d="M338,470.3c-0.8,0-1.2-0.5-1.3-1.2h-0.1c-0.3,0.9-1.1,1.4-2.1,1.4c-1.5,0-2.4-0.8-2.4-2.2c0-1.4,1-2.2,3.1-2.2h1.4v-0.7
				c0-1-0.5-1.5-1.6-1.5c-0.9,0-1.4,0.4-1.8,1l-0.8-0.7c0.4-0.8,1.3-1.4,2.6-1.4c1.8,0,2.8,0.9,2.8,2.5v3.8h0.8v1.1H338z
				 M336.7,468.1V467h-1.4c-1.2,0-1.7,0.4-1.7,1v0.3c0,0.7,0.5,1.1,1.3,1.1C335.9,469.4,336.7,468.9,336.7,468.1z"/>
			<path d="M339.8,466.6c0-2.3,1.2-3.8,3.3-3.8c1.4,0,2.3,0.7,2.7,1.7l-1.1,0.5c-0.2-0.7-0.8-1.1-1.7-1.1c-1.2,0-1.9,0.9-1.9,2v1.3
				c0,1.2,0.6,2,1.9,2c0.9,0,1.5-0.4,1.8-1.2l1,0.6c-0.5,1.1-1.4,1.8-2.8,1.8C341,470.4,339.8,469,339.8,466.6z"/>
			<path d="M347.4,459.9h1.3v4.3h0.1c0.3-0.8,1-1.4,2-1.4c1.5,0,2.4,1,2.4,2.8v4.6h-1.3v-4.4c0-1.2-0.5-1.8-1.5-1.8
				c-0.9,0-1.7,0.4-1.7,1.3v5h-1.3V459.9z"/>
			<path d="M354.9,466.6c0-2.3,1.3-3.8,3.3-3.8c2,0,3.2,1.5,3.2,3.6v0.5h-5.1v0.3c0,1.2,0.7,2.1,2,2.1c0.9,0,1.6-0.4,2-1.2l0.8,0.7
				c-0.5,0.9-1.6,1.6-2.9,1.6C356.2,470.4,354.9,468.9,354.9,466.6z M356.3,465.9L356.3,465.9l3.7,0.1v-0.1c0-1.2-0.7-2-1.8-2
				C357.1,463.9,356.3,464.8,356.3,465.9z"/>
			<path d="M366.3,460.8v-0.2c0-0.4,0.2-0.7,0.8-0.7s0.8,0.3,0.8,0.7v0.2c0,0.4-0.2,0.7-0.8,0.7S366.3,461.2,366.3,460.8z
				 M366.5,463h1.3v7.3h-1.3V463z"/>
			<path d="M370.1,470.3V463h1.3v1.2h0.1c0.3-0.8,1-1.4,2-1.4c1.5,0,2.4,1,2.4,2.8v4.6h-1.3v-4.4c0-1.2-0.5-1.8-1.5-1.8
				c-0.9,0-1.7,0.4-1.7,1.3v5H370.1z"/>
			<path d="M378.1,463h1.3v1.2h0.1c0.3-0.9,1.1-1.4,2.1-1.4c1.8,0,2.9,1.4,2.9,3.8s-1.1,3.8-2.9,3.8c-1,0-1.8-0.5-2.1-1.4h-0.1v4
				h-1.3V463z M383,467.2V466c0-1.2-0.7-2-1.9-2c-1,0-1.8,0.6-1.8,1.3v2.7c0,0.8,0.8,1.3,1.8,1.3C382.3,469.3,383,468.5,383,467.2z"
				/>
			<path d="M390.7,469.1L390.7,469.1c-0.3,0.7-0.9,1.4-2.1,1.4c-1.5,0-2.4-1-2.4-2.8V463h1.3v4.4c0,1.2,0.5,1.8,1.5,1.8
				c0.8,0,1.7-0.4,1.7-1.3v-5h1.3v7.3h-1.3V469.1z"/>
			<path d="M396.1,470.3c-0.9,0-1.4-0.5-1.4-1.4v-4.8h-1.2V463h0.6c0.5,0,0.6-0.2,0.6-0.7V461h1.2v2h1.6v1.1H396v5h1.4v1.1H396.1z"
				/>
			<path d="M398.6,469l0.9-0.8c0.5,0.7,1.2,1.1,2.1,1.1c0.9,0,1.4-0.4,1.4-1.1c0-0.5-0.3-0.9-1.2-1l-0.6-0.1
				c-1.4-0.2-2.4-0.8-2.4-2.1c0-1.4,1.1-2.2,2.6-2.2c1.2,0,2,0.4,2.6,1.2l-0.8,0.8c-0.4-0.5-1-0.9-1.8-0.9c-0.9,0-1.3,0.4-1.3,1
				c0,0.6,0.4,0.9,1.3,1l0.6,0.1c1.6,0.2,2.3,0.9,2.3,2.1c0,1.4-1.1,2.3-2.8,2.3C400.2,470.4,399.3,469.9,398.6,469z"/>
			<path d="M406.2,463.9v-0.2c0-0.5,0.3-0.9,0.9-0.9c0.6,0,0.9,0.4,0.9,0.9v0.2c0,0.5-0.3,0.9-0.9,0.9
				C406.5,464.8,406.2,464.4,406.2,463.9z M406.2,469.6v-0.2c0-0.5,0.3-0.9,0.9-0.9c0.6,0,0.9,0.4,0.9,0.9v0.2
				c0,0.5-0.3,0.9-0.9,0.9C406.5,470.4,406.2,470.1,406.2,469.6z"/>
			<path d="M262.5,483.1v-0.4c0-0.9,0.5-1.5,1.8-1.5s1.8,0.7,1.8,1.5v0.4c0,0.9-0.5,1.5-1.8,1.5S262.5,483.9,262.5,483.1z"/>
			<path d="M280.6,487.1v-7.3h1.3v1.4h0.1c0.2-0.7,0.9-1.4,2-1.4h0.4v1.3h-0.6c-1.2,0-1.9,0.5-1.9,1.2v4.8H280.6z"/>
			<path d="M285.3,483.4c0-2.3,1.3-3.8,3.3-3.8c2,0,3.2,1.5,3.2,3.6v0.5h-5.1v0.3c0,1.2,0.7,2.1,2,2.1c0.9,0,1.6-0.4,2-1.2l0.8,0.7
				c-0.5,0.9-1.6,1.6-2.9,1.6C286.6,487.2,285.3,485.7,285.3,483.4z M286.7,482.7L286.7,482.7l3.7,0.1v-0.1c0-1.2-0.7-2-1.8-2
				C287.5,480.7,286.7,481.6,286.7,482.7z"/>
			<path d="M293.9,480.9h-1.2v-1.1h1.2v-1.3c0-1.1,0.6-1.8,1.7-1.8h1.1v1.1h-1.5v2h1.5v1.1h-1.5v6.1h-1.3V480.9z"/>
			<path d="M298.2,480.7v-0.2c0-0.5,0.3-0.9,0.9-0.9c0.6,0,0.9,0.4,0.9,0.9v0.2c0,0.5-0.3,0.9-0.9,0.9
				C298.5,481.6,298.2,481.2,298.2,480.7z M298.2,486.4v-0.2c0-0.5,0.3-0.9,0.9-0.9c0.6,0,0.9,0.4,0.9,0.9v0.2
				c0,0.5-0.3,0.9-0.9,0.9C298.5,487.2,298.2,486.9,298.2,486.4z"/>
			<path d="M302.2,486.4v-0.2c0-0.5,0.3-0.9,0.9-0.9c0.6,0,0.9,0.4,0.9,0.9v0.2c0,0.5-0.3,0.9-0.9,0.9
				C302.5,487.2,302.2,486.9,302.2,486.4z"/>
			<path d="M306.1,486.4v-0.2c0-0.5,0.3-0.9,0.9-0.9c0.6,0,0.9,0.4,0.9,0.9v0.2c0,0.5-0.3,0.9-0.9,0.9
				C306.4,487.2,306.1,486.9,306.1,486.4z"/>
			<path d="M309.1,489.2l3.8-12.5h1.1l-3.8,12.5H309.1z"/>
			<path d="M315.6,486.4v-0.2c0-0.5,0.3-0.9,0.9-0.9c0.6,0,0.9,0.4,0.9,0.9v0.2c0,0.5-0.3,0.9-0.9,0.9
				C315.9,487.2,315.6,486.9,315.6,486.4z"/>
			<path d="M319.5,486.4v-0.2c0-0.5,0.3-0.9,0.9-0.9c0.6,0,0.9,0.4,0.9,0.9v0.2c0,0.5-0.3,0.9-0.9,0.9
				C319.8,487.2,319.5,486.9,319.5,486.4z"/>
			<path d="M322.5,489.2l3.8-12.5h1.1l-3.8,12.5H322.5z"/>
			<path d="M329,477.6v-0.2c0-0.4,0.2-0.7,0.8-0.7s0.8,0.3,0.8,0.7v0.2c0,0.4-0.2,0.7-0.8,0.7S329,478,329,477.6z M329.1,479.8h1.3
				v7.3h-1.3V479.8z"/>
			<path d="M332.7,487.1v-7.3h1.3v1.2h0.1c0.3-0.8,1-1.4,2-1.4c1.5,0,2.4,1,2.4,2.8v4.6h-1.3v-4.4c0-1.2-0.5-1.8-1.5-1.8
				c-0.9,0-1.7,0.4-1.7,1.3v5H332.7z"/>
			<path d="M340.7,479.8h1.3v1.2h0.1c0.3-0.9,1.1-1.4,2.1-1.4c1.8,0,2.9,1.4,2.9,3.8s-1.1,3.8-2.9,3.8c-1,0-1.8-0.5-2.1-1.4H342v4
				h-1.3V479.8z M345.7,484v-1.2c0-1.2-0.7-2-1.9-2c-1,0-1.8,0.6-1.8,1.3v2.7c0,0.8,0.8,1.3,1.8,1.3
				C345,486.1,345.7,485.3,345.7,484z"/>
			<path d="M353.4,485.9L353.4,485.9c-0.3,0.7-0.9,1.4-2.1,1.4c-1.5,0-2.4-1-2.4-2.8v-4.6h1.3v4.4c0,1.2,0.5,1.8,1.5,1.8
				c0.8,0,1.7-0.4,1.7-1.3v-5h1.3v7.3h-1.3V485.9z"/>
			<path d="M358.7,487.1c-0.9,0-1.4-0.5-1.4-1.4v-4.8h-1.2v-1.1h0.6c0.5,0,0.6-0.2,0.6-0.7v-1.3h1.2v2h1.6v1.1h-1.6v5h1.4v1.1H358.7
				z"/>
			<path d="M361.3,485.8l0.9-0.8c0.5,0.7,1.2,1.1,2.1,1.1c0.9,0,1.4-0.4,1.4-1.1c0-0.5-0.3-0.9-1.2-1l-0.6-0.1
				c-1.4-0.2-2.4-0.8-2.4-2.1c0-1.4,1.1-2.2,2.6-2.2c1.2,0,2,0.4,2.6,1.2l-0.8,0.8c-0.4-0.5-1-0.9-1.8-0.9c-0.9,0-1.3,0.4-1.3,1
				c0,0.6,0.4,0.9,1.3,1l0.6,0.1c1.6,0.2,2.3,0.9,2.3,2.1c0,1.4-1.1,2.3-2.8,2.3C362.8,487.2,361.9,486.7,361.3,485.8z"/>
			<path d="M367.8,489.2l3.8-12.5h1.1l-3.8,12.5H367.8z"/>
			<path d="M373.7,485.8l0.9-0.8c0.5,0.7,1.2,1.1,2.1,1.1c0.9,0,1.4-0.4,1.4-1.1c0-0.5-0.3-0.9-1.2-1l-0.6-0.1
				c-1.4-0.2-2.4-0.8-2.4-2.1c0-1.4,1.1-2.2,2.6-2.2c1.2,0,2,0.4,2.6,1.2l-0.8,0.8c-0.4-0.5-1-0.9-1.8-0.9c-0.9,0-1.3,0.4-1.3,1
				c0,0.6,0.4,0.9,1.3,1l0.6,0.1c1.6,0.2,2.3,0.9,2.3,2.1c0,1.4-1.1,2.3-2.8,2.3C375.3,487.2,374.4,486.7,373.7,485.8z"/>
			<path d="M380.6,485.8l0.9-0.8c0.5,0.7,1.2,1.1,2.1,1.1c0.9,0,1.4-0.4,1.4-1.1c0-0.5-0.3-0.9-1.2-1l-0.6-0.1
				c-1.4-0.2-2.4-0.8-2.4-2.1c0-1.4,1.1-2.2,2.6-2.2c1.2,0,2,0.4,2.6,1.2l-0.8,0.8c-0.4-0.5-1-0.9-1.8-0.9c-0.9,0-1.3,0.4-1.3,1
				c0,0.6,0.4,0.9,1.3,1l0.6,0.1c1.6,0.2,2.3,0.9,2.3,2.1c0,1.4-1.1,2.3-2.8,2.3C382.1,487.2,381.3,486.7,380.6,485.8z"/>
			<path d="M388.1,476.7h1.3v4.3h0.1c0.3-0.8,1-1.4,2-1.4c1.5,0,2.4,1,2.4,2.8v4.6h-1.3v-4.4c0-1.2-0.5-1.8-1.5-1.8
				c-0.9,0-1.7,0.4-1.7,1.3v5h-1.3V476.7z"/>
			<path d="M395.4,489.4v-1.1h7v1.1H395.4z"/>
			<path d="M404,479.8h1.3v1.2h0.1c0.3-0.9,1.1-1.4,2.1-1.4c1.8,0,2.9,1.4,2.9,3.8s-1.1,3.8-2.9,3.8c-1,0-1.8-0.5-2.1-1.4h-0.1v4
				H404V479.8z M409,484v-1.2c0-1.2-0.7-2-1.9-2c-1,0-1.8,0.6-1.8,1.3v2.7c0,0.8,0.8,1.3,1.8,1.3C408.2,486.1,409,485.3,409,484z"/>
			<path d="M412.2,487.1v-7.3h1.3v1.4h0.1c0.2-0.7,0.9-1.4,2-1.4h0.4v1.3h-0.6c-1.2,0-1.9,0.5-1.9,1.2v4.8H412.2z"/>
			<path d="M417.3,477.6v-0.2c0-0.4,0.2-0.7,0.8-0.7c0.5,0,0.8,0.3,0.8,0.7v0.2c0,0.4-0.2,0.7-0.8,0.7
				C417.6,478.3,417.3,478,417.3,477.6z M417.5,479.8h1.3v7.3h-1.3V479.8z"/>
			<path d="M422.6,487.1l-2.5-7.3h1.3l1.2,3.5l0.8,2.5h0.1l0.8-2.5l1.2-3.5h1.2l-2.5,7.3H422.6z"/>
			<path d="M433.3,487.1c-0.8,0-1.2-0.5-1.3-1.2H432c-0.3,0.9-1.1,1.4-2.1,1.4c-1.5,0-2.4-0.8-2.4-2.2c0-1.4,1-2.2,3.1-2.2h1.4v-0.7
				c0-1-0.5-1.5-1.6-1.5c-0.9,0-1.4,0.4-1.8,1l-0.8-0.7c0.4-0.8,1.3-1.4,2.6-1.4c1.8,0,2.8,0.9,2.8,2.5v3.8h0.8v1.1H433.3z
				 M432,484.9v-1.1h-1.4c-1.2,0-1.7,0.4-1.7,1v0.3c0,0.7,0.5,1.1,1.3,1.1C431.2,486.2,432,485.7,432,484.9z"/>
			<path d="M437.4,487.1c-0.9,0-1.4-0.5-1.4-1.4v-4.8h-1.2v-1.1h0.6c0.5,0,0.6-0.2,0.6-0.7v-1.3h1.2v2h1.6v1.1h-1.6v5h1.4v1.1H437.4
				z"/>
			<path d="M440.1,483.4c0-2.3,1.3-3.8,3.3-3.8c2,0,3.2,1.5,3.2,3.6v0.5h-5.1v0.3c0,1.2,0.7,2.1,2,2.1c0.9,0,1.6-0.4,2-1.2l0.8,0.7
				c-0.5,0.9-1.6,1.6-2.9,1.6C441.4,487.2,440.1,485.7,440.1,483.4z M441.5,482.7L441.5,482.7l3.7,0.1v-0.1c0-1.2-0.7-2-1.8-2
				C442.3,480.7,441.5,481.6,441.5,482.7z"/>
			<path d="M447.6,489.4v-1.1h7v1.1H447.6z"/>
			<path d="M456.2,476.7h1.3v6.5h0.1l1-1.3l1.9-2.1h1.5l-2.6,2.8l2.9,4.5h-1.6l-2.3-3.6l-1,1.1v2.5h-1.3V476.7z"/>
			<path d="M463.2,483.4c0-2.3,1.3-3.8,3.3-3.8c2,0,3.2,1.5,3.2,3.6v0.5h-5.1v0.3c0,1.2,0.7,2.1,2,2.1c0.9,0,1.6-0.4,2-1.2l0.8,0.7
				c-0.5,0.9-1.6,1.6-2.9,1.6C464.5,487.2,463.2,485.7,463.2,483.4z M464.6,482.7L464.6,482.7l3.7,0.1v-0.1c0-1.2-0.7-2-1.8-2
				C465.4,480.7,464.6,481.6,464.6,482.7z"/>
			<path d="M475.9,479.8h1.3l-3.2,8.8c-0.3,0.9-0.7,1.2-1.8,1.2h-0.7v-1.1h1.2l0.5-1.4l-2.7-7.5h1.3l1.6,4.6l0.4,1.4h0.1l0.4-1.4
				L475.9,479.8z"/>
			<path d="M262.5,499.9v-0.4c0-0.9,0.5-1.5,1.8-1.5s1.8,0.7,1.8,1.5v0.4c0,0.9-0.5,1.5-1.8,1.5S262.5,500.7,262.5,499.9z"/>
			<path d="M280.6,503.9v-7.3h1.3v1.4h0.1c0.2-0.7,0.9-1.4,2-1.4h0.4v1.3h-0.6c-1.2,0-1.9,0.5-1.9,1.2v4.8H280.6z"/>
			<path d="M285.3,500.2c0-2.3,1.3-3.8,3.3-3.8c2,0,3.2,1.5,3.2,3.6v0.5h-5.1v0.3c0,1.2,0.7,2.1,2,2.1c0.9,0,1.6-0.4,2-1.2l0.8,0.7
				c-0.5,0.9-1.6,1.6-2.9,1.6C286.6,504,285.3,502.5,285.3,500.2z M286.7,499.5L286.7,499.5l3.7,0.1v-0.1c0-1.2-0.7-2-1.8-2
				C287.5,497.5,286.7,498.4,286.7,499.5z"/>
			<path d="M293.9,497.7h-1.2v-1.1h1.2v-1.3c0-1.1,0.6-1.8,1.7-1.8h1.1v1.1h-1.5v2h1.5v1.1h-1.5v6.1h-1.3V497.7z"/>
			<path d="M298.2,497.5v-0.2c0-0.5,0.3-0.9,0.9-0.9c0.6,0,0.9,0.4,0.9,0.9v0.2c0,0.5-0.3,0.9-0.9,0.9
				C298.5,498.4,298.2,498,298.2,497.5z M298.2,503.2v-0.2c0-0.5,0.3-0.9,0.9-0.9c0.6,0,0.9,0.4,0.9,0.9v0.2c0,0.5-0.3,0.9-0.9,0.9
				C298.5,504,298.2,503.7,298.2,503.2z"/>
			<path d="M302.2,503.2v-0.2c0-0.5,0.3-0.9,0.9-0.9c0.6,0,0.9,0.4,0.9,0.9v0.2c0,0.5-0.3,0.9-0.9,0.9
				C302.5,504,302.2,503.7,302.2,503.2z"/>
			<path d="M306.1,503.2v-0.2c0-0.5,0.3-0.9,0.9-0.9c0.6,0,0.9,0.4,0.9,0.9v0.2c0,0.5-0.3,0.9-0.9,0.9
				C306.4,504,306.1,503.7,306.1,503.2z"/>
			<path d="M309.1,506l3.8-12.5h1.1l-3.8,12.5H309.1z"/>
			<path d="M317.5,503.9c-0.9,0-1.4-0.5-1.4-1.4v-4.8H315v-1.1h0.6c0.5,0,0.6-0.2,0.6-0.7v-1.3h1.2v2h1.6v1.1h-1.6v5h1.4v1.1H317.5z
				"/>
			<path d="M320.2,500.2c0-2.3,1.3-3.8,3.3-3.8c2,0,3.2,1.5,3.2,3.6v0.5h-5.1v0.3c0,1.2,0.7,2.1,2,2.1c0.9,0,1.6-0.4,2-1.2l0.8,0.7
				c-0.5,0.9-1.6,1.6-2.9,1.6C321.5,504,320.2,502.5,320.2,500.2z M321.6,499.5L321.6,499.5l3.7,0.1v-0.1c0-1.2-0.7-2-1.8-2
				C322.4,497.5,321.6,498.4,321.6,499.5z"/>
			<path d="M327.8,502.6l0.9-0.8c0.5,0.7,1.2,1.1,2.1,1.1c0.9,0,1.4-0.4,1.4-1.1c0-0.5-0.3-0.9-1.2-1l-0.6-0.1
				c-1.4-0.2-2.4-0.8-2.4-2.1c0-1.4,1.1-2.2,2.6-2.2c1.2,0,2,0.4,2.6,1.2l-0.8,0.8c-0.4-0.5-1-0.9-1.8-0.9c-0.9,0-1.3,0.4-1.3,1
				c0,0.6,0.4,0.9,1.3,1l0.6,0.1c1.6,0.2,2.3,0.9,2.3,2.1c0,1.4-1.1,2.3-2.8,2.3C329.3,504,328.5,503.5,327.8,502.6z"/>
			<path d="M337.1,503.9c-0.9,0-1.4-0.5-1.4-1.4v-4.8h-1.2v-1.1h0.6c0.5,0,0.6-0.2,0.6-0.7v-1.3h1.2v2h1.6v1.1H337v5h1.4v1.1H337.1z
				"/>
			<path d="M340.1,500.3v-1.4h3.8v1.4H340.1z"/>
			<path d="M345.2,502.6l0.9-0.8c0.5,0.7,1.2,1.1,2.1,1.1c0.9,0,1.4-0.4,1.4-1.1c0-0.5-0.3-0.9-1.2-1l-0.6-0.1
				c-1.4-0.2-2.4-0.8-2.4-2.1c0-1.4,1.1-2.2,2.6-2.2c1.2,0,2,0.4,2.6,1.2l-0.8,0.8c-0.4-0.5-1-0.9-1.8-0.9c-0.9,0-1.3,0.4-1.3,1
				c0,0.6,0.4,0.9,1.3,1l0.6,0.1c1.6,0.2,2.3,0.9,2.3,2.1c0,1.4-1.1,2.3-2.8,2.3C346.8,504,345.9,503.5,345.2,502.6z"/>
			<path d="M354.1,503.9c-0.9,0-1.4-0.5-1.4-1.3v-9h1.3v9.3h1v1.1H354.1z"/>
			<path d="M356,503.9v-1.1l4-5.1h-3.9v-1.1h5.4v1l-4.1,5.2h4.2v1.1H356z"/>
			<path d="M362.3,506l3.8-12.5h1.1l-3.8,12.5H362.3z"/>
			<path d="M368.4,500.2c0-2.3,1.3-3.8,3.3-3.8s3.3,1.5,3.3,3.8c0,2.3-1.3,3.8-3.3,3.8S368.4,502.5,368.4,500.2z M373.6,500.8v-1.1
				c0-1.4-0.8-2.1-1.9-2.1s-1.9,0.7-1.9,2.1v1.1c0,1.4,0.8,2.1,1.9,2.1S373.6,502.2,373.6,500.8z"/>
			<path d="M381.2,502.7L381.2,502.7c-0.3,0.7-0.9,1.4-2.1,1.4c-1.5,0-2.4-1-2.4-2.8v-4.6h1.3v4.4c0,1.2,0.5,1.8,1.5,1.8
				c0.8,0,1.7-0.4,1.7-1.3v-5h1.3v7.3h-1.3V502.7z"/>
			<path d="M386.6,503.9c-0.9,0-1.4-0.5-1.4-1.4v-4.8H384v-1.1h0.6c0.5,0,0.6-0.2,0.6-0.7v-1.3h1.2v2h1.6v1.1h-1.6v5h1.4v1.1H386.6z
				"/>
			<path d="M389.8,496.6h1.3v1.2h0.1c0.3-0.9,1.1-1.4,2.1-1.4c1.8,0,2.9,1.4,2.9,3.8c0,2.4-1.1,3.8-2.9,3.8c-1,0-1.8-0.5-2.1-1.4
				h-0.1v4h-1.3V496.6z M394.8,500.8v-1.2c0-1.2-0.7-2-1.9-2c-1,0-1.8,0.6-1.8,1.3v2.7c0,0.8,0.8,1.3,1.8,1.3
				C394,502.9,394.8,502.1,394.8,500.8z"/>
			<path d="M402.4,502.7L402.4,502.7c-0.3,0.7-0.9,1.4-2.1,1.4c-1.5,0-2.4-1-2.4-2.8v-4.6h1.3v4.4c0,1.2,0.5,1.8,1.5,1.8
				c0.8,0,1.7-0.4,1.7-1.3v-5h1.3v7.3h-1.3V502.7z"/>
			<path d="M407.8,503.9c-0.9,0-1.4-0.5-1.4-1.4v-4.8h-1.2v-1.1h0.6c0.5,0,0.6-0.2,0.6-0.7v-1.3h1.2v2h1.6v1.1h-1.6v5h1.4v1.1H407.8
				z"/>
			<path d="M410.3,502.6l0.9-0.8c0.5,0.7,1.2,1.1,2.1,1.1c0.9,0,1.4-0.4,1.4-1.1c0-0.5-0.3-0.9-1.2-1l-0.6-0.1
				c-1.4-0.2-2.4-0.8-2.4-2.1c0-1.4,1.1-2.2,2.6-2.2c1.2,0,2,0.4,2.6,1.2l-0.8,0.8c-0.4-0.5-1-0.9-1.8-0.9c-0.9,0-1.3,0.4-1.3,1
				c0,0.6,0.4,0.9,1.3,1l0.6,0.1c1.6,0.2,2.3,0.9,2.3,2.1c0,1.4-1.1,2.3-2.8,2.3C411.9,504,411,503.5,410.3,502.6z"/>
			<path d="M416.9,506l3.8-12.5h1.1L418,506H416.9z"/>
			<path d="M422.8,502.6l0.9-0.8c0.5,0.7,1.2,1.1,2.1,1.1c0.9,0,1.4-0.4,1.4-1.1c0-0.5-0.3-0.9-1.2-1l-0.6-0.1
				c-1.4-0.2-2.4-0.8-2.4-2.1c0-1.4,1.1-2.2,2.6-2.2c1.2,0,2,0.4,2.6,1.2l-0.8,0.8c-0.4-0.5-1-0.9-1.8-0.9c-0.9,0-1.3,0.4-1.3,1
				c0,0.6,0.4,0.9,1.3,1l0.6,0.1c1.6,0.2,2.3,0.9,2.3,2.1c0,1.4-1.1,2.3-2.8,2.3C424.3,504,423.5,503.5,422.8,502.6z"/>
			<path d="M429.8,500.2c0-2.3,1.2-3.8,3.3-3.8c1.4,0,2.3,0.7,2.7,1.7l-1.1,0.5c-0.2-0.7-0.8-1.1-1.7-1.1c-1.2,0-1.9,0.9-1.9,2v1.3
				c0,1.2,0.6,2,1.9,2c0.9,0,1.5-0.4,1.8-1.2l1,0.6c-0.5,1.1-1.4,1.8-2.8,1.8C431,504,429.8,502.6,429.8,500.2z"/>
			<path d="M437.4,493.5h1.3v4.3h0.1c0.3-0.8,1-1.4,2-1.4c1.5,0,2.4,1,2.4,2.8v4.6h-1.3v-4.4c0-1.2-0.5-1.8-1.5-1.8
				c-0.9,0-1.7,0.4-1.7,1.3v5h-1.3V493.5z"/>
			<path d="M444.9,500.2c0-2.3,1.3-3.8,3.3-3.8c2,0,3.2,1.5,3.2,3.6v0.5h-5.1v0.3c0,1.2,0.7,2.1,2,2.1c0.9,0,1.6-0.4,2-1.2l0.8,0.7
				c-0.5,0.9-1.6,1.6-2.9,1.6C446.2,504,444.9,502.5,444.9,500.2z M446.3,499.5L446.3,499.5l3.7,0.1v-0.1c0-1.2-0.7-2-1.8-2
				C447.1,497.5,446.3,498.4,446.3,499.5z"/>
			<path d="M453.1,503.9v-7.3h1.3v1.2h0.1c0.3-0.7,1-1.4,1.9-1.4c1,0,1.8,0.4,2.2,1.5h0c0.3-0.8,1-1.5,2.2-1.5c1.5,0,2.3,1,2.3,2.8
				v4.6h-1.3v-4.4c0-1.2-0.5-1.8-1.5-1.8c-0.8,0-1.6,0.4-1.6,1.3v5h-1.3v-4.4c0-1.2-0.5-1.8-1.5-1.8c-0.8,0-1.6,0.4-1.6,1.3v5H453.1
				z"/>
			<path d="M470.7,503.9c-0.8,0-1.2-0.5-1.3-1.2h-0.1c-0.3,0.9-1.1,1.4-2.1,1.4c-1.5,0-2.4-0.8-2.4-2.2c0-1.4,1-2.2,3.1-2.2h1.4V499
				c0-1-0.5-1.5-1.6-1.5c-0.9,0-1.4,0.4-1.8,1l-0.8-0.7c0.4-0.8,1.3-1.4,2.6-1.4c1.8,0,2.8,0.9,2.8,2.5v3.8h0.8v1.1H470.7z
				 M469.3,501.7v-1.1h-1.4c-1.2,0-1.7,0.4-1.7,1v0.3c0,0.7,0.5,1.1,1.3,1.1C468.6,503,469.3,502.5,469.3,501.7z"/>
			<path d="M474.8,503.9c-0.9,0-1.4-0.5-1.4-1.4v-4.8h-1.2v-1.1h0.6c0.5,0,0.6-0.2,0.6-0.7v-1.3h1.2v2h1.6v1.1h-1.6v5h1.4v1.1H474.8
				z"/>
			<path d="M477.9,494.4v-0.2c0-0.4,0.2-0.7,0.8-0.7s0.8,0.3,0.8,0.7v0.2c0,0.4-0.2,0.7-0.8,0.7S477.9,494.8,477.9,494.4z
				 M478,496.6h1.3v7.3H478V496.6z"/>
			<path d="M481.1,500.2c0-2.3,1.2-3.8,3.3-3.8c1.4,0,2.3,0.7,2.7,1.7l-1.1,0.5c-0.2-0.7-0.8-1.1-1.7-1.1c-1.2,0-1.9,0.9-1.9,2v1.3
				c0,1.2,0.6,2,1.9,2c0.9,0,1.5-0.4,1.8-1.2l1,0.6c-0.5,1.1-1.4,1.8-2.8,1.8C482.3,504,481.1,502.6,481.1,500.2z"/>
			<path d="M488,502.6l0.9-0.8c0.5,0.7,1.2,1.1,2.1,1.1c0.9,0,1.4-0.4,1.4-1.1c0-0.5-0.3-0.9-1.2-1l-0.6-0.1
				c-1.4-0.2-2.4-0.8-2.4-2.1c0-1.4,1.1-2.2,2.6-2.2c1.2,0,2,0.4,2.6,1.2l-0.8,0.8c-0.4-0.5-1-0.9-1.8-0.9c-0.9,0-1.3,0.4-1.3,1
				c0,0.6,0.4,0.9,1.3,1l0.6,0.1c1.6,0.2,2.3,0.9,2.3,2.1c0,1.4-1.1,2.3-2.8,2.3C489.5,504,488.7,503.5,488,502.6z"/>
			<path d="M494.8,506.2v-1.1h7v1.1H494.8z"/>
			<path d="M502.7,496.6h1.3l0.8,3.1l0.7,3h0l0.8-3l0.9-3.1h1.2l0.9,3.1l0.8,3h0l0.7-3l0.8-3.1h1.2l-1.9,7.3h-1.5l-1-3.4l-0.6-2.1h0
				l-0.6,2.1l-1,3.4h-1.5L502.7,496.6z"/>
			<path d="M513.8,500.2c0-2.3,1.3-3.8,3.3-3.8s3.3,1.5,3.3,3.8c0,2.3-1.3,3.8-3.3,3.8S513.8,502.5,513.8,500.2z M519.1,500.8v-1.1
				c0-1.4-0.8-2.1-1.9-2.1c-1.1,0-1.9,0.7-1.9,2.1v1.1c0,1.4,0.8,2.1,1.9,2.1C518.3,502.9,519.1,502.2,519.1,500.8z"/>
			<path d="M522.2,503.9v-7.3h1.3v1.4h0.1c0.2-0.7,0.9-1.4,2-1.4h0.4v1.3h-0.6c-1.2,0-1.9,0.5-1.9,1.2v4.8H522.2z"/>
			<path d="M527.5,493.5h1.3v6.5h0.1l1-1.3l1.9-2.1h1.5l-2.6,2.8l2.9,4.5h-1.6l-2.3-3.6l-1,1.1v2.5h-1.3V493.5z"/>
			<path d="M534.3,502.6l0.9-0.8c0.5,0.7,1.2,1.1,2.1,1.1c0.9,0,1.4-0.4,1.4-1.1c0-0.5-0.3-0.9-1.2-1l-0.6-0.1
				c-1.4-0.2-2.4-0.8-2.4-2.1c0-1.4,1.1-2.2,2.6-2.2c1.2,0,2,0.4,2.6,1.2l-0.8,0.8c-0.4-0.5-1-0.9-1.8-0.9c-0.9,0-1.3,0.4-1.3,1
				c0,0.6,0.4,0.9,1.3,1l0.6,0.1c1.6,0.2,2.3,0.9,2.3,2.1c0,1.4-1.1,2.3-2.8,2.3C535.9,504,535,503.5,534.3,502.6z"/>
			<path d="M541.8,496.6h1.3v1.2h0.1c0.3-0.9,1.1-1.4,2.1-1.4c1.8,0,2.9,1.4,2.9,3.8c0,2.4-1.1,3.8-2.9,3.8c-1,0-1.8-0.5-2.1-1.4
				h-0.1v4h-1.3V496.6z M546.8,500.8v-1.2c0-1.2-0.7-2-1.9-2c-1,0-1.8,0.6-1.8,1.3v2.7c0,0.8,0.8,1.3,1.8,1.3
				C546.1,502.9,546.8,502.1,546.8,500.8z"/>
			<path d="M555.3,503.9c-0.8,0-1.2-0.5-1.3-1.2H554c-0.3,0.9-1.1,1.4-2.1,1.4c-1.5,0-2.4-0.8-2.4-2.2c0-1.4,1-2.2,3.1-2.2h1.4V499
				c0-1-0.5-1.5-1.6-1.5c-0.9,0-1.4,0.4-1.8,1l-0.8-0.7c0.4-0.8,1.3-1.4,2.6-1.4c1.8,0,2.8,0.9,2.8,2.5v3.8h0.8v1.1H555.3z
				 M553.9,501.7v-1.1h-1.4c-1.2,0-1.7,0.4-1.7,1v0.3c0,0.7,0.5,1.1,1.3,1.1C553.2,503,553.9,502.5,553.9,501.7z"/>
			<path d="M557.1,500.2c0-2.3,1.2-3.8,3.3-3.8c1.4,0,2.3,0.7,2.7,1.7l-1.1,0.5c-0.2-0.7-0.8-1.1-1.7-1.1c-1.2,0-1.9,0.9-1.9,2v1.3
				c0,1.2,0.6,2,1.9,2c0.9,0,1.5-0.4,1.8-1.2l1,0.6c-0.5,1.1-1.4,1.8-2.8,1.8C558.3,504,557.1,502.6,557.1,500.2z"/>
			<path d="M564.2,500.2c0-2.3,1.3-3.8,3.3-3.8c2,0,3.2,1.5,3.2,3.6v0.5h-5.1v0.3c0,1.2,0.7,2.1,2,2.1c0.9,0,1.6-0.4,2-1.2l0.8,0.7
				c-0.5,0.9-1.6,1.6-2.9,1.6C565.4,504,564.2,502.5,564.2,500.2z M565.5,499.5L565.5,499.5l3.7,0.1v-0.1c0-1.2-0.7-2-1.8-2
				C566.3,497.5,565.5,498.4,565.5,499.5z"/>
			<path d="M571.7,506.2v-1.1h7v1.1H571.7z"/>
			<path d="M580.2,494.4v-0.2c0-0.4,0.2-0.7,0.8-0.7c0.5,0,0.8,0.3,0.8,0.7v0.2c0,0.4-0.2,0.7-0.8,0.7
				C580.4,495.1,580.2,494.8,580.2,494.4z M580.3,496.6h1.3v7.3h-1.3V496.6z"/>
			<path d="M588.5,502.7L588.5,502.7c-0.4,0.9-1.1,1.4-2.1,1.4c-1.8,0-2.9-1.4-2.9-3.8c0-2.4,1.1-3.8,2.9-3.8c1,0,1.8,0.5,2.1,1.4
				h0.1v-4.3h1.3v10.4h-1.3V502.7z M588.5,501.6v-2.7c0-0.8-0.8-1.3-1.8-1.3c-1.2,0-1.9,0.8-1.9,2v1.2c0,1.2,0.7,2,1.9,2
				C587.7,502.9,588.5,502.3,588.5,501.6z"/>
		</g>
	</g>
</g>
<g id="Layer_9">
	<text transform="matrix(1 0 0 1 533.1046 548.0599)" class="st6 st7">Custom-apache (member architecture)</text>
</g>
</svg>
