<svg xmlns="http://www.w3.org/2000/svg" viewBox="0 0 1335.05 371.29"><defs><style>.cls-1,.cls-10{fill:#001d6c;}.cls-1,.cls-2,.cls-3{stroke:#fff;stroke-width:5px;}.cls-1,.cls-11,.cls-2,.cls-3,.cls-4,.cls-6,.cls-9{stroke-miterlimit:10;}.cls-2{fill:#4589ff;}.cls-3,.cls-5{fill:#0043ce;}.cls-11,.cls-4,.cls-6,.cls-9{fill:none;stroke-width:23px;}.cls-4{stroke:#0043ce;}.cls-6{stroke:#a6c8ff;}.cls-7{fill:#a6c8ff;}.cls-8{opacity:0.5;}.cls-9{stroke:#001d6c;}.cls-11{stroke:#edf5ff;}.cls-12{fill:#edf5ff;}.cls-13{font-size:14px;fill:#fff;font-family:IBMPlexSans-SemiBold, IBM Plex Sans;font-weight:600;}.cls-14{letter-spacing:-0.01em;}.cls-15{letter-spacing:0em;}.cls-16{letter-spacing:0em;}.cls-17{letter-spacing:-0.01em;}.cls-18{letter-spacing:0em;}</style></defs><g id="Layer_4" data-name="Layer 4"><path class="cls-1" d="M661.18,188.73l129.67,74.81a149.67,149.67,0,0,1-259.17,0l129.5-74.77L531.68,263.5"/><path class="cls-2" d="M661.28,188.68,531.68,263.5A149.67,149.67,0,0,1,661.28,39.05v0"/><path class="cls-3" d="M661.28,188.73V39.05A149.66,149.66,0,0,1,790.85,263.54L661.28,188.73l129.57,74.81"/><path class="cls-4" d="M667.11,33C766.87,42.59,846.3,138.5,807.57,243.27"/><polygon class="cls-5" points="834.46 250.94 783.25 228.56 797.67 265.35 834.46 250.94"/><path class="cls-6" d="M790.85,270.29C715.18,351,627.42,364.86,543.79,284.9"/><polygon class="cls-7" points="526.51 307.01 566.5 267.98 526.99 267.5 526.51 307.01"/><g class="cls-8"><path class="cls-9" d="M790.85,270.29C715.18,351,627.42,364.86,543.79,284.9"/><polygon class="cls-10" points="526.5 307.01 566.5 267.98 526.99 267.5 526.5 307.01"/></g><path class="cls-11" d="M523.8,260.77C491.27,155,522.83,72,633.76,39.05"/><polygon class="cls-12" points="623.15 13.07 637.18 67.17 657.2 33.11 623.15 13.07"/><g class="cls-8"><path class="cls-6" d="M523.8,260.77C491.27,155,522.83,72,633.76,39.05"/><polygon class="cls-7" points="623.15 13.07 637.18 67.17 657.2 33.11 623.15 13.07"/></g><g class="cls-8"><path class="cls-11" d="M667.11,33.13c99.76,9.63,179.19,105.54,140.46,210.31"/><polygon class="cls-12" points="834.46 251.11 783.25 228.73 797.67 265.52 834.46 251.11"/></g></g><g id="Layer_5" data-name="Layer 5"><text class="cls-13" transform="translate(696.52 146.36)">Depl<tspan class="cls-14" x="29.97" y="0">o</tspan><tspan x="37.73" y="0">yment</tspan></text><text class="cls-13" transform="translate(626.22 263.54)">Complian<tspan class="cls-15" x="61.74" y="0">c</tspan><tspan x="68.85" y="0">e</tspan></text><text class="cls-13" transform="translate(557.07 146.36)">In<tspan class="cls-16" x="14.15" y="0">t</tspan><tspan x="19.33" y="0">eg</tspan><tspan class="cls-17" x="34.78" y="0">r</tspan><tspan class="cls-18" x="40.12" y="0">a</tspan><tspan x="47.89" y="0">tion</tspan></text></g></svg>