<?xml version="1.0" encoding="utf-8"?>
<!-- Generator: Adobe Illustrator 26.0.1, SVG Export Plug-In . SVG Version: 6.00 Build 0)  -->
<svg version="1.1" xmlns="http://www.w3.org/2000/svg" xmlns:xlink="http://www.w3.org/1999/xlink" x="0px" y="0px"
	 viewBox="0 0 1108.9 360.4" style="enable-background:new 0 0 1108.9 360.4;" xml:space="preserve">
<style type="text/css">
	.st0{fill:none;stroke:url(#SVGID_1_);stroke-width:70;stroke-miterlimit:10;}
	.st1{fill:none;stroke:url(#SVGID_00000089551298508702836260000005653292090755070096_);stroke-width:70;stroke-miterlimit:10;}
	.st2{fill:none;stroke:url(#SVGID_00000012467600210600067600000013214118594318442916_);stroke-width:70;stroke-miterlimit:10;}
	.st3{fill:#3553A4;}
	.st4{font-family:'IBMPlexSans-SemiBold';}
	.st5{font-size:16px;}
	.st6{fill:#4167B1;}
	.st7{fill:#FFFFFF;}
	.st8{font-size:14px;}
</style>
<g id="Background">
</g>
<g id="Text">
	
		<linearGradient id="SVGID_1_" gradientUnits="userSpaceOnUse" x1="545.4022" y1="406.8928" x2="595.4283" y2="406.8928" gradientTransform="matrix(-1 0 0 -1 1120.9524 544.1316)">
		<stop  offset="0.1" style="stop-color:#1DBCB9"/>
		<stop  offset="0.9" style="stop-color:#4267B1"/>
	</linearGradient>
	<line class="st0" x1="550.8" y1="137.5" x2="550.3" y2="137"/>
	
		<linearGradient id="SVGID_00000137106037138077838220000017389152920871563174_" gradientUnits="userSpaceOnUse" x1="423.7904" y1="-25.6134" x2="961.8901" y2="-25.6134" gradientTransform="matrix(1 0 0 1 -142.5675 162.5897)">
		<stop  offset="5.117394e-02" style="stop-color:#1DBCB9"/>
		<stop  offset="1" style="stop-color:#4267B1"/>
	</linearGradient>
	
		<path style="fill:none;stroke:url(#SVGID_00000137106037138077838220000017389152920871563174_);stroke-width:70;stroke-miterlimit:10;" d="
		M777.3,100.4c14.1,35.1,7,77.1-21.1,105.2c-43.1,43.1-108.6,26.8-135.3,1.9c-0.7-0.7-1.4-1.3-1.9-1.9
		c-22.9-22.9-45.8-45.7-68.6-68.6c-22.9-22.9-45.8-45.8-68.6-68.6c-0.6-0.6-1.2-1.2-1.9-1.9c-27.8-25.9-92.8-40.6-135.3,1.9
		c-37.5,37.5-37.6,99.7,0,137.3c42.6,42.5,107.6,27.7,135.4,1.8c0.6-0.6,1.2-1.2,1.9-1.8l68.6-68.6v0l68.6-68.6
		c0.7-0.7,1.3-1.3,1.9-1.8c27.8-25.9,92.8-40.7,135.4,1.8C765.5,77.7,772.6,88.7,777.3,100.4"/>
	<text transform="matrix(1 0 0 1 378.4445 142.1008)" class="st3 st4 st5">Continuous</text>
	<text transform="matrix(1 0 0 1 639.2152 142.1005)" class="st3 st4 st5">Compliance</text>
	<g>
		<path class="st6" d="M391.8,349.1H198.4c-10,0-18.1-8.1-18.1-18.1v-27.5c0-10,8.1-18.1,18.1-18.1h193.4c10,0,18.1,8.1,18.1,18.1
			V331C409.8,341,401.7,349.1,391.8,349.1z"/>
		<text transform="matrix(1 0 0 1 204.3477 321.3494)" class="st7 st4 st8">1. Review available controls</text>
	</g>
	<g>
		<path class="st6" d="M646.8,349.1H453.4c-10,0-18.1-8.1-18.1-18.1v-27.5c0-10,8.1-18.1,18.1-18.1h193.4c10,0,18.1,8.1,18.1,18.1
			V331C664.8,341,656.7,349.1,646.8,349.1z"/>
		<text transform="matrix(1 0 0 1 471.0866 314.0419)"><tspan x="0" y="0" class="st7 st4 st8">2. Deploy infrastructure </tspan><tspan x="35.5" y="16.8" class="st7 st4 st8">and app code</tspan></text>
	</g>
	<g>
		<path class="st6" d="M901.7,348.7H708.3c-10,0-18.1-8.1-18.1-18.1v-27.5c0-10,8.1-18.1,18.1-18.1h193.4c10,0,18.1,8.1,18.1,18.1
			v27.5C919.8,340.6,911.7,348.7,901.7,348.7z"/>
		<text transform="matrix(1 0 0 1 710.7712 320.9228)" class="st7 st4 st8">3. Validate against standards</text>
	</g>
</g>
</svg>
