<?xml version="1.0" encoding="utf-8"?>
<!-- Generator: Adobe Illustrator 27.0.1, SVG Export Plug-In . SVG Version: 6.00 Build 0)  -->
<svg version="1.1" xmlns="http://www.w3.org/2000/svg" xmlns:xlink="http://www.w3.org/1999/xlink" x="0px" y="0px"
	 viewBox="0 0 580 435" style="enable-background:new 0 0 580 435;" xml:space="preserve">
<style type="text/css">
	.st0{fill:#001D6C;}
	.st1{fill:#FFFFFF;}
	.st2{fill:#EDF5FF;}
	.st3{fill:#F6F2FF;}
	.st4{fill:#FFFFFF;stroke:#001D6C;stroke-miterlimit:10;stroke-dasharray:3;}
	.st5{fill:#FFFFFF;stroke:#001D6C;stroke-width:0.5;stroke-miterlimit:10;}
	.st6{font-family:'IBMPlexSans-SemiBold';}
	.st7{font-size:14px;}
	.st8{font-size:12px;}
	.st9{font-family:'IBMPlexSans-LightItalic';}
	.st10{font-family:'IBMPlexSans-Text';}
</style>
<g id="Graphics">
	<path class="st0" d="M17.6,80V19.2c0-4.7,3.7-8.6,8.3-8.6h146.3c4.6,0,8.3,3.8,8.3,8.6v46.9l0-1.9h375.2c4.6,0,8.3,3.8,8.3,8.6
		v342.5c0,4.7-3.7,8.6-8.3,8.6H25.9c-4.6,0-8.3-3.8-8.3-8.6V72.8"/>
	<line class="st1" x1="545" y1="149.1" x2="545" y2="140.2"/>
	<path class="st1" d="M361.4,125.8H219.3c-3.2,0-5.8-2.6-5.8-5.8V86.6c0-3.2,2.6-5.8,5.8-5.8h142.2c3.2,0,5.8,2.6,5.8,5.8v33.4
		C367.2,123.2,364.6,125.8,361.4,125.8z"/>
	<path class="st1" d="M182.5,125.8H40.4c-3.2,0-5.8-2.6-5.8-5.8V86.6c0-3.2,2.6-5.8,5.8-5.8h142.2c3.2,0,5.8,2.6,5.8,5.8v33.4
		C188.3,123.2,185.7,125.8,182.5,125.8z"/>
	<path class="st1" d="M392.4,145V87.5c0-3.7,2.6-6.7,5.8-6.7h142.2c3.2,0,5.8,3,5.8,6.7v60l0-4V401c0,3.6-3.5,6.5-7.8,6.5h-496
		c-4.3,0-7.8-2.9-7.8-6.5V143.5c0-3.6,3.5-6.5,7.8-6.5h351.2"/>
	<g>
		<rect x="42.6" y="32.3" class="st1" width="2" height="4"/>
		<rect x="42.6" y="38.3" class="st1" width="2" height="4"/>
		<rect x="48.6" y="32.3" class="st1" width="2" height="4"/>
		<rect x="48.6" y="38.3" class="st1" width="2" height="4"/>
		<rect x="42.6" y="44.3" class="st1" width="2" height="4"/>
		<rect x="48.6" y="44.3" class="st1" width="2" height="4"/>
		<path class="st1" d="M64.6,38.3c0-1.1-0.9-2-2-2h-6v-8c0-1.1-0.9-2-2-2h-16c-1.1,0-2,0.9-2,2v26h28V38.3z M38.6,28.3h16v24h-16
			V28.3z M56.6,52.3v-14h6v14H56.6z"/>
	</g>
	<path class="st2" d="M522.4,294.6H55.2c-7,0-12.7-5.7-12.7-12.7v-122c0-7,5.7-12.7,12.7-12.7h467.2c7,0,12.7,5.7,12.7,12.7v122
		C535.1,288.8,529.4,294.6,522.4,294.6z"/>
	<path class="st2" d="M271.4,398.1H55.2c-7,0-12.7-5.7-12.7-12.7v-68.8c0-7,5.7-12.7,12.7-12.7h216.2c7,0,12.7,5.7,12.7,12.7v68.8
		C284.1,392.4,278.4,398.1,271.4,398.1z"/>
	<path class="st2" d="M522.4,398.1H306.2c-7,0-12.7-5.7-12.7-12.7v-69.2c0-7,5.7-12.7,12.7-12.7h216.2c7,0,12.7,5.7,12.7,12.7v69.2
		C535.1,392.4,529.4,398.1,522.4,398.1z"/>
	<path class="st1" d="M520,285.1H57.8c-4.7,0-8.6-3.8-8.6-8.6v-94.8c0-4.7,3.8-8.6,8.6-8.6H520c4.7,0,8.6,3.8,8.6,8.6v94.8
		C528.5,281.3,524.7,285.1,520,285.1z"/>
	<path class="st3" d="M276.2,272.8H66.7c-4.9,0-8.8-3.9-8.8-8.8v-56.2c0-4.9,3.9-8.8,8.8-8.8h209.5c4.9,0,8.8,3.9,8.8,8.8V264
		C285,268.9,281.1,272.8,276.2,272.8z"/>
	<path class="st4" d="M159.7,260H71.5c-4.3,0-7.8-3.5-7.8-7.8v-16.1c0-4.3,3.5-7.8,7.8-7.8h88.2c4.3,0,7.8,3.5,7.8,7.8v16.1
		C167.5,256.5,164,260,159.7,260z"/>
	<path class="st4" d="M269.9,260h-88.2c-4.3,0-7.8-3.5-7.8-7.8v-16.1c0-4.3,3.5-7.8,7.8-7.8h88.2c4.3,0,7.8,3.5,7.8,7.8v16.1
		C277.7,256.5,274.2,260,269.9,260z"/>
	<path class="st3" d="M510.7,272.8H301.2c-4.9,0-8.8-3.9-8.8-8.8v-56.2c0-4.9,3.9-8.8,8.8-8.8h209.5c4.9,0,8.8,3.9,8.8,8.8V264
		C519.5,268.9,515.6,272.8,510.7,272.8z"/>
	<path class="st4" d="M394.2,260H306c-4.3,0-7.8-3.5-7.8-7.8v-16.1c0-4.3,3.5-7.8,7.8-7.8h88.2c4.3,0,7.8,3.5,7.8,7.8v16.1
		C402,256.5,398.5,260,394.2,260z"/>
	<path class="st4" d="M504.4,260h-88.2c-4.3,0-7.8-3.5-7.8-7.8v-16.1c0-4.3,3.5-7.8,7.8-7.8h88.2c4.3,0,7.8,3.5,7.8,7.8v16.1
		C512.2,256.5,508.7,260,504.4,260z"/>
	<path class="st5" d="M148.8,373.9H60.5c-4.3,0-7.8-3.5-7.8-7.8v-16.1c0-4.3,3.5-7.8,7.8-7.8h88.2c4.3,0,7.8,3.5,7.8,7.8V366
		C156.6,370.4,153.1,373.9,148.8,373.9z"/>
	<path class="st5" d="M265.6,373.9h-88.2c-4.3,0-7.8-3.5-7.8-7.8v-16.1c0-4.3,3.5-7.8,7.8-7.8h88.2c4.3,0,7.8,3.5,7.8,7.8V366
		C273.4,370.4,269.9,373.9,265.6,373.9z"/>
	<path class="st5" d="M402.6,373.9h-88.2c-4.3,0-7.8-3.5-7.8-7.8v-16.1c0-4.3,3.5-7.8,7.8-7.8h88.2c4.3,0,7.8,3.5,7.8,7.8V366
		C410.4,370.4,406.9,373.9,402.6,373.9z"/>
	<path class="st5" d="M516.8,373.9h-88.2c-4.3,0-7.8-3.5-7.8-7.8v-16.1c0-4.3,3.5-7.8,7.8-7.8h88.2c4.3,0,7.8,3.5,7.8,7.8V366
		C524.6,370.4,521.1,373.9,516.8,373.9z"/>
</g>
<g id="Text">
	<text transform="matrix(1 0 0 1 76.8283 51.5444)" class="st1 st6 st7">Enterprise</text>
	<text transform="matrix(1 0 0 1 46.5678 109.9858)" class="st0 st6 st8">Administration account</text>
	<text transform="matrix(1 0 0 1 234.5761 109.9856)" class="st0 st6 st8">BU account group A</text>
	<text transform="matrix(1 0 0 1 413.363 109.9858)" class="st0 st6 st8">BU account group B</text>
	<text transform="matrix(1 0 0 1 51.4934 164.2435)" class="st0 st6 st8">Business unit group B administration account</text>
	<text transform="matrix(1 0 0 1 60.9305 191.3195)" class="st0 st6 st8">Project A</text>
	<text transform="matrix(1 0 0 1 65.0173 217.5595)" class="st0 st6 st8">Configuration 1</text>
	<text transform="matrix(1 0 0 1 83.8928 248.2872)" class="st0 st9 st8">Resource A</text>
	<text transform="matrix(1 0 0 1 194.1054 248.2871)" class="st0 st9 st8">Resource B</text>
	<text transform="matrix(1 0 0 1 299.5097 217.5596)" class="st0 st6 st8">Configuration 2</text>
	<text transform="matrix(1 0 0 1 318.3852 248.3591)" class="st0 st9 st8">Resource C</text>
	<text transform="matrix(1 0 0 1 428.5978 248.2872)" class="st0 st9 st8">Resource D</text>
	<text transform="matrix(1 0 0 1 72.9779 362.1019)" class="st0 st10 st8">Resource A</text>
	<text transform="matrix(1 0 0 1 189.8327 362.1016)" class="st0 st10 st8">Resource B</text>
	<text transform="matrix(1 0 0 1 326.7731 362.1737)" class="st0 st10 st8">Resource C</text>
	<text transform="matrix(1 0 0 1 440.9857 362.1018)" class="st0 st10 st8">Resource D</text>
	<text transform="matrix(1 0 0 1 56.1328 328.1517)" class="st0 st6 st8">Workload account A</text>
	<text transform="matrix(1 0 0 1 303.6743 326.7075)" class="st0 st6 st8">Workload account B</text>
</g>
</svg>
