<?xml version="1.0" encoding="UTF-8"?>
<svg xmlns="http://www.w3.org/2000/svg" viewBox="0 0 978.5 577">
  <defs>
    <style>
      .cls-1, .cls-2, .cls-3, .cls-4, .cls-5, .cls-6, .cls-7 {
        stroke: #000;
        stroke-miterlimit: 10;
      }

      .cls-1, .cls-2, .cls-3, .cls-5, .cls-6, .cls-7 {
        fill: none;
      }

      .cls-1, .cls-8, .cls-9 {
        font-family: IBMPlexSans-Text, 'IBM Plex Sans';
        font-size: 14px;
      }

      .cls-2 {
        stroke-dasharray: 0 0 7.8803 7.8803;
      }

      .cls-10, .cls-4, .cls-9 {
        fill: #fff;
      }

      .cls-3 {
        stroke-dasharray: 0 0 12.0915 12.0915;
      }

      .cls-6 {
        stroke-dasharray: 0 0 12.2838 12.2838;
      }

      .cls-7 {
        stroke-dasharray: 0 0 12.643 12.643;
      }
    </style>
  </defs>
  <g id="Layer_1" data-name="Layer 1">
    <rect class="cls-4" x="218" y=".5" width="760" height="576"/>
    <rect class="cls-4" x="430.5" y="388" width="368" height="130"/>
    <rect class="cls-4" x="230.5" y="359" width="351" height="59"/>
    <g>
      <line class="cls-5" x1="748.5044" y1="403.7077" x2="742.5044" y2="403.6785"/>
      <line class="cls-3" x1="730.4131" y1="403.6194" x2="615.5455" y2="403.0593"/>
      <line class="cls-5" x1="609.4999" y1="403.0298" x2="603.5" y2="403.0005"/>
    </g>
  </g>
  <g id="Layer_2" data-name="Layer 2">
    <text class="cls-9" transform="translate(237.9487 16.8589)"><tspan x="0" y="0">Deployable architecture stack </tspan></text>
    <text class="cls-8" transform="translate(237.9487 16.8589)"><tspan x="0" y="0">Deployable architecture stack </tspan></text>
    <text class="cls-1" transform="translate(237.9487 16.8589)"><tspan x="0" y="0">Deployable architecture stack </tspan></text>
  </g>
  <g id="Layer_3" data-name="Layer 3">
    <rect class="cls-4" x=".5" y="58" width="267" height="56"/>
    <rect class="cls-4" x="430.5" y="155" width="368" height="130"/>
    <rect class="cls-4" x="613.5" y="121" width="267" height="54"/>
    <rect class="cls-4" x="614.5" y="258" width="267" height="44"/>
    <rect class="cls-4" x="615.5" y="506" width="325" height="44"/>
  </g>
  <g id="Layer_5" data-name="Layer 5">
    <g>
      <line class="cls-10" x1="268" y1="79.5002" x2="734.5" y2="79.0002"/>
      <g>
        <line class="cls-5" x1="268" y1="79.5002" x2="274" y2="79.4938"/>
        <line class="cls-6" x1="286.2838" y1="79.4806" x2="722.3582" y2="79.0132"/>
        <line class="cls-5" x1="728.5" y1="79.0067" x2="734.5" y2="79.0002"/>
      </g>
    </g>
    <line class="cls-5" x1="724.5" y1="110" x2="735.5" y2="119"/>
    <line class="cls-5" x1="735.5" y1="119" x2="745.5" y2="110"/>
    <g>
      <line class="cls-10" x1="735.3316" y1="114.0194" x2="735.3316" y2="78.3785"/>
      <g>
        <line class="cls-5" x1="735.3315" y1="114.0194" x2="735.3315" y2="108.0194"/>
        <line class="cls-2" x1="735.3315" y1="100.1391" x2="735.3315" y2="88.3186"/>
        <line class="cls-5" x1="735.3315" y1="84.3785" x2="735.3315" y2="78.3785"/>
      </g>
    </g>
  </g>
  <g id="Layer_4" data-name="Layer 4">
    <g>
      <path d="M12.6064,71.6011l.9668-.8687c.686,.8823,1.4985,1.3589,2.5913,1.3589,1.3306,0,2.0449-.6865,2.0449-1.7231,0-.8545-.4619-1.3027-1.6807-1.5688l-.8267-.168c-1.835-.3784-2.8013-1.2046-2.8013-2.7314,0-1.7368,1.3164-2.7314,3.3198-2.7314,1.4707,0,2.521,.5464,3.2637,1.5547l-.9946,.7983c-.5186-.7144-1.2329-1.1626-2.3394-1.1626-1.1904,0-1.9048,.5186-1.9048,1.4849,0,.8687,.5459,1.2607,1.709,1.5127l.8262,.1685c1.9189,.4199,2.7734,1.2744,2.7734,2.7734,0,1.8071-1.2744,2.9834-3.4458,2.9834-1.5967,0-2.7173-.644-3.502-1.6807Z"/>
      <path d="M23.1919,73.1138c-.8965,0-1.373-.5322-1.373-1.3726v-4.7769h-1.1626v-1.1064h.6445c.4902,0,.644-.1821,.644-.6724v-1.3306h1.1768v2.0029h1.5552v1.1064h-1.5552v5.043h1.4429v1.1064h-1.3726Z"/>
      <path d="M31.6919,73.1138c-.7988,0-1.1768-.5044-1.2749-1.2046h-.0698c-.2944,.8965-1.0649,1.3726-2.1016,1.3726-1.5127,0-2.395-.8403-2.395-2.1709,0-1.4009,1.0225-2.1572,3.0957-2.1572h1.3726v-.6587c0-.9663-.5181-1.5127-1.6108-1.5127-.8545,0-1.4009,.4204-1.7788,1.0366l-.7847-.7144c.4346-.7842,1.2891-1.4146,2.6338-1.4146,1.8066,0,2.8433,.9243,2.8433,2.4932v3.8242h.8125v1.1064h-.7422Zm-1.373-2.1294v-1.1201h-1.3867c-1.1904,0-1.7227,.3638-1.7227,1.0361v.2803c0,.6724,.5181,1.0508,1.3306,1.0508,1.0225,0,1.7788-.5186,1.7788-1.2471Z"/>
      <path d="M33.4663,69.4858c0-2.3252,1.1904-3.7959,3.2637-3.7959,1.4287,0,2.3252,.7002,2.7456,1.7368l-1.0786,.5322c-.2383-.7144-.8267-1.1484-1.667-1.1484-1.2466,0-1.877,.8545-1.877,2.0449v1.2607c0,1.1904,.6304,2.0449,1.877,2.0449,.8823,0,1.4849-.4482,1.8491-1.2324l.9526,.5884c-.4624,1.0923-1.415,1.7646-2.8018,1.7646-2.0732,0-3.2637-1.4707-3.2637-3.7959Z"/>
      <path d="M41.0542,62.748h1.3027v6.4575h.0703l1.0366-1.2744,1.8906-2.0732h1.541l-2.5771,2.8013,2.9136,4.4546h-1.5688l-2.2695-3.6138-1.0366,1.1064v2.5073h-1.3027v-10.3657Z"/>
      <path d="M53.459,73.1138l-2.5073-7.2559h1.3027l1.1904,3.4736,.7568,2.5073h.084l.77-2.5073,1.2051-3.4736h1.2466l-2.5215,7.2559h-1.5269Z"/>
      <path d="M64.1572,73.1138c-.7988,0-1.1768-.5044-1.2749-1.2046h-.0698c-.2944,.8965-1.0649,1.3726-2.1016,1.3726-1.5127,0-2.395-.8403-2.395-2.1709,0-1.4009,1.0225-2.1572,3.0957-2.1572h1.3726v-.6587c0-.9663-.5181-1.5127-1.6108-1.5127-.8545,0-1.4009,.4204-1.7788,1.0366l-.7847-.7144c.4346-.7842,1.2891-1.4146,2.6338-1.4146,1.8066,0,2.8433,.9243,2.8433,2.4932v3.8242h.8125v1.1064h-.7422Zm-1.373-2.1294v-1.1201h-1.3867c-1.1904,0-1.7227,.3638-1.7227,1.0361v.2803c0,.6724,.5181,1.0508,1.3306,1.0508,1.0225,0,1.7788-.5186,1.7788-1.2471Z"/>
      <path d="M66.4497,73.1138v-7.2559h1.3027v1.3867h.0703c.2378-.7144,.8823-1.3867,2.0449-1.3867h.4341v1.3027h-.644c-1.2046,0-1.9053,.4761-1.9053,1.1904v4.7627h-1.3027Z"/>
      <path d="M71.5737,63.6309v-.1963c0-.4204,.2383-.7144,.7847-.7144s.7842,.2939,.7842,.7144v.1963c0,.4199-.2378,.7144-.7842,.7144s-.7847-.2944-.7847-.7144Zm.126,2.2271h1.3027v7.2559h-1.3027v-7.2559Z"/>
      <path d="M80.5786,73.1138c-.7988,0-1.1768-.5044-1.2749-1.2046h-.0698c-.2944,.8965-1.0649,1.3726-2.1016,1.3726-1.5127,0-2.395-.8403-2.395-2.1709,0-1.4009,1.0225-2.1572,3.0957-2.1572h1.3726v-.6587c0-.9663-.5181-1.5127-1.6108-1.5127-.8545,0-1.4009,.4204-1.7788,1.0366l-.7847-.7144c.4346-.7842,1.2891-1.4146,2.6338-1.4146,1.8066,0,2.8433,.9243,2.8433,2.4932v3.8242h.8125v1.1064h-.7422Zm-1.373-2.1294v-1.1201h-1.3867c-1.1904,0-1.7227,.3638-1.7227,1.0361v.2803c0,.6724,.5181,1.0508,1.3306,1.0508,1.0225,0,1.7788-.5186,1.7788-1.2471Z"/>
      <path d="M82.8716,62.748h1.3027v4.3003h.0562c.3364-.8965,1.0928-1.3584,2.0874-1.3584,1.8208,0,2.9131,1.4424,2.9131,3.7959s-1.0923,3.7959-2.9131,3.7959c-.9946,0-1.751-.4619-2.0874-1.3584h-.0562v1.1904h-1.3027v-10.3657Zm4.9727,7.354v-1.2324c0-1.2188-.7422-2.0454-1.9048-2.0454-.9805,0-1.7651,.5605-1.7651,1.3311v2.6611c0,.7705,.7847,1.3311,1.7651,1.3311,1.1626,0,1.9048-.8267,1.9048-2.0454Z"/>
      <path d="M92.4199,73.1138c-.8965,0-1.3589-.5322-1.3589-1.3306v-9.0352h1.3027v9.2593h1.0366v1.1064h-.9805Z"/>
      <path d="M94.4351,69.4858c0-2.2974,1.2744-3.7959,3.292-3.7959,2.0308,0,3.1797,1.5405,3.1797,3.5718v.5464h-5.1128v.2939c0,1.2046,.7422,2.0732,2.0449,2.0732,.9106,0,1.5688-.4341,1.9609-1.1768l.8403,.7144c-.5039,.9385-1.5547,1.5688-2.9131,1.5688-2.0176,0-3.292-1.4985-3.292-3.7959Zm1.3589-.6865v.0981h3.7261v-.1401c0-1.2046-.7007-2.0171-1.793-2.0171-1.1348,0-1.9331,.8687-1.9331,2.0591Z"/>
      <path d="M102.0088,71.8809l.8828-.7563c.5464,.6865,1.2183,1.0786,2.1011,1.0786,.9243,0,1.4287-.4062,1.4287-1.0786,0-.5322-.2803-.9102-1.1626-1.0366l-.6162-.0977c-1.3867-.1963-2.3535-.7705-2.3535-2.1152,0-1.4287,1.1064-2.1851,2.6333-2.1851,1.2329,0,2.0034,.4341,2.6196,1.1626l-.8267,.7842c-.3501-.4619-.9663-.8682-1.835-.8682-.8823,0-1.3306,.4062-1.3306,1.0225,0,.644,.4204,.9102,1.2607,1.0366l.6162,.0977c1.5972,.2383,2.2554,.939,2.2554,2.0591,0,1.415-1.0645,2.2974-2.7734,2.2974-1.3447,0-2.2275-.5464-2.8999-1.4009Z"/>
      <path d="M109.5552,66.7686v-.2104c0-.5044,.2803-.8682,.9243-.8682,.6445,0,.9248,.3638,.9248,.8682v.2104c0,.5039-.2803,.8682-.9248,.8682-.644,0-.9243-.3643-.9243-.8682Zm0,5.645v-.2104c0-.5039,.2803-.8682,.9243-.8682,.6445,0,.9248,.3643,.9248,.8682v.2104c0,.5039-.2803,.8682-.9248,.8682-.644,0-.9243-.3643-.9243-.8682Z"/>
      <path d="M13.0547,85.9072v-.4062c0-.8682,.4902-1.5264,1.793-1.5264s1.793,.6582,1.793,1.5264v.4062c0,.8687-.4902,1.5269-1.793,1.5269s-1.793-.6582-1.793-1.5269Z"/>
      <path d="M31.293,89.9136v-9.7773h4.0342c1.7651,0,2.7734,1.1348,2.7734,2.8716s-1.0083,2.8716-2.7734,2.8716h-2.6753v4.0342h-1.3589Zm1.3589-5.2388h2.6191c.8687,0,1.3867-.4766,1.3867-1.3169v-.7002c0-.8403-.5181-1.3169-1.3867-1.3169h-2.6191v3.334Z"/>
      <path d="M39.8047,89.9136v-7.2559h1.3027v1.3867h.0703c.2378-.7144,.8823-1.3867,2.0449-1.3867h.4341v1.3027h-.644c-1.2046,0-1.9053,.4761-1.9053,1.1904v4.7627h-1.3027Z"/>
      <path d="M44.5366,86.2856c0-2.2974,1.2744-3.7959,3.292-3.7959,2.0308,0,3.1797,1.5405,3.1797,3.5718v.5464h-5.1128v.2939c0,1.2046,.7422,2.0732,2.0449,2.0732,.9106,0,1.5688-.4341,1.9609-1.1768l.8403,.7144c-.5039,.9385-1.5547,1.5688-2.9131,1.5688-2.0176,0-3.292-1.4985-3.292-3.7959Zm1.3589-.6865v.0981h3.7261v-.1401c0-1.2046-.7007-2.0171-1.793-2.0171-1.1348,0-1.9331,.8687-1.9331,2.0591Z"/>
      <path d="M53.1748,83.7642h-1.1626v-1.1064h1.1626v-1.3447c0-1.0645,.5601-1.7651,1.6948-1.7651h1.1348v1.1069h-1.5269v2.0029h4.1602v7.2559h-1.3027v-6.1494h-2.8574v6.1494h-1.3027v-6.1494Zm4.0342-3.3335v-.1963c0-.4204,.2378-.7144,.7842-.7144s.7847,.2939,.7847,.7144v.1963c0,.4199-.2383,.7144-.7847,.7144s-.7842-.2944-.7842-.7144Z"/>
      <path d="M62.7095,86.2578l-2.5356-3.6001h1.5132l1.7505,2.6191h.0425l1.793-2.6191h1.4287l-2.5356,3.5439,2.5776,3.7119h-1.5132l-1.793-2.7456h-.042l-1.8906,2.7456h-1.4292l2.6338-3.6558Z"/>
      <path d="M73.0688,89.9136l-2.5073-7.2559h1.3027l1.1904,3.4736,.7563,2.5073h.0845l.77-2.5073,1.2051-3.4736h1.2466l-2.5215,7.2559h-1.5269Z"/>
      <path d="M83.7671,89.9136c-.7988,0-1.1768-.5044-1.2749-1.2046h-.0698c-.2944,.8965-1.0649,1.3726-2.1016,1.3726-1.5127,0-2.395-.8403-2.395-2.1709,0-1.4009,1.0225-2.1572,3.0957-2.1572h1.3726v-.6587c0-.9663-.5181-1.5127-1.6108-1.5127-.8545,0-1.4009,.4204-1.7788,1.0366l-.7847-.7144c.4346-.7842,1.2891-1.4146,2.6338-1.4146,1.8066,0,2.8433,.9243,2.8433,2.4932v3.8242h.8125v1.1064h-.7422Zm-1.373-2.1294v-1.1201h-1.3867c-1.1904,0-1.7227,.3638-1.7227,1.0361v.2803c0,.6724,.5181,1.0508,1.3306,1.0508,1.0225,0,1.7788-.5186,1.7788-1.2471Z"/>
      <path d="M86.0596,89.9136v-7.2559h1.3027v1.3867h.0703c.2378-.7144,.8823-1.3867,2.0449-1.3867h.4341v1.3027h-.644c-1.2046,0-1.9053,.4761-1.9053,1.1904v4.7627h-1.3027Z"/>
      <path d="M91.1836,80.4307v-.1963c0-.4204,.2383-.7144,.7847-.7144,.5459,0,.7842,.2939,.7842,.7144v.1963c0,.4199-.2383,.7144-.7842,.7144-.5464,0-.7847-.2944-.7847-.7144Zm.126,2.2271h1.3027v7.2559h-1.3027v-7.2559Z"/>
      <path d="M100.189,89.9136c-.7988,0-1.1768-.5044-1.2749-1.2046h-.0698c-.2944,.8965-1.0649,1.3726-2.1016,1.3726-1.5127,0-2.395-.8403-2.395-2.1709,0-1.4009,1.0225-2.1572,3.0957-2.1572h1.3726v-.6587c0-.9663-.5181-1.5127-1.6108-1.5127-.8545,0-1.4009,.4204-1.7788,1.0366l-.7847-.7144c.4346-.7842,1.2891-1.4146,2.6338-1.4146,1.8066,0,2.8433,.9243,2.8433,2.4932v3.8242h.8125v1.1064h-.7422Zm-1.373-2.1294v-1.1201h-1.3867c-1.1904,0-1.7227,.3638-1.7227,1.0361v.2803c0,.6724,.5181,1.0508,1.3306,1.0508,1.0225,0,1.7788-.5186,1.7788-1.2471Z"/>
      <path d="M102.4814,79.5479h1.3027v4.3003h.0562c.3364-.8965,1.0928-1.3584,2.0869-1.3584,1.8213,0,2.9141,1.4424,2.9141,3.7959s-1.0928,3.7959-2.9141,3.7959c-.9941,0-1.7505-.4619-2.0869-1.3584h-.0562v1.1904h-1.3027v-10.3657Zm4.9727,7.354v-1.2324c0-1.2188-.7422-2.0454-1.9048-2.0454-.9805,0-1.7651,.5605-1.7651,1.3311v2.6611c0,.7705,.7847,1.3311,1.7651,1.3311,1.1626,0,1.9048-.8267,1.9048-2.0454Z"/>
      <path d="M112.0303,89.9136c-.8965,0-1.3589-.5322-1.3589-1.3306v-9.0352h1.3027v9.2593h1.0366v1.1064h-.9805Z"/>
      <path d="M114.0454,86.2856c0-2.2974,1.2744-3.7959,3.292-3.7959,2.0308,0,3.1797,1.5405,3.1797,3.5718v.5464h-5.1128v.2939c0,1.2046,.7422,2.0732,2.0449,2.0732,.9106,0,1.5688-.4341,1.9609-1.1768l.8403,.7144c-.5039,.9385-1.5547,1.5688-2.9131,1.5688-2.0176,0-3.292-1.4985-3.292-3.7959Zm1.3589-.6865v.0981h3.7261v-.1401c0-1.2046-.7007-2.0171-1.793-2.0171-1.1348,0-1.9331,.8687-1.9331,2.0591Z"/>
      <path d="M128.0049,79.2676h1.2603c-1.5127,1.3447-2.563,3.6562-2.563,5.7012v1.1489c0,2.0449,1.0503,4.356,2.563,5.7007h-1.2603c-1.3867-1.1763-2.5215-3.5576-2.5215-6.2754s1.1348-5.0986,2.5215-6.2754Z"/>
      <path d="M130.2012,80.4307v-.1963c0-.4204,.2383-.7144,.7847-.7144,.5459,0,.7842,.2939,.7842,.7144v.1963c0,.4199-.2383,.7144-.7842,.7144-.5464,0-.7847-.2944-.7847-.7144Zm.126,2.2271h1.3027v7.2559h-1.3027v-7.2559Z"/>
      <path d="M133.9248,89.9136v-7.2559h1.3027v1.1904h.0703c.3359-.7983,.9526-1.3584,2.0449-1.3584,1.4849,0,2.3955,1.0225,2.3955,2.7871v4.6367h-1.3027v-4.4404c0-1.2188-.5044-1.8491-1.5269-1.8491-.8545,0-1.6812,.4346-1.6812,1.3169v4.9727h-1.3027Z"/>
      <path d="M141.9468,82.6577h1.3027v1.1904h.0562c.3364-.8965,1.0928-1.3584,2.0874-1.3584,1.8208,0,2.9131,1.4424,2.9131,3.7959s-1.0923,3.7959-2.9131,3.7959c-.9946,0-1.751-.4619-2.0874-1.3584h-.0562v3.9917h-1.3027v-10.0571Zm4.9727,4.2441v-1.2324c0-1.2188-.7422-2.0454-1.9048-2.0454-.9805,0-1.7651,.5605-1.7651,1.3311v2.6611c0,.7705,.7847,1.3311,1.7651,1.3311,1.1626,0,1.9048-.8267,1.9048-2.0454Z"/>
      <path d="M154.5771,88.7231h-.0698c-.2661,.7002-.8267,1.3584-2.0312,1.3584-1.4849,0-2.4092-1.0225-2.4092-2.7876v-4.6362h1.3027v4.4404c0,1.2188,.5181,1.8491,1.541,1.8491,.8262,0,1.6665-.4204,1.6665-1.3311v-4.9585h1.3027v7.2559h-1.3027v-1.1904Z"/>
      <path d="M159.9517,89.9136c-.8965,0-1.373-.5322-1.373-1.3726v-4.7769h-1.1626v-1.1064h.6445c.4902,0,.644-.1821,.644-.6724v-1.3306h1.1768v2.0029h1.5552v1.1064h-1.5552v5.043h1.4429v1.1064h-1.3726Z"/>
      <path d="M163.1987,91.8184h-1.2607c1.5127-1.3447,2.5635-3.6558,2.5635-5.7007v-1.1489c0-2.0449-1.0508-4.3564-2.5635-5.7012h1.2607c1.3867,1.1768,2.5215,3.5581,2.5215,6.2754s-1.1348,5.0991-2.5215,6.2754Z"/>
      <path d="M13.0547,102.7075v-.4062c0-.8682,.4902-1.5269,1.793-1.5269s1.793,.6587,1.793,1.5269v.4062c0,.8687-.4902,1.5269-1.793,1.5269s-1.793-.6582-1.793-1.5269Z"/>
      <path d="M30.8169,101.8252c0-3.292,1.6387-5.0566,4.1738-5.0566s4.1743,1.7646,4.1743,5.0566-1.6387,5.0566-4.1743,5.0566-4.1738-1.7646-4.1738-5.0566Zm6.8916,.7983v-1.5967c0-1.8633-1.0928-3.0396-2.7178-3.0396s-2.7173,1.1763-2.7173,3.0396v1.5967c0,1.8633,1.0928,3.0396,2.7173,3.0396s2.7178-1.1763,2.7178-3.0396Z"/>
      <path d="M45.5332,105.5234h-.0698c-.2661,.7002-.8267,1.3584-2.0312,1.3584-1.4849,0-2.4092-1.0225-2.4092-2.7876v-4.6362h1.3027v4.4404c0,1.2188,.5181,1.8491,1.541,1.8491,.8262,0,1.6665-.4204,1.6665-1.3311v-4.9585h1.3027v7.2559h-1.3027v-1.1904Z"/>
      <path d="M50.9077,106.7139c-.8965,0-1.373-.5322-1.373-1.3726v-4.7769h-1.1626v-1.1064h.6445c.4902,0,.644-.1821,.644-.6724v-1.3306h1.1768v2.0029h1.5552v1.1064h-1.5552v5.043h1.4429v1.1064h-1.3726Z"/>
      <path d="M54.1265,99.458h1.3027v1.1904h.0562c.3364-.8965,1.0928-1.3584,2.0874-1.3584,1.8208,0,2.9131,1.4424,2.9131,3.7959s-1.0923,3.7959-2.9131,3.7959c-.9946,0-1.751-.4619-2.0874-1.3584h-.0562v3.9922h-1.3027v-10.0576Zm4.9727,4.2441v-1.2324c0-1.2188-.7422-2.0454-1.9048-2.0454-.9805,0-1.7651,.5605-1.7651,1.3311v2.6611c0,.7705,.7847,1.3311,1.7651,1.3311,1.1626,0,1.9048-.8267,1.9048-2.0454Z"/>
      <path d="M66.7568,105.5234h-.0698c-.2661,.7002-.8267,1.3584-2.0312,1.3584-1.4849,0-2.4092-1.0225-2.4092-2.7876v-4.6362h1.3027v4.4404c0,1.2188,.5181,1.8491,1.541,1.8491,.8262,0,1.6665-.4204,1.6665-1.3311v-4.9585h1.3027v7.2559h-1.3027v-1.1904Z"/>
      <path d="M72.1313,106.7139c-.8965,0-1.373-.5322-1.373-1.3726v-4.7769h-1.1626v-1.1064h.6445c.4902,0,.644-.1821,.644-.6724v-1.3306h1.1768v2.0029h1.5552v1.1064h-1.5552v5.043h1.4429v1.1064h-1.3726Z"/>
      <path d="M74.6777,105.4814l.8828-.7568c.5464,.6865,1.2183,1.0786,2.1011,1.0786,.9243,0,1.4287-.4062,1.4287-1.0786,0-.5322-.2803-.9102-1.1626-1.0361l-.6162-.0981c-1.3867-.1963-2.3535-.7705-2.3535-2.1152,0-1.4287,1.1064-2.1851,2.6333-2.1851,1.2329,0,2.0034,.4341,2.6196,1.1626l-.8267,.7842c-.3501-.4624-.9663-.8682-1.835-.8682-.8823,0-1.3306,.4058-1.3306,1.0225,0,.644,.4204,.9102,1.2607,1.0366l.6162,.0977c1.5972,.2383,2.2554,.9385,2.2554,2.0596,0,1.4146-1.0645,2.2969-2.7734,2.2969-1.3447,0-2.2275-.5464-2.8999-1.4004Z"/>
      <path d="M85.9062,100.5645h-1.1626v-1.1064h1.1626v-1.3447c0-1.0645,.5601-1.7651,1.6948-1.7651h1.1348v1.1069h-1.5269v2.0029h1.5269v1.1064h-1.5269v6.1494h-1.3027v-6.1494Z"/>
      <path d="M90.1475,106.7139v-7.2559h1.3027v1.3867h.0703c.2378-.7144,.8823-1.3867,2.0449-1.3867h.4341v1.3027h-.644c-1.2046,0-1.9053,.4761-1.9053,1.1904v4.7627h-1.3027Z"/>
      <path d="M94.8794,103.0859c0-2.3115,1.3306-3.7959,3.3057-3.7959s3.3057,1.4844,3.3057,3.7959-1.3306,3.7959-3.3057,3.7959-3.3057-1.4849-3.3057-3.7959Zm5.2246,.5464v-1.0928c0-1.4146-.7842-2.1289-1.9189-2.1289s-1.9189,.7144-1.9189,2.1289v1.0928c0,1.4146,.7842,2.1289,1.9189,2.1289s1.9189-.7144,1.9189-2.1289Z"/>
      <path d="M103.2656,106.7139v-7.2559h1.3027v1.1904h.0703c.3081-.7422,.9663-1.3584,1.9331-1.3584,.9663,0,1.8208,.4482,2.1992,1.4707h.0278c.2661-.7847,.9946-1.4707,2.2134-1.4707,1.4565,0,2.3252,1.0225,2.3252,2.7871v4.6367h-1.3027v-4.4404c0-1.2188-.4624-1.8491-1.4707-1.8491-.8408,0-1.6113,.4346-1.6113,1.3169v4.9727h-1.3022v-4.4404c0-1.2188-.4624-1.8491-1.457-1.8491-.8267,0-1.625,.4346-1.625,1.3169v4.9727h-1.3027Z"/>
      <path d="M118.96,96.9365h4.1602c1.6108,0,2.6196,.9946,2.6196,2.5215,0,1.4565-.9385,1.9893-1.6533,2.0732v.084c.7427,.042,1.9893,.644,1.9893,2.2832,0,1.5967-1.0928,2.8154-2.5352,2.8154h-4.5806v-9.7773Zm1.3589,4.1885h2.5913c.8545,0,1.3726-.4624,1.3726-1.2749v-.4624c0-.812-.5181-1.2744-1.3726-1.2744h-2.5913v3.0117Zm0,4.4121h2.8154c.9243,0,1.4849-.4761,1.4849-1.3867v-.4902c0-.9106-.5605-1.3867-1.4849-1.3867h-2.8154v3.2637Z"/>
      <path d="M133.7588,96.0684h1.2603c-1.5127,1.3447-2.563,3.6558-2.563,5.7007v1.1489c0,2.0449,1.0503,4.3564,2.563,5.7012h-1.2603c-1.3867-1.1768-2.5215-3.5581-2.5215-6.2754s1.1348-5.0991,2.5215-6.2754Z"/>
      <path d="M135.5635,103.0859c0-2.3115,1.3306-3.7959,3.3057-3.7959s3.3057,1.4844,3.3057,3.7959-1.3306,3.7959-3.3057,3.7959-3.3057-1.4849-3.3057-3.7959Zm5.2246,.5464v-1.0928c0-1.4146-.7842-2.1289-1.9189-2.1289s-1.9189,.7144-1.9189,2.1289v1.0928c0,1.4146,.7847,2.1289,1.9189,2.1289s1.9189-.7144,1.9189-2.1289Z"/>
      <path d="M148.3896,105.5234h-.0698c-.2661,.7002-.8267,1.3584-2.0312,1.3584-1.4849,0-2.4092-1.0225-2.4092-2.7876v-4.6362h1.3027v4.4404c0,1.2188,.5181,1.8491,1.541,1.8491,.8262,0,1.6665-.4204,1.6665-1.3311v-4.9585h1.3027v7.2559h-1.3027v-1.1904Z"/>
      <path d="M153.7646,106.7139c-.8965,0-1.373-.5322-1.373-1.3726v-4.7769h-1.1626v-1.1064h.6445c.4902,0,.6445-.1821,.6445-.6724v-1.3306h1.1763v2.0029h1.5552v1.1064h-1.5552v5.043h1.4429v1.1064h-1.3726Z"/>
      <path d="M156.9829,99.458h1.3027v1.1904h.0562c.3364-.8965,1.0928-1.3584,2.0874-1.3584,1.8208,0,2.9131,1.4424,2.9131,3.7959s-1.0923,3.7959-2.9131,3.7959c-.9946,0-1.751-.4619-2.0874-1.3584h-.0562v3.9922h-1.3027v-10.0576Zm4.9727,4.2441v-1.2324c0-1.2188-.7422-2.0454-1.9048-2.0454-.9805,0-1.7651,.5605-1.7651,1.3311v2.6611c0,.7705,.7847,1.3311,1.7651,1.3311,1.1626,0,1.9048-.8267,1.9048-2.0454Z"/>
      <path d="M169.6133,105.5234h-.0698c-.2661,.7002-.8267,1.3584-2.0312,1.3584-1.4849,0-2.4092-1.0225-2.4092-2.7876v-4.6362h1.3027v4.4404c0,1.2188,.5181,1.8491,1.541,1.8491,.8262,0,1.6665-.4204,1.6665-1.3311v-4.9585h1.3027v7.2559h-1.3027v-1.1904Z"/>
      <path d="M174.9883,106.7139c-.8965,0-1.373-.5322-1.373-1.3726v-4.7769h-1.1626v-1.1064h.6445c.4902,0,.6445-.1821,.6445-.6724v-1.3306h1.1763v2.0029h1.5552v1.1064h-1.5552v5.043h1.4429v1.1064h-1.3726Z"/>
      <path d="M178.2349,108.6191h-1.2607c1.5127-1.3447,2.5635-3.6562,2.5635-5.7012v-1.1489c0-2.0449-1.0508-4.356-2.5635-5.7007h1.2607c1.3867,1.1763,2.5215,3.5576,2.5215,6.2754s-1.1348,5.0986-2.5215,6.2754Z"/>
    </g>
  </g>
  <g id="Layer_6" data-name="Layer 6">
    <text class="cls-8" transform="translate(517.1147 227.8031)"><tspan x="0" y="0">Member deployable architecture A</tspan></text>
  </g>
  <g id="Layer_7" data-name="Layer 7">
    <text class="cls-8" transform="translate(682.3185 285.2026)"><tspan x="0" y="0">A creates outputs</tspan></text>
  </g>
  <g id="Layer_15" data-name="Layer 15">
    <text class="cls-8" transform="translate(626.5612 535.1584)"><tspan x="0" y="0">B creates outputs that display at the stack level</tspan></text>
  </g>
  <g id="Layer_10" data-name="Layer 10">
    <text class="cls-8" transform="translate(652.1147 152.8031)"><tspan x="0" y="0">A uses the prefix as an input</tspan></text>
  </g>
  <g id="Layer_11" data-name="Layer 11">
    <g>
      <line class="cls-5" x1="748" y1="302.5" x2="748.0299" y2="308.4999"/>
      <line class="cls-7" x1="748.0928" y1="321.1428" x2="748.4387" y2="390.6786"/>
      <line class="cls-5" x1="748.4701" y1="397.0001" x2="748.5" y2="403"/>
    </g>
    <g id="Layer_12" data-name="Layer 12">
      <line class="cls-5" x1="597.6968" y1="402.8724" x2="608.5" y2="412"/>
      <line class="cls-5" x1="607.6968" y1="393.8724" x2="597.6968" y2="402.8724"/>
    </g>
  </g>
  <g id="Layer_14" data-name="Layer 14">
    <text class="cls-8" transform="translate(283.4296 391.4248)"><tspan x="0" y="0">B uses an output from A as an input</tspan></text>
  </g>
  <g id="Layer_9" data-name="Layer 9">
    <text class="cls-8" transform="translate(517.1046 453.2249)"><tspan x="0" y="0">Member deployable architecture B</tspan></text>
  </g>
</svg>