<?xml version="1.0" encoding="UTF-8"?>
<svg xmlns="http://www.w3.org/2000/svg" viewBox="0 0 978.5 577">
  <defs>
    <style>
      .cls-1, .cls-2, .cls-3, .cls-4, .cls-5, .cls-6, .cls-7 {
        stroke: #000;
        stroke-miterlimit: 10;
      }

      .cls-1, .cls-2, .cls-3, .cls-5, .cls-6, .cls-7 {
        fill: none;
      }

      .cls-1, .cls-8, .cls-9, .cls-10 {
        font-family: IBMPlexSans-Text, 'IBM Plex Sans';
      }

      .cls-1, .cls-8, .cls-10 {
        font-size: 14px;
      }

      .cls-2 {
        stroke-dasharray: 0 0 7.8803 7.8803;
      }

      .cls-11, .cls-4, .cls-10 {
        fill: #fff;
      }

      .cls-3 {
        stroke-dasharray: 0 0 12.0915 12.0915;
      }

      .cls-9 {
        font-size: 12px;
      }

      .cls-6 {
        stroke-dasharray: 0 0 12.2838 12.2838;
      }

      .cls-7 {
        stroke-dasharray: 0 0 12.643 12.643;
      }
    </style>
  </defs>
  <g id="Layer_1" data-name="Layer 1">
    <rect class="cls-4" x="218" y=".5" width="760" height="576"/>
    <rect class="cls-4" x="430.5" y="388" width="368" height="130"/>
    <rect class="cls-4" x="230.5" y="360" width="351" height="59"/>
    <g>
      <line class="cls-5" x1="748.5044" y1="403.7077" x2="742.5044" y2="403.6785"/>
      <line class="cls-3" x1="730.4131" y1="403.6194" x2="615.5455" y2="403.0593"/>
      <line class="cls-5" x1="609.4999" y1="403.0298" x2="603.5" y2="403.0005"/>
    </g>
  </g>
  <g id="Layer_2" data-name="Layer 2">
    <text class="cls-10" transform="translate(237.9487 16.8589)"><tspan x="0" y="0">Deployable architecture stack </tspan></text>
    <text class="cls-8" transform="translate(237.9487 16.8589)"><tspan x="0" y="0">Deployable architecture stack </tspan></text>
    <text class="cls-1" transform="translate(237.9487 16.8589)"><tspan x="0" y="0">Deployable architecture stack </tspan></text>
  </g>
  <g id="Layer_3" data-name="Layer 3">
    <rect class="cls-4" x=".5" y="49" width="267" height="72"/>
    <rect class="cls-4" x="430.5" y="155" width="368" height="130"/>
    <rect class="cls-4" x="613.5" y="121" width="249" height="54"/>
    <rect class="cls-4" x="614.5" y="258" width="248" height="44"/>
    <rect class="cls-4" x="615.5" y="506" width="347" height="44"/>
  </g>
  <g id="Layer_5" data-name="Layer 5">
    <g>
      <line class="cls-11" x1="268" y1="79.5002" x2="734.5" y2="79.0002"/>
      <g>
        <line class="cls-5" x1="268" y1="79.5002" x2="274" y2="79.4938"/>
        <line class="cls-6" x1="286.2838" y1="79.4806" x2="722.3582" y2="79.0132"/>
        <line class="cls-5" x1="728.5" y1="79.0067" x2="734.5" y2="79.0002"/>
      </g>
    </g>
    <line class="cls-5" x1="724.5" y1="110" x2="735.5" y2="119"/>
    <line class="cls-5" x1="735.5" y1="119" x2="745.5" y2="110"/>
    <g>
      <line class="cls-5" x1="735.3315" y1="114.0194" x2="735.3315" y2="108.0194"/>
      <line class="cls-2" x1="735.3315" y1="100.1391" x2="735.3315" y2="88.3186"/>
      <line class="cls-5" x1="735.3315" y1="84.3785" x2="735.3315" y2="78.3785"/>
    </g>
  </g>
  <g id="Layer_4" data-name="Layer 4">
    <g>
      <path d="M12.5239,71.8184l.8276-.7437c.5874,.7559,1.2832,1.1636,2.2188,1.1636,1.1392,0,1.751-.5879,1.751-1.4751,0-.7319-.396-1.1157-1.439-1.3433l-.708-.144c-1.5708-.3237-2.3984-1.0312-2.3984-2.3389,0-1.4868,1.1274-2.3384,2.8423-2.3384,1.2593,0,2.1587,.4678,2.7944,1.3311l-.8516,.6836c-.4434-.6118-1.0552-.9956-2.0029-.9956-1.019,0-1.6309,.4438-1.6309,1.2715,0,.7437,.4678,1.0796,1.4629,1.2954l.708,.144c1.6431,.3594,2.3745,1.0913,2.3745,2.3745,0,1.5469-1.0913,2.5547-2.9502,2.5547-1.3672,0-2.3267-.5518-2.9985-1.4395Z"/>
      <path d="M21.5952,73.1138c-.7676,0-1.1758-.4556-1.1758-1.1753v-4.0898h-.9951v-.9473h.5518c.4194,0,.5518-.1562,.5518-.5757v-1.1396h1.0073v1.7153h1.3311v.9473h-1.3311v4.3179h1.2354v.9473h-1.1753Z"/>
      <path d="M28.877,73.1138c-.6836,0-1.0073-.4316-1.0913-1.0312h-.0601c-.252,.7676-.9116,1.1753-1.7988,1.1753-1.2954,0-2.0508-.7197-2.0508-1.8589,0-1.1997,.8755-1.8472,2.6504-1.8472h1.1753v-.5635c0-.8276-.4438-1.2954-1.3794-1.2954-.7314,0-1.1992,.3599-1.5229,.8872l-.6719-.6113c.3721-.6719,1.1035-1.2114,2.2549-1.2114,1.5474,0,2.4346,.7915,2.4346,2.1348v3.2744h.6958v.9473h-.6357Zm-1.1753-1.8228v-.96h-1.1875c-1.019,0-1.4751,.312-1.4751,.8877v.2397c0,.5757,.4438,.8999,1.1396,.8999,.8755,0,1.5229-.4438,1.5229-1.0674Z"/>
      <path d="M30.4033,70.0073c0-1.9907,1.0195-3.25,2.7944-3.25,1.2236,0,1.9912,.5996,2.3511,1.4873l-.9238,.4556c-.2036-.6118-.7075-.9834-1.4272-.9834-1.0674,0-1.6069,.7314-1.6069,1.751v1.0796c0,1.019,.5396,1.751,1.6069,1.751,.7559,0,1.2715-.3838,1.5835-1.0557l.8154,.5039c-.396,.9355-1.2114,1.5112-2.3989,1.5112-1.7749,0-2.7944-1.2593-2.7944-3.2505Z"/>
      <path d="M36.9072,64.2388h1.1152v5.5288h.0601l.8877-1.0913,1.6191-1.7749h1.3193l-2.207,2.3984,2.4946,3.814h-1.3433l-1.9429-3.0942-.8877,.9473v2.147h-1.1152v-8.875Z"/>
      <path d="M47.5386,73.1138l-2.147-6.2124h1.1152l1.0195,2.9741,.6479,2.147h.0718l.6597-2.147,1.0312-2.9741h1.0674l-2.1587,6.2124h-1.3071Z"/>
      <path d="M56.7046,73.1138c-.6836,0-1.0073-.4316-1.0913-1.0312h-.0601c-.252,.7676-.9116,1.1753-1.7988,1.1753-1.2954,0-2.0508-.7197-2.0508-1.8589,0-1.1997,.8755-1.8472,2.6504-1.8472h1.1753v-.5635c0-.8276-.4438-1.2954-1.3794-1.2954-.7314,0-1.1992,.3599-1.5229,.8872l-.6719-.6113c.3721-.6719,1.1035-1.2114,2.2549-1.2114,1.5474,0,2.4346,.7915,2.4346,2.1348v3.2744h.6958v.9473h-.6357Zm-1.1753-1.8228v-.96h-1.1875c-1.019,0-1.4751,.312-1.4751,.8877v.2397c0,.5757,.4438,.8999,1.1396,.8999,.8755,0,1.5229-.4438,1.5229-1.0674Z"/>
      <path d="M58.6748,73.1138v-6.2124h1.1152v1.187h.0601c.2041-.6113,.7559-1.187,1.751-1.187h.3721v1.1152h-.5518c-1.0312,0-1.6313,.4077-1.6313,1.0195v4.0776h-1.1152Z"/>
      <path d="M63.0669,64.9941v-.168c0-.3599,.2041-.6113,.6719-.6113s.6714,.2515,.6714,.6113v.168c0,.3599-.2036,.6118-.6714,.6118s-.6719-.252-.6719-.6118Zm.1079,1.9072h1.1152v6.2124h-1.1152v-6.2124Z"/>
      <path d="M70.7803,73.1138c-.6836,0-1.0073-.4316-1.0913-1.0312h-.0601c-.252,.7676-.9116,1.1753-1.7988,1.1753-1.2954,0-2.0508-.7197-2.0508-1.8589,0-1.1997,.8755-1.8472,2.6504-1.8472h1.1753v-.5635c0-.8276-.4438-1.2954-1.3794-1.2954-.7314,0-1.1992,.3599-1.5229,.8872l-.6719-.6113c.3721-.6719,1.1035-1.2114,2.2549-1.2114,1.5474,0,2.4346,.7915,2.4346,2.1348v3.2744h.6958v.9473h-.6357Zm-1.1753-1.8228v-.96h-1.1875c-1.019,0-1.4751,.312-1.4751,.8877v.2397c0,.5757,.4438,.8999,1.1396,.8999,.8755,0,1.5229-.4438,1.5229-1.0674Z"/>
      <path d="M72.7505,64.2388h1.1152v3.6816h.0483c.2876-.7676,.9355-1.1631,1.7866-1.1631,1.5596,0,2.4951,1.2354,2.4951,3.25s-.9355,3.2505-2.4951,3.2505c-.8511,0-1.499-.396-1.7866-1.1636h-.0483v1.0195h-1.1152v-8.875Zm4.2578,6.2964v-1.0552c0-1.0435-.6357-1.7515-1.6313-1.7515-.8394,0-1.5112,.48-1.5112,1.1396v2.2788c0,.6597,.6719,1.1392,1.5112,1.1392,.9956,0,1.6313-.7075,1.6313-1.751Z"/>
      <path d="M80.9341,73.1138c-.7676,0-1.1636-.4556-1.1636-1.1392v-7.7358h1.1152v7.9277h.8877v.9473h-.8394Z"/>
      <path d="M82.6626,70.0073c0-1.9668,1.0918-3.25,2.8184-3.25,1.7393,0,2.7227,1.3193,2.7227,3.0581v.4678h-4.3774v.252c0,1.0312,.6357,1.7749,1.751,1.7749,.7798,0,1.3433-.3716,1.6792-1.0073l.7197,.6118c-.4321,.8032-1.3315,1.3433-2.4951,1.3433-1.7266,0-2.8184-1.2832-2.8184-3.2505Zm1.1636-.5874v.084h3.1899v-.1201c0-1.0312-.5996-1.7271-1.5352-1.7271-.9712,0-1.6548,.7437-1.6548,1.7632Z"/>
      <path d="M89.1543,72.0586l.7559-.6479c.4673,.5879,1.0435,.9233,1.7988,.9233,.7915,0,1.2231-.3477,1.2231-.9233,0-.4556-.2397-.7793-.9951-.8872l-.5278-.084c-1.1875-.168-2.0151-.6597-2.0151-1.811,0-1.2236,.9478-1.8711,2.2549-1.8711,1.0557,0,1.7153,.3716,2.2427,.9956l-.7075,.6714c-.2998-.396-.8276-.7437-1.5713-.7437-.7554,0-1.1392,.3477-1.1392,.8755,0,.5518,.3599,.7798,1.0796,.8877l.5273,.084c1.3672,.2036,1.9312,.8032,1.9312,1.7632,0,1.2109-.9116,1.9668-2.3745,1.9668-1.1514,0-1.9072-.4678-2.4829-1.1992Z"/>
      <path d="M95.6221,67.6807v-.1797c0-.4316,.2397-.7437,.7915-.7437s.7915,.312,.7915,.7437v.1797c0,.4316-.2397,.7437-.7915,.7437s-.7915-.312-.7915-.7437Zm0,4.8335v-.1802c0-.4316,.2397-.7432,.7915-.7432s.7915,.3115,.7915,.7432v.1802c0,.4316-.2397,.7437-.7915,.7437s-.7915-.312-.7915-.7437Z"/>
      <path d="M12.9077,84.0835v-.3477c0-.7437,.4199-1.3071,1.5352-1.3071s1.5352,.5635,1.5352,1.3071v.3477c0,.7437-.4199,1.3071-1.5352,1.3071s-1.5352-.5635-1.5352-1.3071Z"/>
      <path d="M31.1118,87.5137v-8.3716h3.4541c1.5107,0,2.3745,.9717,2.3745,2.459s-.8638,2.4585-2.3745,2.4585h-2.291v3.4541h-1.1631Zm1.1631-4.4854h2.2427c.7437,0,1.1875-.4082,1.1875-1.1274v-.5996c0-.7197-.4438-1.1274-1.1875-1.1274h-2.2427v2.8545Z"/>
      <path d="M38.4077,87.5137v-6.2124h1.1152v1.187h.0601c.2041-.6113,.7559-1.187,1.751-1.187h.3721v1.1152h-.5518c-1.0312,0-1.6313,.4077-1.6313,1.0195v4.0776h-1.1152Z"/>
      <path d="M42.4639,84.4072c0-1.9668,1.0913-3.25,2.8188-3.25,1.7388,0,2.7222,1.3193,2.7222,3.0581v.4678h-4.3774v.252c0,1.0312,.6357,1.7749,1.751,1.7749,.7798,0,1.3433-.3716,1.6792-1.0073l.7192,.6118c-.4316,.8032-1.3311,1.3433-2.4941,1.3433-1.7275,0-2.8188-1.2832-2.8188-3.2505Zm1.1636-.5874v.084h3.1904v-.1201c0-1.0312-.6001-1.7271-1.5352-1.7271-.9717,0-1.6553,.7437-1.6553,1.7632Z"/>
      <path d="M49.8672,82.2485h-.9956v-.9473h.9956v-1.1514c0-.9116,.4795-1.5112,1.4512-1.5112h.9712v.9473h-1.3071v1.7153h3.562v6.2124h-1.1152v-5.2651h-2.4468v5.2651h-1.1152v-5.2651Zm3.4541-2.8545v-.168c0-.3599,.2036-.6113,.6714-.6113s.6719,.2515,.6719,.6113v.168c0,.3599-.2041,.6118-.6719,.6118s-.6714-.252-.6714-.6118Z"/>
      <path d="M58.0386,84.3833l-2.1709-3.082h1.2949l1.4995,2.2427h.0356l1.5352-2.2427h1.2236l-2.1709,3.0342,2.207,3.1782h-1.2954l-1.5352-2.3506h-.0361l-1.6191,2.3506h-1.2231l2.2549-3.1304Z"/>
      <path d="M66.9185,87.5137l-2.147-6.2124h1.1152l1.0195,2.9741,.6479,2.147h.0718l.6597-2.147,1.0312-2.9741h1.0674l-2.1587,6.2124h-1.3071Z"/>
      <path d="M76.0845,87.5137c-.6836,0-1.0073-.4316-1.0913-1.0312h-.0601c-.252,.7676-.9116,1.1753-1.7988,1.1753-1.2954,0-2.0508-.7197-2.0508-1.8589,0-1.1997,.8755-1.8472,2.6504-1.8472h1.1753v-.564c0-.8271-.4438-1.2949-1.3794-1.2949-.7314,0-1.1992,.3599-1.5229,.8872l-.6719-.6113c.3721-.6719,1.1035-1.2114,2.2549-1.2114,1.5474,0,2.4346,.7915,2.4346,2.1348v3.2744h.6958v.9473h-.6357Zm-1.1753-1.8232v-.959h-1.1875c-1.019,0-1.4751,.3115-1.4751,.8872v.2397c0,.5757,.4438,.8999,1.1396,.8999,.8755,0,1.5229-.4438,1.5229-1.0679Z"/>
      <path d="M78.0547,87.5137v-6.2124h1.1152v1.187h.0601c.2041-.6113,.7559-1.187,1.751-1.187h.3721v1.1152h-.5518c-1.0312,0-1.6313,.4077-1.6313,1.0195v4.0776h-1.1152Z"/>
      <path d="M82.4468,79.394v-.168c0-.3599,.2041-.6113,.6719-.6113s.6714,.2515,.6714,.6113v.168c0,.3599-.2036,.6118-.6714,.6118s-.6719-.252-.6719-.6118Zm.1079,1.9072h1.1152v6.2124h-1.1152v-6.2124Z"/>
      <path d="M90.1602,87.5137c-.6836,0-1.0073-.4316-1.0913-1.0312h-.0601c-.252,.7676-.9116,1.1753-1.7988,1.1753-1.2954,0-2.0508-.7197-2.0508-1.8589,0-1.1997,.8755-1.8472,2.6504-1.8472h1.1753v-.564c0-.8271-.4438-1.2949-1.3794-1.2949-.7314,0-1.1992,.3599-1.5229,.8872l-.6719-.6113c.3721-.6719,1.1035-1.2114,2.2549-1.2114,1.5474,0,2.4346,.7915,2.4346,2.1348v3.2744h.6958v.9473h-.6357Zm-1.1753-1.8232v-.959h-1.1875c-1.019,0-1.4751,.3115-1.4751,.8872v.2397c0,.5757,.4438,.8999,1.1396,.8999,.8755,0,1.5229-.4438,1.5229-1.0679Z"/>
      <path d="M92.1304,78.6387h1.1152v3.6816h.0483c.2876-.7676,.9355-1.1631,1.7866-1.1631,1.5596,0,2.4951,1.2354,2.4951,3.25s-.9355,3.2505-2.4951,3.2505c-.8511,0-1.499-.396-1.7866-1.1636h-.0483v1.0195h-1.1152v-8.875Zm4.2578,6.2964v-1.0552c0-1.0435-.6357-1.7515-1.6313-1.7515-.8394,0-1.5112,.48-1.5112,1.1396v2.2788c0,.6597,.6719,1.1392,1.5112,1.1392,.9956,0,1.6313-.7075,1.6313-1.751Z"/>
      <path d="M100.314,87.5137c-.7676,0-1.1636-.4556-1.1636-1.1392v-7.7358h1.1152v7.9277h.8877v.9473h-.8394Z"/>
      <path d="M102.0425,84.4072c0-1.9668,1.0918-3.25,2.8184-3.25,1.7393,0,2.7227,1.3193,2.7227,3.0581v.4678h-4.3774v.252c0,1.0312,.6357,1.7749,1.751,1.7749,.7798,0,1.3433-.3716,1.6792-1.0073l.7197,.6118c-.4321,.8032-1.3315,1.3433-2.4951,1.3433-1.7266,0-2.8184-1.2832-2.8184-3.2505Zm1.1636-.5874v.084h3.1899v-.1201c0-1.0312-.5996-1.7271-1.5352-1.7271-.9712,0-1.6548,.7437-1.6548,1.7632Z"/>
      <path d="M114.0054,78.3984h1.0791c-1.2949,1.1514-2.1943,3.1304-2.1943,4.8813v.9839c0,1.751,.8994,3.7295,2.1943,4.8809h-1.0791c-1.1875-1.0073-2.1587-3.0459-2.1587-5.373s.9712-4.3652,2.1587-5.373Z"/>
      <path d="M115.8901,79.394v-.168c0-.3599,.2041-.6113,.6719-.6113s.6714,.2515,.6714,.6113v.168c0,.3599-.2036,.6118-.6714,.6118s-.6719-.252-.6719-.6118Zm.1079,1.9072h1.1152v6.2124h-1.1152v-6.2124Z"/>
      <path d="M119.082,87.5137v-6.2124h1.1152v1.019h.0601c.2881-.6836,.8154-1.1631,1.751-1.1631,1.2715,0,2.0513,.8755,2.0513,2.3867v3.9697h-1.1157v-3.8018c0-1.0435-.4316-1.5835-1.3071-1.5835-.7314,0-1.4395,.3721-1.4395,1.1274v4.2578h-1.1152Z"/>
      <path d="M125.958,81.3013h1.1152v1.019h.0483c.2876-.7676,.9355-1.1631,1.7871-1.1631,1.5591,0,2.4941,1.2354,2.4941,3.25s-.9351,3.2505-2.4941,3.2505c-.8516,0-1.4995-.396-1.7871-1.1636h-.0483v3.418h-1.1152v-8.6108Zm4.2578,3.6338v-1.0552c0-1.0435-.6357-1.7515-1.6313-1.7515-.8394,0-1.5112,.48-1.5112,1.1396v2.2788c0,.6597,.6719,1.1392,1.5112,1.1392,.9956,0,1.6313-.7075,1.6313-1.751Z"/>
      <path d="M136.7798,86.4941h-.0596c-.228,.5996-.708,1.1636-1.7393,1.1636-1.2715,0-2.063-.8755-2.063-2.3867v-3.9697h1.1157v3.8018c0,1.0435,.4434,1.583,1.3193,1.583,.7075,0,1.4268-.3599,1.4268-1.1392v-4.2456h1.1157v6.2124h-1.1157v-1.0195Z"/>
      <path d="M141.3892,87.5137c-.7676,0-1.1758-.4556-1.1758-1.1753v-4.0898h-.9951v-.9473h.5518c.4194,0,.5518-.1562,.5518-.5757v-1.1396h1.0073v1.7153h1.3311v.9473h-1.3311v4.3179h1.2354v.9473h-1.1753Z"/>
      <path d="M144.1738,89.1445h-1.0791c1.2949-1.1514,2.1948-3.1299,2.1948-4.8809v-.9839c0-1.751-.8999-3.73-2.1948-4.8813h1.0791c1.1875,1.0078,2.1587,3.0464,2.1587,5.373s-.9712,4.3657-2.1587,5.373Z"/>
      <path d="M12.9077,98.4834v-.3477c0-.7437,.4199-1.3076,1.5352-1.3076s1.5352,.564,1.5352,1.3076v.3477c0,.7437-.4199,1.3071-1.5352,1.3071s-1.5352-.5635-1.5352-1.3071Z"/>
      <path d="M30.7036,97.728c0-2.8188,1.4033-4.3296,3.5742-4.3296s3.5742,1.5107,3.5742,4.3296-1.4033,4.3296-3.5742,4.3296-3.5742-1.5112-3.5742-4.3296Zm5.9009,.6836v-1.3672c0-1.5952-.9355-2.6025-2.3267-2.6025s-2.3267,1.0073-2.3267,2.6025v1.3672c0,1.5952,.9355,2.6025,2.3267,2.6025s2.3267-1.0073,2.3267-2.6025Z"/>
      <path d="M43.3135,100.894h-.0596c-.228,.5996-.708,1.1636-1.7393,1.1636-1.2715,0-2.063-.8755-2.063-2.3867v-3.9697h1.1157v3.8018c0,1.0435,.4434,1.583,1.3188,1.583,.708,0,1.4272-.3599,1.4272-1.1392v-4.2456h1.1157v6.2124h-1.1157v-1.0195Z"/>
      <path d="M47.9229,101.9136c-.7676,0-1.1758-.4556-1.1758-1.1753v-4.0898h-.9951v-.9473h.5518c.4194,0,.5513-.1562,.5513-.5757v-1.1396h1.0078v1.7153h1.3311v.9473h-1.3311v4.3179h1.2354v.9473h-1.1753Z"/>
      <path d="M50.6831,95.7012h1.1152v1.019h.0483c.2876-.7676,.9355-1.1631,1.7866-1.1631,1.5596,0,2.4951,1.2354,2.4951,3.25s-.9355,3.2505-2.4951,3.2505c-.8511,0-1.499-.396-1.7866-1.1636h-.0483v3.4185h-1.1152v-8.6113Zm4.2578,3.6338v-1.0552c0-1.0435-.6357-1.7515-1.6313-1.7515-.8394,0-1.5112,.48-1.5112,1.1396v2.2788c0,.6597,.6719,1.1392,1.5112,1.1392,.9956,0,1.6313-.7075,1.6313-1.751Z"/>
      <path d="M61.5049,100.894h-.0596c-.228,.5996-.708,1.1636-1.7393,1.1636-1.2715,0-2.063-.8755-2.063-2.3867v-3.9697h1.1157v3.8018c0,1.0435,.4434,1.583,1.3188,1.583,.708,0,1.4272-.3599,1.4272-1.1392v-4.2456h1.1157v6.2124h-1.1157v-1.0195Z"/>
      <path d="M66.1147,101.9136c-.7676,0-1.1758-.4556-1.1758-1.1753v-4.0898h-.9951v-.9473h.5518c.4194,0,.5518-.1562,.5518-.5757v-1.1396h1.0073v1.7153h1.3311v.9473h-1.3311v4.3179h1.2354v.9473h-1.1753Z"/>
      <path d="M68.2993,100.8584l.7559-.6479c.4678,.5879,1.043,.9233,1.7988,.9233,.7915,0,1.2231-.3477,1.2231-.9233,0-.4556-.2397-.7793-.9951-.8872l-.5278-.084c-1.1875-.168-2.0151-.6597-2.0151-1.811,0-1.2236,.9478-1.8711,2.2549-1.8711,1.0557,0,1.7153,.3716,2.2427,.9956l-.7075,.6714c-.2998-.396-.8276-.7437-1.5713-.7437-.7554,0-1.1392,.3477-1.1392,.8755,0,.5518,.3599,.7798,1.0796,.8877l.5273,.084c1.3677,.2036,1.9312,.8032,1.9312,1.7632,0,1.2109-.9116,1.9668-2.3745,1.9668-1.1514,0-1.9072-.4678-2.4829-1.1992Z"/>
      <path d="M77.9229,96.6484h-.9956v-.9473h.9956v-1.1514c0-.9116,.4795-1.5112,1.4512-1.5112h.9712v.9473h-1.3071v1.7153h1.3071v.9473h-1.3071v5.2651h-1.1152v-5.2651Z"/>
      <path d="M81.5586,101.9136v-6.2124h1.1152v1.187h.0601c.2041-.6113,.7559-1.187,1.751-1.187h.3721v1.1152h-.5518c-1.0312,0-1.6313,.4077-1.6313,1.0195v4.0776h-1.1152Z"/>
      <path d="M85.6147,98.8071c0-1.979,1.1396-3.25,2.8306-3.25s2.8306,1.271,2.8306,3.25-1.1396,3.2505-2.8306,3.2505-2.8306-1.2715-2.8306-3.2505Zm4.4736,.4678v-.9355c0-1.2109-.6714-1.8228-1.6431-1.8228-.9712,0-1.6431,.6118-1.6431,1.8228v.9355c0,1.2114,.6719,1.8232,1.6431,1.8232,.9717,0,1.6431-.6118,1.6431-1.8232Z"/>
      <path d="M92.8027,101.9136v-6.2124h1.1152v1.019h.0601c.2642-.6353,.8276-1.1631,1.6553-1.1631s1.5591,.3838,1.8828,1.2593h.0239c.228-.6719,.8516-1.2593,1.895-1.2593,1.2476,0,1.9912,.8755,1.9912,2.3867v3.9697h-1.1157v-3.8018c0-1.0435-.3955-1.5835-1.2593-1.5835-.7197,0-1.3789,.3721-1.3789,1.1274v4.2578h-1.1157v-3.8018c0-1.0435-.3955-1.5835-1.2471-1.5835-.7075,0-1.3916,.3721-1.3916,1.1274v4.2578h-1.1152Z"/>
      <path d="M106.2549,93.542h3.562c1.3789,0,2.2427,.8516,2.2427,2.1592,0,1.2471-.8037,1.7031-1.4155,1.7749v.0718c.6357,.0361,1.7031,.5518,1.7031,1.9551,0,1.3672-.9355,2.4106-2.1704,2.4106h-3.9219v-8.3716Zm1.1631,3.5864h2.2188c.7319,0,1.1753-.396,1.1753-1.0918v-.3955c0-.6958-.4434-1.0913-1.1753-1.0913h-2.2188v2.5786Zm0,3.7778h2.4106c.7915,0,1.2715-.4077,1.2715-1.1875v-.4199c0-.7793-.48-1.187-1.2715-1.187h-2.4106v2.7944Z"/>
      <path d="M118.9375,92.7988h1.0796c-1.2954,1.1514-2.1948,3.1299-2.1948,4.8809v.9839c0,1.751,.8994,3.73,2.1948,4.8813h-1.0796c-1.1875-1.0078-2.1587-3.0464-2.1587-5.373s.9712-4.3657,2.1587-5.373Z"/>
      <path d="M120.4868,98.8071c0-1.979,1.1396-3.25,2.8306-3.25s2.8306,1.271,2.8306,3.25-1.1396,3.2505-2.8306,3.2505-2.8306-1.2715-2.8306-3.2505Zm4.4736,.4678v-.9355c0-1.2109-.6714-1.8228-1.6431-1.8228-.9712,0-1.6431,.6118-1.6431,1.8228v.9355c0,1.2114,.6719,1.8232,1.6431,1.8232,.9717,0,1.6431-.6118,1.6431-1.8232Z"/>
      <path d="M131.4761,100.894h-.0596c-.228,.5996-.708,1.1636-1.7393,1.1636-1.2715,0-2.063-.8755-2.063-2.3867v-3.9697h1.1157v3.8018c0,1.0435,.4434,1.583,1.3193,1.583,.7075,0,1.4268-.3599,1.4268-1.1392v-4.2456h1.1157v6.2124h-1.1157v-1.0195Z"/>
      <path d="M136.0859,101.9136c-.7676,0-1.1758-.4556-1.1758-1.1753v-4.0898h-.9951v-.9473h.5518c.4194,0,.5513-.1562,.5513-.5757v-1.1396h1.0078v1.7153h1.3311v.9473h-1.3311v4.3179h1.2354v.9473h-1.1753Z"/>
      <path d="M138.8462,95.7012h1.1152v1.019h.0483c.2876-.7676,.9355-1.1631,1.7866-1.1631,1.5596,0,2.4951,1.2354,2.4951,3.25s-.9355,3.2505-2.4951,3.2505c-.8511,0-1.499-.396-1.7866-1.1636h-.0483v3.4185h-1.1152v-8.6113Zm4.2578,3.6338v-1.0552c0-1.0435-.6357-1.7515-1.6313-1.7515-.8394,0-1.5112,.48-1.5112,1.1396v2.2788c0,.6597,.6719,1.1392,1.5112,1.1392,.9956,0,1.6313-.7075,1.6313-1.751Z"/>
      <path d="M149.668,100.894h-.0596c-.228,.5996-.708,1.1636-1.7393,1.1636-1.2715,0-2.063-.8755-2.063-2.3867v-3.9697h1.1157v3.8018c0,1.0435,.4434,1.583,1.3188,1.583,.708,0,1.4272-.3599,1.4272-1.1392v-4.2456h1.1157v6.2124h-1.1157v-1.0195Z"/>
      <path d="M154.2773,101.9136c-.7676,0-1.1758-.4556-1.1758-1.1753v-4.0898h-.9951v-.9473h.5518c.4194,0,.5513-.1562,.5513-.5757v-1.1396h1.0078v1.7153h1.3311v.9473h-1.3311v4.3179h1.2354v.9473h-1.1753Z"/>
      <path d="M157.062,103.5449h-1.0791c1.2949-1.1514,2.1948-3.1304,2.1948-4.8813v-.9839c0-1.751-.8999-3.7295-2.1948-4.8809h1.0791c1.1875,1.0073,2.1592,3.0459,2.1592,5.373s-.9717,4.3652-2.1592,5.373Z"/>
    </g>
  </g>
  <g id="Layer_6" data-name="Layer 6">
    <text class="cls-8" transform="translate(517.1147 227.8031)"><tspan x="0" y="0">Member deployable architecture A</tspan></text>
  </g>
  <g id="Layer_7" data-name="Layer 7">
    <text class="cls-9" transform="translate(627.3185 285.2026)"><tspan x="0" y="0">A creates outputs</tspan></text>
  </g>
  <g id="Layer_15" data-name="Layer 15">
    <text class="cls-9" transform="translate(626.5612 535.1584)"><tspan x="0" y="0">B creates outputs that display at the stack level</tspan></text>
  </g>
  <g id="Layer_10" data-name="Layer 10">
    <text class="cls-9" transform="translate(628.1147 152.8031)"><tspan x="0" y="0">A uses the prefix as an input</tspan></text>
  </g>
  <g id="Layer_11" data-name="Layer 11">
    <g>
      <line class="cls-5" x1="748" y1="302.5" x2="748.0299" y2="308.4999"/>
      <line class="cls-7" x1="748.0928" y1="321.1428" x2="748.4387" y2="390.6786"/>
      <line class="cls-5" x1="748.4701" y1="397.0001" x2="748.5" y2="403"/>
    </g>
    <g id="Layer_12" data-name="Layer 12">
      <line class="cls-5" x1="597.6968" y1="402.8724" x2="608.5" y2="412"/>
      <line class="cls-5" x1="607.6968" y1="393.8724" x2="597.6968" y2="402.8724"/>
    </g>
  </g>
  <g id="Layer_14" data-name="Layer 14">
    <text class="cls-9" transform="translate(255.4296 394.4248)"><tspan x="0" y="0">B uses an output from A as an input</tspan></text>
  </g>
  <g id="Layer_9" data-name="Layer 9">
    <text class="cls-8" transform="translate(517.1046 453.2249)"><tspan x="0" y="0">Member deployable architecture B</tspan></text>
  </g>
</svg>